/* XPM */
static char *e32ba404cc054156ecddda785dc9290bPSCDiKDYzMHDXeN4[] = {
/* columns rows colors chars-per-pixel */
"64 64 52 1 ",
"  c None",
". c #A67456",
"X c #A97759",
"o c #AA7859",
"O c #AB7959",
"+ c #AD7A5A",
"@ c #AD7B5B",
"# c #AA7C5B",
"$ c #AD7E5B",
"% c #AF815C",
"& c #AF815E",
"* c #B1805D",
"= c #B0815D",
"- c #B2835C",
"; c #B5835F",
": c #B88460",
"> c #B88762",
", c #BA8762",
"< c #B68962",
"1 c #BA8863",
"2 c #B88B62",
"3 c #B98C63",
"4 c #BD8D62",
"5 c #BB8D65",
"6 c #BC8E68",
"7 c #BF9567",
"8 c #C29368",
"9 c #C29668",
"0 c #C2976A",
"q c #C5956A",
"w c #C9956B",
"e c #C3996B",
"r c #C49A6C",
"t c #C69C6C",
"y c #C69C6D",
"u c #C69D6D",
"i c #C69C6E",
"p c #C79D6E",
"a c #CA9B6E",
"s c #CD996E",
"d c #CD9A6E",
"f c #CB9C6F",
"g c #C79F70",
"h c #CFA57A",
"j c #DBAF82",
"k c #D5B388",
"l c #D8B68A",
"z c #DDBF96",
"x c #E6C89D",
"c c #EAD2A8",
"v c #EBD4AC",
"b c #EFD9B0",
/* pixels */
"                                                                ",
"                                                                ",
"                                                                ",
"                                                                ",
"                                                                ",
"                                                                ",
"                                                                ",
"                                                                ",
"                                                                ",
"                                                                ",
"                                                                ",
"                                                                ",
"                        4444--------4444                        ",
"                        4444--------4444                        ",
"                        4444--------4444                        ",
"                        4444--------4444                        ",
"                    hhhhxxxxzzzzzzzzxxxxhhhh                    ",
"                    hhhhxxxxzzzzzzzzxxxxhhhh                    ",
"                    hhhhxxxxzzzzzzzzxxxxhhhh                    ",
"                    hhhhxxxxzzzzzzzzxxxxhhhh                    ",
"                    jjjjbbbbccccccccbbbbjjjj                    ",
"                    jjjjbbbbccccccccbbbbjjjj                    ",
"                    jjjjbbbbccccccccbbbbjjjj                    ",
"                    jjjjbbbbccccccccbbbbjjjj                    ",
"iiiiiiiigggg7777%%%%6666llllvvvvvvvvllll6666%%%%7777ggggiiiiiiii",
"iiiiiiiigggg7777%%%%6666llllvvvvvvvvllll6666%%%%7777ggggiiiiiiii",
"iiiiiiiigggg7777%%%%6666llllvvvvvvvvllll6666%%%%7777ggggiiiiiiii",
"iiiiiiiigggg7777%%%%6666llllvvvvvvvvllll6666%%%%7777ggggiiiiiiii",
"ddddddddddddwwww::::$$$$iiiikkkkkkkkiiii$$$$::::wwwwdddddddddddd",
"ddddddddddddwwww::::$$$$iiiikkkkkkkkiiii$$$$::::wwwwdddddddddddd",
"ddddddddddddwwww::::$$$$iiiikkkkkkkkiiii$$$$::::wwwwdddddddddddd",
"ddddddddddddwwww::::$$$$iiiikkkkkkkkiiii$$$$::::wwwwdddddddddddd",
"                ....::11iiii00099999tttt::11....                ",
"                ....::1:iiii00099999tttt::1:....                ",
"                ....::::iiii00000099iiii::::....                ",
"                ....::::iiii00000099iiii::::....                ",
"                ####1111iiiirrrrrrrriiii1111####                ",
"                ####1111iiiirrrrrrrriiii1111####                ",
"                ####1111iiiirrrrrrrriiii1111####                ",
"                ####1111iiiirrrrrrrriiii1111####                ",
"aaaaaaaaffffqqqq;;;;%%%%iiiirrrrrrrriiii%%%%::::qqqqffffaaaaaaaa",
"aaaaaaaaffffqqqq;;;;%%%%iiiirrrrrrrriiii%%%%::::qqqqffffaaaaaaaa",
"aaaaaaaaffffqqqq;;;;%%%%iiiirrrrrrrriiii%%%%;;::qqqqffffaaaaaaaa",
"aaaaaaaaffffqqqq;;;;%%%%iiiirrrrrrrriiii%%%%;;;:qqqqffffaaaaaaaa",
"@@@@@@@@@@@@@@@@oooo----eeeerrrrrrrreeee----oooo@@@@@@@@@@@@@@@@",
"@@@@@@@@@@@@@@@@oooo----eeeerrrrrrrreeee----oooo@@@@@@@@@@@@@@@@",
"@@@@@@@@@@@@@@@@oooo----eeeerrrrrrrreeee----oooo@@@@@@@@@@@@@@@@",
"@@@@@@@@@@@@@@@@oooo%---eeeerrrrrrrreeee----oooo@@@@@@@@@@@@@@@@",
"ooooooooooooooooXXXX----3333000000003333---$XXXXoooooooooooooooo",
"ooooooooooooooooXXXX----3333000000003333---$XXXXoooooooooooooooo",
"ooooooooooooooooXXXX$$--3333000000003333----XXXXoooooooooooooooo",
"ooooooooooooooooXXXX$---3333000000003333----XXXXoooooooooooooooo",
"                    ::::5555111111115555:::1                    ",
"                    ::::5555111111115555::11                    ",
"                    11::5555131113115555::::                    ",
"                    1:::5555231123115555::::                    ",
"                        8888<<<<<<<<8888                        ",
"                        8888<<<<<<<<8888                        ",
"                        8888<<<<<<<<8888                        ",
"                        8888<<<<<<<<8888                        ",
"                                                                ",
"                                                                ",
"                                                                ",
"                                                                "
};
