/* XPM */
static char *_38f8b3066e04b4ccc601c1f2f93e470FNcXfK7PJlazbFsH[] = {
/* columns rows colors chars-per-pixel */
"64 64 82 1 ",
"  c None",
". c #A77456",
"X c #A67556",
"o c #A77556",
"O c #A87857",
"+ c #AB7A57",
"@ c #A87758",
"# c #A97759",
"$ c #AA7958",
"% c #AA7859",
"& c #AA7959",
"* c #AB7A59",
"= c #AB7A5A",
"- c #AD7A5A",
"; c #AD7B5B",
": c #AE7C5B",
"> c #AE7D5B",
", c #AF7D5B",
"< c #B18159",
"1 c #B3825B",
"2 c #B2835B",
"3 c #B2825E",
"4 c #B4845D",
"5 c #B5855E",
"6 c #B48660",
"7 c #BC8663",
"8 c #B58861",
"9 c #B68961",
"0 c #B68962",
"q c #B68A62",
"w c #BA8962",
"e c #BB8962",
"r c #B88A62",
"t c #B88B63",
"y c #B98B63",
"u c #BE8C62",
"i c #BD8B64",
"p c #BB8D65",
"a c #BF8F65",
"s c #BE8F67",
"d c #BB9066",
"f c #C18D66",
"g c #C09067",
"h c #C09567",
"j c #C29369",
"k c #C09569",
"l c #C19668",
"z c #C29769",
"x c #C49469",
"c c #C7976C",
"v c #CB976D",
"b c #C3996B",
"n c #C49A6B",
"m c #C59A6B",
"M c #C49A6C",
"N c #C59B6D",
"B c #C69C6D",
"V c #C79D6E",
"C c #C8986D",
"Z c #CA9B6E",
"A c #CD996E",
"S c #CD9A6E",
"D c #CB9C6F",
"F c #C79F70",
"G c #CB9F75",
"H c #CCA576",
"J c #D0AC80",
"K c #D2AF83",
"L c #D6B087",
"P c #D7B68A",
"I c #DCBF96",
"U c #DFC096",
"Y c #DFC196",
"T c #DFC198",
"R c #E4C095",
"E c #E5C89D",
"W c #E8CEA5",
"Q c #EAD1A8",
"! c #EBD3AA",
"~ c #ECD4AB",
"^ c #EDD7AE",
"/ c #EED9B0",
/* pixels */
"                    7777&&&&                                    ",
"                    7777&&&&                                    ",
"                    7777&&&&                                    ",
"                    7777&&&&                                    ",
"                    7777&&&&                                    ",
"                    7777&&&&                                    ",
"                    7777&&&&                                    ",
"                    7777&&&&                                    ",
"                    7777####                                    ",
"                    7777####                                    ",
"                    7777####                                    ",
"                    7777####                                    ",
"                uuuu444444442222                                ",
"                uuuu444444442222                                ",
"                uuuu444444442222                                ",
"                uuuu444444442222                                ",
"        2222LLLLEEEEIIIITTTTUUUUaaas                            ",
"        2222LLLLEEEEIIIITTTTUUUUaaaa                            ",
"        2222LLLLEEEEIIIITTTTUUUUaaaa                            ",
"        2222LLLLEEEEIIIITTTTUUUUaaaa                            ",
"        2222RRRR////QQQQQQQQ~~~~cccc                            ",
"        2222RRRR////QQQQQQQQ~~~~cccc                            ",
"        2222RRRR////QQQQQQQQ~~~~cccc                            ",
"        2222RRRR////QQQQ!QQQ~~~~cccc                            ",
"        ++++GGGGUUUU^^^^WWWWJJJJ33336666MMMMFFFFBBBBBBBBBBBBBBBB",
"        ++++GGGGUUUU^^^^WWWWJJJJ33336666MMMMFFFFBBBBBBBBBBBBBBBB",
"        ++++GGGGUUUU^^^^WWWWJJJJ33336666MMMMFFFFBBBBBBBBBBBBBBBB",
"        ++++GGGGUUUU^^^^WWWWJJJJ33336666MMMMFFFFBBBBBBBBBBBBBBBB",
"        ....aaaaHHHHPPPPJJJJhhhh&&&&ffffvvvvAAAAAAAAAAAAAAAAAAAA",
"        ....aaaaHHHHPPPPJJJJhhhh&&&&ffffvvvvAAAAAAAAAAAAAAAAAAAA",
"        ....aaaaHHHHPPPPJLJJhhhh&&&&ffffvvvvAAAAAAAAAAAAAAAAAAAA",
"        ....aaaaHHHHPPPPLLJJhhhh&&&&ffffvvvvAAAAAAAAAAAAAAAAAAAA",
"        ....jjjjnnnnkkkkkkkkbbbb::::....                        ",
"        ....jjjjnnnnkkkkkkkkbbbb::::....                        ",
"        ....jjjjnnnnkkkkbbkbbbbb::::....                        ",
"        ....jjjjnnnnkkkkbbbbbbbb::::....                        ",
"        ....jjjjBBBBMMMMMMMMbbbb::::                            ",
"        ....jjjjBBBBMMMMMMMMbbbb::::                            ",
"        ....jjjjBBBBMMMMMMnnbbbb::::                            ",
"        ....jjjjBBBBMMMMMMnnbbbb::::                            ",
"        ....jjjjBBBBMMMMMMMMnnnn&&&&iiiiCCCCDDDDCCCDDDCCCDDDCCCC",
"        ....jjjjBBBBMMMMMMMMnnnn&&&&iiiiCCCCDDDDCCDDDDCCCDDDCCCC",
"        ....jjjjBBBBMMMMMMMMnnnn&&&&iiiiCCCCDDDDCCCCDDDCCCDDCDCC",
"        ....jjjjBBBBMMMMMMMMnnnn&&&&iiiiCCCCDDDDCCCCDDDDCCDDDDCC",
"        ....ggggMMMMMMMMMMMMkkkk&&&&----------------------------",
"        ....ggggMMMMMMMMMMMMkkkk&&&&----------------------------",
"        ....ggggMMMMMMMMMMMMkkkk&&&&----------------------------",
"        ....ggggMMMMMMMMMMMMkkkk&&&&----------------------------",
"        OOOOwwwwddddbbbbkkkkqqq6::::&&&&&&&&&&&&&&&&&&&&&&&&&&&&",
"        OOOOwwwwddddbbbbkkkkqqqq::::&&&&&&&&&&&&&&&&&&&&&&&&&&&&",
"        +O++wwwwddddbbbbkkkkqqqq::::&&&&&&&&&&&&&&&&&&&&&&&&&&&&",
"        ++++wwwwddddbbbbkkkkqqqq::::&&&&&&&&&&&&&##&&&##&&&&&&&&",
"        ####wwwwppppwwwwttwwwwww::::                            ",
"        ####wwwwppppwwwwttwwwwww::::                            ",
"        ####wwwwppppwwwwttttwwww::::                            ",
"        ####wwwwppppqwwwttttqwww::::                            ",
"            qqqqxxxxqqqqwwwwqqqq                                ",
"            qqqqxxxxqqqqwwwwqqqq                                ",
"            qqqqxxxxqqqqwwwwqqqq                                ",
"            qqqqxxxxqqqqwwwwqqqq                                ",
"                                                                ",
"                                                                ",
"                                                                ",
"                                                                "
};
