/* XPM */
static char *_39ddc1687494fdde089ff4e9671ee011Ug5JptHRrZ2Ignm[] = {
/* columns rows colors chars-per-pixel */
"64 64 70 1 ",
"  c None",
". c #A57255",
"X c #A77556",
"o c #A87657",
"O c #A87757",
"+ c #AA7A57",
"@ c #A97758",
"# c #A87858",
"$ c #A97858",
"% c #AA7959",
"& c #AB7959",
"* c #AB7A59",
"= c #AB7A5A",
"- c #AC7C5A",
"; c #AD7C5B",
": c #AD7D5B",
"> c #AE7C5B",
", c #AF7D5C",
"< c #B17E5C",
"1 c #B2825A",
"2 c #B2825B",
"3 c #B1815D",
"4 c #B1835E",
"5 c #B2855D",
"6 c #B5865E",
"7 c #B68761",
"8 c #BC8663",
"9 c #BD8763",
"0 c #B68961",
"q c #B78962",
"w c #B78A62",
"e c #B88B63",
"r c #B98C63",
"t c #BB8B64",
"y c #BD8B64",
"u c #BA8D65",
"i c #BB8D65",
"p c #BE8C65",
"a c #BE8F66",
"s c #C08E64",
"d c #C08F65",
"f c #C29268",
"g c #C29369",
"h c #C09569",
"j c #C39469",
"k c #C19668",
"l c #C19669",
"z c #C5966A",
"x c #C5966B",
"c c #C3996B",
"v c #C4996A",
"b c #C59B6D",
"n c #C69C6C",
"m c #C99C72",
"M c #CBA375",
"N c #CDA87C",
"B c #D0AB7F",
"V c #D4B185",
"C c #D8B489",
"Z c #DDBF93",
"A c #E2BF94",
"S c #E0C39A",
"D c #E1C39A",
"F c #E2C59C",
"G c #E7CBA1",
"H c #E7CEA4",
"J c #E9D1A7",
"K c #EBD3AA",
"L c #EED8AF",
"P c #EED8B0",
/* pixels */
"                    8888%%%%                                    ",
"                    8888%%%%                                    ",
"                    8888%%%%                                    ",
"                    8888%%%%                                    ",
"                    8888%%%%                                    ",
"                    8888%%%%                                    ",
"                    8888%%%%                                    ",
"                    8888#%%%                                    ",
"                ssss666666665555                                ",
"                ssss666666665555                                ",
"                ssss666666665555                                ",
"                ssss666666665555                                ",
"        2222CCCCGGGGDDDDFFFFDDDDpppa                            ",
"        2222CCCCGGGGDDDDFFFFDDDDppaa                            ",
"        2222CCCCGGGGDDDDFFFFDDDDpppp                            ",
"        2222CCCCGGGGDDDDFFFFDDDDpppp                            ",
"        2222AAAAPPPPJJJJKKKKKKKKzzzz                            ",
"        2222AAAAPPPPJJJJKKKKKKKKzzzz                            ",
"        2222AAAAPPPPJJJJKKKKKKKKzzzz                            ",
"        2222AAAAPPPPJJJJKKKKKKKKzzzz                            ",
"        ++++mmmmZZZZLLLLHHHHNNNN4444                            ",
"        ++++mmmmZZZZLLLLHHHHNNNN4444                            ",
"        ++++mmmmZZZZLLLLHHHHNNNN4444                            ",
"        ++++mmmmZZZZLLLLHHHHNNNN4444                            ",
"        XXXXssssMMMMVVVVBBBBkkkk%%%%                            ",
"        XXXXssssMMMMVVVVBBBBkkkk%%%%                            ",
"        XXXXssssMMMMVVVVBBBBkkkk%%%%                            ",
"        XXXXssssMMMMVVVVBBBBkkkk%%%%                            ",
"        XXXXggggnnnnvvvvvvvvcccc;;;;                            ",
"        XXXXggggnnnnvvvvvvvvcccc;;;;                            ",
"        XXXXggggnnnnvvvvvvvvcccc;;;;                            ",
"        XXXXggggnnnnvvvvvvvvcccc;;;;                            ",
"        XXXXkkkkkkkkwwwwiiiicccc;;;;                            ",
"        XXXXkkkkkkkkwwwwiiiicccc;;;;                            ",
"        XXXXkkkkkkkkwwwwiiiicccc;;;;                            ",
"        XXXXjkkkkkkkwwwwiiiicccc;;;;                            ",
"        XXXXzzzziiii....;;;;bbbb%%%%                            ",
"        XXXXzzzziiii....;;;;bbbb%%%%                            ",
"        XXXXzzzziiii....;;;;bbbb%%%%                            ",
"        XXXXzzzziiii....;;;;bbbb%%%%                            ",
"        XXXXggggeeeeOOOO;;;;kkkk%%%%                            ",
"        XXXXggggeeeeOOOO;;;;kkkk%%%%                            ",
"        XXXXggggeeeeOOOO;;;;kkkk%%%%                            ",
"        XXXXggggeeeeOOOO;;;;kkkk%%%%                            ",
"        %%%%pppp4444@@@@;;;;wwww<<<<                            ",
"        %%%%pppp4444@@@@;;;;wwww<<<<                            ",
"        %%%%pppp4444@@@@;;;;wwww<<<<                            ",
"        %%%%pppp4444@@@@;;;;wwww<<<<                            ",
"        OOOOtttt7777@@@@;;;;rrrr,,,,                            ",
"        OOOOtttt7777@@@@;;;;rrrr,,,,                            ",
"        OOOOtttt7777@@@@;;;;rrrr,,,,                            ",
"        OOOOtttt7777@@@@;;;;rrrr,,,,                            ",
"                yyyy%%%%;;;;wwww                                ",
"                yyyy%%%%;;;;wwww                                ",
"                yyyy%%%%;;;;wwww                                ",
"                yyyy%%%%;;;;wwww                                ",
"                    8888%%%%                                    ",
"                    8888%%%%                                    ",
"                    8888%%%%                                    ",
"                    8888%%%%                                    ",
"                    8888%%%%                                    ",
"                    8888%%%%                                    ",
"                    8888%%%%                                    ",
"                    8888%%%%                                    "
};
