/* XPM */
static char *_6e1301cc685427bf3b766c80b2b937f2qNahzhoLSNeEIcf[] = {
/* columns rows colors chars-per-pixel */
"64 64 91 1 ",
"  c None",
". c #A57256",
"X c #A77556",
"o c #A87657",
"O c #AA7857",
"+ c #A97658",
"@ c #A87758",
"# c #A97758",
"$ c #A97959",
"% c #AA7959",
"& c #AB7A59",
"* c #AB7A5A",
"= c #AC7A5A",
"- c #AC7C5A",
"; c #AD7C5B",
": c #AD7D5B",
"> c #AE7C5A",
", c #AE7D5B",
"< c #AD7B5C",
"1 c #B07D5B",
"2 c #B07C5C",
"3 c #B07D5C",
"4 c #B17D5C",
"5 c #B07F5C",
"6 c #B3815B",
"7 c #B3825A",
"8 c #B3805D",
"9 c #B1835E",
"0 c #B4855F",
"q c #B4875E",
"w c #B5875E",
"e c #B4875F",
"r c #B48660",
"t c #B48661",
"y c #BC8663",
"u c #BD8764",
"i c #B78960",
"p c #B68961",
"a c #B78A63",
"s c #B88862",
"d c #BA8862",
"f c #B88A63",
"g c #B88B63",
"h c #BB8B63",
"j c #BE8964",
"k c #BD8A64",
"l c #BB8D64",
"z c #BB8E65",
"x c #BF8D65",
"c c #BE9066",
"v c #BF9468",
"b c #C09066",
"n c #C29166",
"m c #C19168",
"M c #C29369",
"N c #C39369",
"B c #C59169",
"V c #C6926A",
"C c #C7926A",
"Z c #C09469",
"A c #C19668",
"S c #C3946A",
"D c #C5956A",
"F c #C5966A",
"G c #C6966B",
"H c #C2996B",
"J c #C3996B",
"K c #C49A6A",
"L c #C49A6B",
"P c #C49A6C",
"I c #C59B6D",
"U c #C7996F",
"Y c #C59C6D",
"T c #C69C6C",
"R c #C69E6F",
"E c #CAA273",
"W c #CBA478",
"Q c #CDA87B",
"! c #D0AC80",
"~ c #D9B58B",
"^ c #DBBC91",
"/ c #E1BE93",
"( c #E3C69D",
") c #E4C99F",
"_ c #E6CAA0",
"` c #E7CDA4",
"' c #E9CEA5",
"] c #E9D0A7",
"[ c #EAD2A9",
"{ c #EDD7AF",
"} c #EED8AF",
/* pixels */
"                                                                ",
"                                                                ",
"                                                                ",
"                                                                ",
"                                000waaaa000wbbbb0000            ",
"                                00wwaaaa0000bbbb0000            ",
"                                0000awaa0000bbbb0000            ",
"                                0000wwaa0000bbbbw000            ",
"                            cccc((((____))))''''~~~~7777        ",
"                            cccc((((____))))''''~~~~7777        ",
"                            cccc((((____))))''''~~~~7777        ",
"                            cccc((((____))))''''~~~~7777        ",
"                            SSSS[[[[[[[[]]]]{{{{////7777        ",
"                            SSSS[[[[[[[[]]]]{{{{////7777        ",
"                            SSSS[[[[[[[[]]]]{{{{////7777        ",
"                            SSSS[[[[[[[[]]]]{{{{////7777        ",
"RIIIRRRRRIIIRRRRRRRRHHHHrrrr5555WWWW````}}}}^^^^IIIIOOOO        ",
"RIIIRRRRRIIIRRRRRRRRHHHHrrrr5555WWWW````}}}}^^^^IIIIOOOO        ",
"RRIIRRRRRRIIRRRRRRRRHHHHrrrr5555WWWW````}}}}^^^^IIIIOOOO        ",
"RRIIIRRRRRIIIRRRRRRRHHHHrrrr5555WWWW````}}}}^^^^UIIIOOOO        ",
"CCCCCCCCCCCCCCCCCCCCCCCCjjjj%%%%SSSAQQQQ!!!!EEEEbbbbXXXX        ",
"CCCCCCCCCCCCCCCCCCCCCCCCjjjj%%%%SSSAQQQQ!!!!EEEEbbbbXXXX        ",
"CCCCCCCCCCCCCCCCCCCCCCCCjjjj%%%%SSSSQQQQ!!!!EEEEbbbbXXXX        ",
"CCCCCCCCCCCCCCCCCCCCCCCCjjjj%%%%SSSSQQQQ!!!!EEEEbbbbXXXX        ",
"                            ,,,,HHHHTTTTTTTTRRRRNNNNXXXX        ",
"                            ,,,,HHHHTTTTTTTTRRRRNNNNXXXX        ",
"                            ,,,,HHHHTTTTTTTTTTRRNNNNXXXX        ",
"                            ,,,,HHHHTTTTHHTTTTRRNNNNXXXX        ",
"                        0000,,,,PPIIddddrrrrSSSvSSSSXXXX        ",
"                        0000,,,,PPIIddddrrrrSSvvSSSSXXXX        ",
"                        0000,,,,PPPPdlddrrrrSSSSSSSSXXXX        ",
"                        0000,,,,PPPPggddrrrrSSSSSSSSXXXX        ",
"DDDDDDDDDDDDDDDDDDDDNNNNdddd%%%%IIII,,,,....zzzzDDDDXXXX        ",
"DDDDDDDDDDDDDDDDDDDDNNNNdddd%%%%IIII,,,,....zzzzDDDDXXXX        ",
"DDDDDDDDDDDDDDDDDDDDNNNNdddd%%%%IIII,,,,....zzzzDDDDXXXX        ",
"DDDDDDDDDDDDDDDDDDDDNNNNdddd%%%%IIII,,,,....zzzzDDDDXXXX        ",
"5555555555555555222555555555%%%%vvvv,,,,ooXXddddNNNNXXXX        ",
"5555555555555555222555555555%%%%vvvv,,,,oXXXddddNNNNXXXX        ",
"5555555555555555222255555555%%%%vvvv,,,,ooXXadddNNNNXXXX        ",
"5555555555555555222255555555%%%%vvvv,,,,ooXXadddNNNNXXXX        ",
"%%%%%%%%%%%%%%%%%%%%%%%%%%%%8888aaaa----%%##8888xxxx####        ",
"%%%%%%%%%%%%%%%%%%%%%%%%%%%%8888aaaa----####8888xxxx####        ",
"%%%%%%%%%%%%%%%%%%%%%%%%%%%%8888aaaa--,,####9988xxxx####        ",
"%%%%%%%%%%%%%%%%%%%%%%%%%%%%8888aaaa--,,####9888xxxx####        ",
"                            1111llll,,,,@@##aaaadddloooo        ",
"                            1111llll,,,,@@##aaaaddlloooo        ",
"                            1111zlll,,,,@@##ddadddddoooo        ",
"                            1111zlll,,,,####ddddddddoooo        ",
"                                aaaa<<<<====jjjj                ",
"                                aaaa<<<<====jjjj                ",
"                                aaaa<<<<====jjjj                ",
"                                aaaa<<<<====jjjj                ",
"                                    %%%%uuuu                    ",
"                                    %%%%uuuu                    ",
"                                    %%%%uuuu                    ",
"                                    %%%%uuuu                    ",
"                                    %%%%yyyy                    ",
"                                    %%%%yyyy                    ",
"                                    %%%%yyyy                    ",
"                                    %%%%yyyy                    ",
"                                    %%%%yyyy                    ",
"                                    %%%%yyyy                    ",
"                                    %%%%yyyy                    ",
"                                    %%%%yyyy                    "
};
