/* XPM */
static char *_a8edf89420449f7d523d079b72c42b7bVlITdbAxofUCfJK[] = {
/* columns rows colors chars-per-pixel */
"64 64 70 1 ",
"  c None",
". c #A57255",
"X c #A77556",
"o c #A87657",
"O c #A87757",
"+ c #AA7A57",
"@ c #A97758",
"# c #A87858",
"$ c #A97858",
"% c #AA7959",
"& c #AB7959",
"* c #AB7A59",
"= c #AB7A5A",
"- c #AC7C5A",
"; c #AD7C5B",
": c #AD7D5B",
"> c #AE7C5B",
", c #AF7D5C",
"< c #B17E5C",
"1 c #B2825A",
"2 c #B2825B",
"3 c #B1815D",
"4 c #B1835E",
"5 c #B2855D",
"6 c #B5865E",
"7 c #B68761",
"8 c #BC8663",
"9 c #BD8763",
"0 c #B68961",
"q c #B78962",
"w c #B78A62",
"e c #B88B63",
"r c #B98C63",
"t c #BB8B64",
"y c #BD8B64",
"u c #BA8D65",
"i c #BB8D65",
"p c #BE8C65",
"a c #BE8F66",
"s c #C08E64",
"d c #C08F65",
"f c #C29268",
"g c #C29369",
"h c #C09569",
"j c #C39469",
"k c #C19668",
"l c #C19669",
"z c #C5966A",
"x c #C5966B",
"c c #C3996B",
"v c #C4996A",
"b c #C59B6D",
"n c #C69C6C",
"m c #C99C72",
"M c #CBA375",
"N c #CDA87C",
"B c #D0AB7F",
"V c #D4B185",
"C c #D8B489",
"Z c #DDBF93",
"A c #E2BF94",
"S c #E0C39A",
"D c #E1C39A",
"F c #E2C59C",
"G c #E7CBA1",
"H c #E7CEA4",
"J c #E9D1A7",
"K c #EBD3AA",
"L c #EED8AF",
"P c #EED8B0",
/* pixels */
"                                    %%%%9999                    ",
"                                    %%%%9999                    ",
"                                    %%%%9999                    ",
"                                    %%%%9999                    ",
"                                    %%%%9999                    ",
"                                    %%%%9999                    ",
"                                    %%%%9999                    ",
"                                    #%%%9999                    ",
"                                444466666666dddd                ",
"                                444466666666dddd                ",
"                                444466666666dddd                ",
"                                444466666666dddd                ",
"                            aaaaSSSSFFFFSSSSGGGGCCCC1111        ",
"                            aaaaSSSSFFFFSSSSGGGGCCCC1111        ",
"                            aaaaSSSSFFFFSSSSGGGGCCCC1111        ",
"                            aaaaSSSSFFFFSSSSGGGGCCCC1111        ",
"                            xxxxKKKKKKKKJJJJPPPPAAAA1111        ",
"                            xxxxKKKKKKKKJJJJPPPPAAAA1111        ",
"                            xxxxKKKKKKKKJJJJPPPPAAAA1111        ",
"                            xxxxKKKKKKKKJJJJPPPPAAAA1111        ",
"                            3333NNNNHHHHLLLLZZZZmmmm++++        ",
"                            3333NNNNHHHHLLLLZZZZmmmm++++        ",
"                            3333NNNNHHHHLLLLZZZZmmmm++++        ",
"                            3333NNNNHHHHLLLLZZZZmmmm++++        ",
"                            %%%%llllBBBBVVVVMMMMddddXXXX        ",
"                            %%%%llllBBBBVVVVMMMMddddXXXX        ",
"                            %%%%llllBBBBVVVVMMMMddddXXXX        ",
"                            %%%%llllBBBBVVVVMMMMddddXXXX        ",
"                            >>>>ccccvvvvvvvvnnnnffffXXXX        ",
"                            >>>>ccccvvvvvvvvnnnnffffXXXX        ",
"                            >>>>ccccvvvvvvvvnnnnffffXXXX        ",
"                            >>>>ccccvvvvvvvvnnnnffffXXXX        ",
"                            >>>>ccccuuuuqqqqllllllljooXX        ",
"                            >>>>ccccuuuuqqqqllllllllooXX        ",
"                            >>>>ccccuuuuqqqqlllllllloooX        ",
"                            >>>>ccccuuuuqqqqlllllllloooX        ",
"                            %%%%bbbb>>>>....uuuuxxxxXXXX        ",
"                            %%%%bbbb>>>>....uuuuxxxxXXXX        ",
"                            %%%%bbbb>>>>....uuuuxxxxXXXX        ",
"                            %%%%bbbb>>>>....uuuuxxxxXXXX        ",
"                            %%%%llla>>>>ooooeeeeffffXXXX        ",
"                            %%%%llla>>>>ooooeeeeffffXXXX        ",
"                            %%%%llaa>>>>ooooeeeeffffXXXX        ",
"                            %%%%llaa>>>>ooooeeeeffffXXXX        ",
"                            <<<<qqqq>>>-@@%%3333yyyy%%%%        ",
"                            <<<<qqqq>>>-@%%%3333yyyy%%%%        ",
"                            <<<<qqqq>>>>@@%%3333ayaa%%%%        ",
"                            <<<<qqqq>>>>@@%%4333aaaa%%%%        ",
"                            ,,,,rrrr>>>>@@@@7777ttttoooo        ",
"                            ,,,,rrrr>>>>@@@@7777ttttoooo        ",
"                            ,,,,rrrr>>>>@@@@7777ttttoooo        ",
"                            ,,,,rrrr>>>>@@@@7777ttttoooo        ",
"                                qqqq>>>>%%%%yyyy                ",
"                                qqqq>>>>%%%%yyyy                ",
"                                qqqq>>>>%%%%yyyy                ",
"                                qqqq>>>>%%%%yyyy                ",
"                                    %%%%9999                    ",
"                                    %%%%9999                    ",
"                                    %%%%9999                    ",
"                                    %%%%9999                    ",
"                                    %%%%9999                    ",
"                                    %%%%9999                    ",
"                                    %%%%9999                    ",
"                                    %%%%9999                    "
};
