/* XPM */
static char *daaaa92205b74792c1b077514feb3d65zhECmX4UbCGrhhPD[] = {
/* columns rows colors chars-per-pixel */
"64 64 52 1 ",
"  c None",
". c #A57356",
"X c #A77657",
"o c #A97758",
"O c #A97858",
"+ c #AA7959",
"@ c #AB7A5A",
"# c #AD7A5B",
"$ c #AC7D5B",
"% c #AE7F5C",
"& c #B07C5C",
"* c #B07D5C",
"= c #B17D5C",
"- c #B0805B",
"; c #B0815E",
": c #B3815E",
"> c #B1825E",
", c #B6825F",
"< c #B5875E",
"1 c #B78460",
"2 c #B88762",
"3 c #B58860",
"4 c #B58861",
"5 c #B78863",
"6 c #BB8862",
"7 c #BA8863",
"8 c #BD8E65",
"9 c #BD9267",
"0 c #BE9368",
"q c #C18F66",
"w c #C48F68",
"e c #C09065",
"r c #C19067",
"t c #C6926A",
"y c #C7926A",
"u c #C2976B",
"i c #C5956A",
"p c #C6966B",
"a c #C49A6A",
"s c #C4996C",
"d c #C59C6D",
"f c #C69C6D",
"g c #C69E6F",
"h c #CFAB7F",
"j c #D1A67B",
"k c #D3AF82",
"l c #D7AC80",
"z c #E4C99F",
"x c #E8CDA4",
"c c #E9D0A7",
"v c #EBD5AC",
"b c #EED7AF",
/* pixels */
"                                                                ",
"                                                                ",
"                                                                ",
"                                                                ",
"                        eeee<<<<<<<<eeee                        ",
"                        eeee<<<<<<<<eeee                        ",
"                        eeee<<<<<<<<eeee                        ",
"                        eeee<<<<<<<<eeee                        ",
"                    jjjjxxxxzzzzzzzzxxxxjjjj                    ",
"                    jjjjxxxxzzzzzzzzxxxxjjjj                    ",
"                    jjjjxxxxzzzzzzzzxxxxjjjj                    ",
"                    jjjjxxxxzzzzzzzzxxxxjjjj                    ",
"                    llllbbbbccccccccbbbbllll                    ",
"                    llllbbbbccccccccbbbbllll                    ",
"                    llllbbbbccccccccbbbbllll                    ",
"                    llllbbbbccccccccbbbbllll                    ",
"ffffffffffff0000----5555kkkkvvvvvvvvkkkk5555----0000ffffffffffff",
"ffffffffffff0000----5555kkkkvvvvvvvvkkkk5555----0000ffffffffffff",
"ffffffffffff0000----5555kkkkvvvvvvvvkkkk5555----0000ffffffffffff",
"ffffffffgfff0000----5555kkkkvvvvvvvvkkkk5555----0000gfffffffffff",
"yyyyyyyyyyyywwww,,,,%%%%ffffhhhhhhhhffff%%%%,,,,wwwwyyyyyyyyyyyy",
"yyyyyyyyyyyywwww,,,,%%%%ffffhhhhhhhhffff%%%%,,,,wwwwyyyyyyyyyyyy",
"yyyyyyyyyyyywwww,,,,%%%%ffffhhhhhhhhffff%%%%,,,,wwwwyyyyyyyyyyyy",
"yyyyyyyyyyyywwww,,,,%%%%ffffhhhhhhhhffff%%%%,,,,wwwwyyyyyyyyyyyy",
"                ....7777ffffaaaasssaffff7777....                ",
"                ....7777ffffaaaasssaffff7777....                ",
"                ....7777ffffaaaassssffff7777....                ",
"                ....7777ffffaaaassssffff7777....                ",
"                $$$$2222ssss55555555ssss2222$$$$                ",
"                $$$$2222ssss55555555ssss2222$$$$                ",
"                $$$$2222ssss55555555ssss2222$$$$                ",
"                $$$$2222ssss55555555ssss2222$$$$                ",
"iiiiiiiiiiiieeee;;;,;;;;uuuuXXXXXXXXuuuu;;;;;;;;eeerppiiiiiiiiii",
"iiiiiiiiiiiieeee;;,,;;;;uuuuXXXXXXXXuuuu;;;;;;,;eeeeppipiiiiiiii",
"iiiiiiiiiiiirrer;;;;;;;;uuuuXXXXXXXXuuuu;;;;,,,,eeeeppppiiiiiiii",
"iiiiiiiiiiiirrrr;;;;;;;;uuuuXXXXXXXXuuuu;;;;,,,,eeeeppppiiiiiiii",
"****************####;;;;9999++++++++9999;;;;####****************",
"****************####;;;;9999++++++++9999;;;;####****************",
"****************####;;;;9999++++++++9999;;;;####****************",
"****************####;;;;9999++++++++9999;;;;####****************",
"++++++++++++++++oooo11115555++++++++55551111oooo++++++++++++++++",
"++++++++++++++++oooo11115555++++++++55551111oooo++++++++++++++++",
"++++++++++++++++oooo11115<55++++++++<<551111oooo++++++++++++++++",
"++++++++++++++++oooo1111<<55++++++++<<551111oooo++++++++++++++++",
"                    77778888++++++++88887777                    ",
"                    77778888++++++++88887777                    ",
"                    77778888++++++++88887777                    ",
"                    77778888++++++++88887777                    ",
"                        qqqq++++++++qqqq                        ",
"                        qqqq++++++++qqqq                        ",
"                        qqqq++++++++qqqq                        ",
"                        qqqq++++++++qqqq                        ",
"                                                                ",
"                                                                ",
"                                                                ",
"                                                                ",
"                                                                ",
"                                                                ",
"                                                                ",
"                                                                ",
"                                                                ",
"                                                                ",
"                                                                ",
"                                                                "
};
