/* XPM */
static char *_6c77491a78e4410c8643644622dfbbckSB7oh9WbBtYfURt[] = {
/* columns rows colors chars-per-pixel */
"64 64 10 1 ",
"  c None",
". c #533A38",
"X c #6B4F4D",
"o c #F27575",
"O c #D58571",
"+ c #FBC57C",
"@ c #FFAD99",
"# c #85C3D7",
"$ c #DECFC3",
"% c #F4ECE6",
/* pixels */
"                                                                ",
"                                                                ",
"                                                                ",
"                                                                ",
"                                                                ",
"                                                                ",
"                                                                ",
"                                                                ",
"                                                                ",
"                                                                ",
"                                                                ",
"                                                                ",
"                                                                ",
"                                                                ",
"                                                                ",
"                                                                ",
"                                                                ",
"                                                                ",
"                                                                ",
"                                                                ",
"                                                                ",
"                                                                ",
"                                                                ",
"                                                                ",
"                           .... ....                            ",
"                           .%%%..%%%.                           ",
"                           ..O$...O$.                           ",
"                            .@%.%.@%..                          ",
"                           .%%%%%%%%%%.                         ",
"                           .%%%%%%%%%%.                         ",
"                           .%%+%%+%%%..                         ",
"                          ..%%%%%%%%%%..                        ",
"                           .%X%%%%X%%..                         ",
"                          ..%X%@@%X%%%..                        ",
"                            .@%%%%%@%.                          ",
"                           ............                         ",
"                          .%%.+##+##.%%.                        ",
"                          .%%.oooooo.%%.                        ",
"                           ...oo..oo...                         ",
"                            .%%%.%%%.                           ",
"                                                                ",
"                                                                ",
"                                                                ",
"                                                                ",
"                                                                ",
"                                                                ",
"                                                                ",
"                                                                ",
"                                                                ",
"                                                                ",
"                                                                ",
"                                                                ",
"                                                                ",
"                                                                ",
"                                                                ",
"                                                                ",
"                                                                ",
"                                                                ",
"                                                                ",
"                                                                ",
"                                                                ",
"                                                                ",
"                                                                ",
"                                                                "
};
