/* XPM */
static char *_2e87acc0e5341a6f244c27a6647b0fcr2pOYSHGddk5ai2K[] = {
/* columns rows colors chars-per-pixel */
"64 65 5 1 ",
"  c None",
". c #5C4E92",
"X c #766DAA",
"o c #DDD5DE",
"O c #F3F2C0",
/* pixels */
"                                                                ",
"                                                                ",
"                                                                ",
"                                                                ",
"                                                                ",
"                                                                ",
"                                                                ",
"                                                                ",
"                                                                ",
"                                                                ",
"                                                                ",
"                                                                ",
"                                                                ",
"                                                                ",
"                                                                ",
"                                                                ",
"                                                                ",
"                                                                ",
"                     ......        ......                       ",
"                     ......        ......                       ",
"                   ..OOOOOO..    ..OOOOOO..                     ",
"                   ..OOOOOO..    ..OOOOOO..                     ",
"                   ..OOOOOO........OOOOOO..                     ",
"                   ..OOOOOO........OOOOOO..                     ",
"                   ..OOOOOOooooooooOOOOOO..                     ",
"                   ..OOOOOOooooooooOOOOOO..                     ",
"                   ..OOOOOOOOOOOOOOOOOOOO..                     ",
"                   ..OOOOOOOOOOOOOOOOOOOO..                     ",
"                   ..OOOOOOOOOOOOOOOOOOOO..                     ",
"                 ....OOOOOOOOOOOOOOOOOOOO....                   ",
"                 ....OOOOOOOOOOOOOOOOOOOO....                   ",
"                   ..OOOOOOOOOOOOOOOOOOOO..                     ",
"                   ..OOOOOOOOOOOOOOOOOOOO..                     ",
"                 ....OOOOOOOOOOOOOOOOOOOO....                   ",
"                 ....OOOOOOOOOOOOOOOOOOOO....                   ",
"                   ..OOOOOOOOOOOOOOOOOOOO..                     ",
"                   ..OOOOOOOOOOOOOOOOOOOO..                     ",
"                     ....XXXXXXXXXXXX......                     ",
"                     ....XXXXXXXXXXXX......                     ",
"                     ....XXXX....XXXXOOoo..                     ",
"                     ....XXXX....XXXXOOoo..                     ",
"                   ..ooOOOO..OOOO..OOOO..                       ",
"                   ..ooOO..OOOOOOOOOO..                         ",
"                   ..ooOO..OOOOOOOOOO..                         ",
"                   ..............oooo..                         ",
"                   ..............oooo..                         ",
"                                 ....                           ",
"                                 ....                           ",
"                                                                ",
"                                                                ",
"                                                                ",
"                                                                ",
"                                                                ",
"                                                                ",
"                                                                ",
"                                                                ",
"                                                                ",
"                                                                ",
"                                                                ",
"                                                                ",
"                                                                ",
"                                                                ",
"                                                                ",
"                                                                ",
"                                                                "
};
