/* XPM */
static char *result[] = {
/* columns rows colors chars-per-pixel */
"69 64 7 1 ",
"  c #533A38",
". c #F27575",
"X c #D3965F",
"o c #FCC57B",
"O c #86C3D7",
"+ c #F5ECE6",
"@ c None",
/* pixels */
"@@@@@@@@@@@@@@@@@@@@@@@@@@@@@@@@@@@@@@@@@@@@@@@@@@@@@@@@@@@@@@@@@@@@@",
"@@@@@@@@@@@@@@@@@@@@@@@@@@@@@@@@@@@@@@@@@@@@@@@@@@@@@@@@@@@@@@@@@@@@@",
"@@@@@@@@@@@@@@@@@@@@@@@@@@@@@@@@@@@@@@@@@@@@@@@@@@@@@@@@@@@@@@@@@@@@@",
"@@@@@@@@@@@@@@@@@@@     @@@@@@@@@@@@@@@@@@     @@@@@@@@@@@@@@@@@@@@@@",
"@@@@@@@@@@@@@@@@@@@     @@@@@@@@@@@@@@@@@@     @@@@@@@@@@@@@@@@@@@@@@",
"@@@@@@@@@@@@@@@@@@@     @@@@@@@@@@@@@@@@@@     @@@@@@@@@@@@@@@@@@@@@@",
"@@@@@@@@@@@@@@@@   +++++   @@@@@@@@@@@@   +++++   @@@@@@@@@@@@@@@@@@@",
"@@@@@@@@@@@@@@@@   +++++   @@@@@@@@@@@@   +++++   @@@@@@@@@@@@@@@@@@@",
"@@@@@@@@@@@@@@@@   +++++   @@@@@@@@@@@@   +++++   @@@@@@@@@@@@@@@@@@@",
"@@@@@@@@@@@@@@@@   +++++   @@@@@@@@@@@@   +++++   @@@@@@@@@@@@@@@@@@@",
"@@@@@@@@@@@@@@@@   +++++   @@@@@@@@@@@@   +++++   @@@@@@@@@@@@@@@@@@@",
"@@@@@@@@@@@@@@@@   +++++   @@@@@@@@@@@@   +++++   @@@@@@@@@@@@@@@@@@@",
"@@@@@@@@@@@@@@@@   +++++   @@@@@@@@@@@@   +++++   @@@@@@@@@@@@@@@@@@@",
"@@@@@@@@@@@@@@@@   +++++   @@@@@@@@@@@@   +++++   @@@@@@@@@@@@@@@@@@@",
"@@@@@@@@@@@@@@@@   +++++                  +++++   @@@@@@@@@@@@@@@@@@@",
"@@@@@@@@@@@@@@@@   +++++                  +++++   @@@@@@@@@@@@@@@@@@@",
"@@@@@@@@@@@@@@@@   +++++                  +++++   @@@@@@@@@@@@@@@@@@@",
"@@@@@@@@@@@@@@@@   ++++++++++++++++++++++++++++   @@@@@@@@@@@@@@@@@@@",
"@@@@@@@@@@@@@@@@   ++++++++++++++++++++++++++++   @@@@@@@@@@@@@@@@@@@",
"@@@@@@@@@@@@@@@@   ++++++++++++++++++++++++++++   @@@@@@@@@@@@@@@@@@@",
"@@@@@@@@@@@@@   ++++++++++++++++++++++++++++++++++   @@@@@@@@@@@@@@@@",
"@@@@@@@@@@@@@   ++++++++++++++++++++++++++++++++++   @@@@@@@@@@@@@@@@",
"@@@@@@@@@@@@@   ++++++++++++++++++++++++++++++++++   @@@@@@@@@@@@@@@@",
"@@@@@@@@@@@@@   ++++++++++++++++++++++++++++++++++   @@@@@@@@@@@@@@@@",
"@@@@@@@@@@@@@   ++++++++++++++++++++++++++++++++++   @@@@@@@@@@@@@@@@",
"@@@@@@@@@@@@@   ++++++++++++++++++++++++++++++++++   @@@@@@@@@@@@@@@@",
"@@@@@@@@@@@@@   ++++++++++++++++++++++++++++++++++   @@@@@@@@@@@@@@@@",
"@@@@@@@@@@      ++++++++++++++++++++++++++++++++++      @@@@@@@@@@@@@",
"@@@@@@@@@@      ++++++++++++++++++++++++++++++++++      @@@@@@@@@@@@@",
"@@@@@@@@@@      ++++++++++++++++++++++++++++++++++      @@@@@@@@@@@@@",
"@@@@@@@@@@@@@   ++++++++++++++++++++++++++++++++++   @@@@@@@@@@@@@@@@",
"@@@@@@@@@@@@@   ++++++++++++++++++++++++++++++++++   @@@@@@@@@@@@@@@@",
"@@@@@@@@@@@@@   ++++++++++++++++++++++++++++++++++   @@@@@@@@@@@@@@@@",
"@@@@@@@@@@@@@   ++++++++++++++++++++++++++++++++++   @@@@@@@@@@@@@@@@",
"@@@@@@@@@@@@@   ++++++++++++++++++++++++++++++++++   @@@@@@@@@@@@@@@@",
"@@@@@@@@@@      ++++++++++++++++++++++++++++++++++      @@@@@@@@@@@@@",
"@@@@@@@@@@      ++++++++++++++++++++++++++++++++++      @@@@@@@@@@@@@",
"@@@@@@@@@@      ++++++++++++++++++++++++++++++++++      @@@@@@@@@@@@@",
"@@@@@@@@@@@@@   ++++++++++++++++++++++++++++++++++   @@@@@@@@@@@@@@@@",
"@@@@@@@@@@@@@   ++++++++++++++++++++++++++++++++++   @@@@@@@@@@@@@@@@",
"@@@@@@@@@@@@@   ++++++++++++++++++++++++++++++++++   @@@@@@@@@@@@@@@@",
"@@@@@@@@@@@@@@@@    ++++++XXXXXXXXXXXXXX++++++    @@@@@@@@@@@@@@@@@@@",
"@@@@@@@@@@@@@@@@    ++++++XXXXXXXXXXXXXX++++++    @@@@@@@@@@@@@@@@@@@",
"@@@@@@@@@@@@@@@@    ++++++XXXXXXXXXXXXXX++++++    @@@@@@@@@@@@@@@@@@@",
"@@@@@@@@@@@@@@@@@@@@      oooooooooooooo      @@@@@@@@@@@@@@@@@@@@@@@",
"@@@@@@@@@@@@@@@@@@@@      oooooooooooooo      @@@@@@@@@@@@@@@@@@@@@@@",
"@@@@@@@@@@@@@@@@@@@@      oooooooooooooo      @@@@@@@@@@@@@@@@@@@@@@@",
"@@@@@@@@@@@@@@@@    OOoooooooXXXXXXXXoooooooOO    @@@@@@@@@@@@@@@@@@@",
"@@@@@@@@@@@@@@@@    OOoooooooXXXXXXXXoooooooOO    @@@@@@@@@@@@@@@@@@@",
"@@@@@@@@@@@@@   ++++  XXXXooooooooooooooXXXX  ++++   @@@@@@@@@@@@@@@@",
"@@@@@@@@@@@@@   ++++  XXXXooooooooooooooXXXX  ++++   @@@@@@@@@@@@@@@@",
"@@@@@@@@@@@@@   ++++  XXXXooooooooooooooXXXX  ++++   @@@@@@@@@@@@@@@@",
"@@@@@@@@@@@@@   ++++  XXXXooooooooooooooXXXX  ++++   @@@@@@@@@@@@@@@@",
"@@@@@@@@@@@@@   ++++  ooooXXXXXXXXXXXXXXoooo  ++++   @@@@@@@@@@@@@@@@",
"@@@@@@@@@@@@@   ++++  ooooXXXXXXXXXXXXXXoooo  ++++   @@@@@@@@@@@@@@@@",
"@@@@@@@@@@@@@   ++++  ooooXXXXXXXXXXXXXXoooo  ++++   @@@@@@@@@@@@@@@@",
"@@@@@@@@@@@@@   ++++  ....oooooooooooooo....  ++++   @@@@@@@@@@@@@@@@",
"@@@@@@@@@@@@@@@@      ....oooooooooooooo....      @@@@@@@@@@@@@@@@@@@",
"@@@@@@@@@@@@@@@@      ....oooooooooooooo....      @@@@@@@@@@@@@@@@@@@",
"@@@@@@@@@@@@@@@@      ....oooooooooooooo....      @@@@@@@@@@@@@@@@@@@",
"@@@@@@@@@@@@@@@@    ++++++++++      ++++++++++    @@@@@@@@@@@@@@@@@@@",
"@@@@@@@@@@@@@@@@    ++++++++++      ++++++++++    @@@@@@@@@@@@@@@@@@@",
"@@@@@@@@@@@@@@@@    ++++++++++      ++++++++++    @@@@@@@@@@@@@@@@@@@",
"@@@@@@@@@@@@@@@@@@@@@@@@@@@@@@@@@@@@@@@@@@@@@@@@@@@@@@@@@@@@@@@@@@@@@"
};
