/* XPM */
static char *e0a0d42ce4de4118c9ca805857044a19rx3FVd0zWZxzmLQM[] = {
/* columns rows colors chars-per-pixel */
"64 65 8 1 ",
"  c None",
". c #EAE178",
"X c #5C4E92",
"o c #766DAA",
"O c #E8B5AC",
"+ c #DDD5DE",
"@ c #F3D8C5",
"# c #F3F2C0",
/* pixels */
"                                                                ",
"                                                                ",
"                                                                ",
"                                                                ",
"                                                                ",
"                                                                ",
"                                                                ",
"                                                                ",
"                                                                ",
"                                                                ",
"                                                                ",
"                                                                ",
"                                                                ",
"                                                                ",
"                                                                ",
"                                                                ",
"                             XXXXXX                             ",
"                             XXXXXX                             ",
"                           XX######XX                           ",
"                           XX######XX                           ",
"                         XXXX##OOOO##XX                         ",
"                         XXXX##OOOO##XX                         ",
"                       XX######OOOO##XX                         ",
"                       XX######OOOO##XX                         ",
"                       XX############XX                         ",
"                       XX############XX                         ",
"                       XX############XX                         ",
"                       XX############XX                         ",
"                     XXXX############XXXX                       ",
"                     XXXX############XXXX                       ",
"                     XX####XX########XX                         ",
"                     XX####XX########XX                         ",
"                     XX##############XXXX                       ",
"                     XX##############XXXX                       ",
"                     XX######@@@@####XX                         ",
"                     XX######@@@@####XX                         ",
"                       XXooooooooooXX                           ",
"                       XXooooooooooXX                           ",
"                       ..ooXX++####XX                           ",
"                       ..ooXX++####XX                           ",
"                       ..XXXX++####XX                           ",
"                       ..XXXX++####XX                           ",
"                       XXXX##XX######XX                         ",
"                       XXXX##XX######XX                         ",
"                       XXXXXXXXXX++++XX                         ",
"                       XXXXXXXXXX++++XX                         ",
"                         XXXX    XXXX                           ",
"                         XXXX    XXXX                           ",
"                                                                ",
"                                                                ",
"                                                                ",
"                                                                ",
"                                                                ",
"                                                                ",
"                                                                ",
"                                                                ",
"                                                                ",
"                                                                ",
"                                                                ",
"                                                                ",
"                                                                ",
"                                                                ",
"                                                                ",
"                                                                ",
"                                                                "
};
