/* XPM */
static char *result[] = {
/* columns rows colors chars-per-pixel */
"64 64 10 1 ",
"  c #533A38",
". c #573F3D",
"X c #F27575",
"o c #FBC57C",
"O c #FFAD99",
"+ c #FFAE9A",
"@ c #85C3D7",
"# c #F4ECE5",
"$ c #F4ECE6",
"% c None",
/* pixels */
"%%%%%%%%%%%%%%%%%%%%%%%%%%%%%%%%%%%%%%%%%%%%%%%%%%%%%%%%%%%%%%%%",
"%%%%%%%%%%%%%%%%%%%%%%%%%%%%%%%%%%%%%%%%%%%%%%%%%%%%%%%%%%%%%%%%",
"%%%%%%%%%%%%%%%%%%%%%%%%%%%%%%%%%%%%%%%%%%%%%%%%%%%%%%%%%%%%%%%%",
"%%%%%%%%%%%%%%%%%%%%%%%%%%%%%%%%%%%%%%%%%%%%%%%%%%%%%%%%%%%%%%%%",
"%%%%%%%%%%%%%%%%%%%%%%%%%%%%%%%%%%%%%%%%%%%%%%%%%%%%%%%%%%%%%%%%",
"%%%%%%%%%%%%%%%%%%%%%%%%%%%%%%%%%%%%%%%%%%%%%%%%%%%%%%%%%%%%%%%%",
"%%%%%%%%%%%%%%%%%%%%%%%%%%%%%%%%%%%%%%%%%%%%%%%%%%%%%%%%%%%%%%%%",
"%%%%%%%%%%%%%%%%%%%%%%%%%%%%%%%%%%%%%%%%%%%%%%%%%%%%%%%%%%%%%%%%",
"%%%%%%%%%%%%%%%%%%%%%%%%%%%%%%%%%%%%%%%%%%%%%%%%%%%%%%%%%%%%%%%%",
"%%%%%%%%%%%%%%%%%%%%%%%%%%%%%%%%%%%%%%%%%%%%%%%%%%%%%%%%%%%%%%%%",
"%%%%%%%%%%%%%%%%%%%%%%%%%%%%%%%%%%%%%%%%%%%%%%%%%%%%%%%%%%%%%%%%",
"%%%%%%%%%%%%%%%%%%%%%%%%%%%%%%%%%%%%%%%%%%%%%%%%%%%%%%%%%%%%%%%%",
"%%%%%%%%%%%%%%%%%      %%%%%%%%%%%       %%%%%%%%%%%%%%%%%%%%%%%",
"%%%%%%%%%%%%%%%%%      %%%%%%%%%%%       %%%%%%%%%%%%%%%%%%%%%%%",
"%%%%%%%%%%%%%%%%%      %%%%%%%%%%%       %%%%%%%%%%%%%%%%%%%%%%%",
"%%%%%%%%%%%%%    $$$$$$    %%%%   $$$$$$$   %%%%%%%%%%%%%%%%%%%%",
"%%%%%%%%%%%%%    $$$$$$    %%%%   $$$$$$$   %%%%%%%%%%%%%%%%%%%%",
"%%%%%%%%%%%%%    $$$$$$    %%%%   $$$$$$$   %%%%%%%%%%%%%%%%%%%%",
"%%%%%%%%%%%%%    $$$$$$    %%%%   $$$$$$$   %%%%%%%%%%%%%%%%%%%%",
"%%%%%%%%%%%%%    $$$$$$    %%%%   $$$$$$$   %%%%%%%%%%%%%%%%%%%%",
"%%%%%%%%%%%%%    ++$$$$    %%%%   +++$$$$   %%%%%%%%%%%%%%%%%%%%",
"%%%%%%%%%%%%%    OO$$$$    %%%%   OOO$$$$   %%%%%%%%%%%%%%%%%%%%",
"%%%%%%%%%%%%%    OO$$$$    %%%%   OOO$$$$   %%%%%%%%%%%%%%%%%%%%",
"%%%%%%%%%%%%%    OO$$$$           OOO$$$$   %%%%%%%%%%%%%%%%%%%%",
"%%%%%%%%%%%%%    OO$$$$           OOO$$$$   %%%%%%%%%%%%%%%%%%%%",
"%%%%%%%%%%%%%    OO$$$$           OOO$$$$   %%%%%%%%%%%%%%%%%%%%",
"%%%%%%%%%%%%%    OO$$$$    $$$$   OOO$$$$$$$    %%%%%%%%%%%%%%%%",
"%%%%%%%%%%%%%    OO$$$$    $$$$   OOO$$$$$$$    %%%%%%%%%%%%%%%%",
"%%%%%%%%%%   $$$$$$$$$$$$$$$$$$$$$$$$$$$$$$$$$$$   %%%%%%%%%%%%%",
"%%%%%%%%%%   $$$$$$$$$$$$$$$$$$$$$$$$$$$$$$$$$$$   %%%%%%%%%%%%%",
"%%%%%%%%%%   $$$$$$$$$$$$$$$$$$$$$$$$$$$$$$$$$$$   %%%%%%%%%%%%%",
"%%%%%%%%%%   $$$$$$$$$$$$$$$$$$$$$$$$$$$$$$$$$$$   %%%%%%%%%%%%%",
"%%%%%%%%%%   $$$$$$$$$$$$$$$$$$$$$$$$$$$$$$$$$$$   %%%%%%%%%%%%%",
"%%%%%%%%%%   $$$$$$$$$$$$$$$$$$$$$$$$$$$$$$$$$$$   %%%%%%%%%%%%%",
"%%%%%%%%%%   $$$$$$$ooo#$$$$$$$ooo$$$$$$$$$$       %%%%%%%%%%%%%",
"%%%%%%%%%%   $$$$$$$ooo#$$$$$$$ooo$$$$$$$$$$       %%%%%%%%%%%%%",
"%%%%%%%%%%   $$$$$$$ooo#$$$$$$$ooo$$$$$$$$$$       %%%%%%%%%%%%%",
"%%%%%%%      $$$$$$$$$$$$$$$$$$$$$$$$$$$$$$$$$$$      %%%%%%%%%%",
"%%%%%%%      $$$$$$$$$$$$$$$$$$$$$$$$$$$$$$$$$$$      %%%%%%%%%%",
"%%%%%%%      $$$$$$$$$$$$$$$$$$$$$$$$$$$$$$$$$$$      %%%%%%%%%%",
"%%%%%%%%%%   $$$$  .$$$$$$$$$$$$$$   $$$$$$$       %%%%%%%%%%%%%",
"%%%%%%%%%%   $$$$  .$$$$$$$$$$$$$$   $$$$$$$       %%%%%%%%%%%%%",
"%%%%%%%%%%   $$$$  .$$$$$$$$$$$$$$   $$$$$$$       %%%%%%%%%%%%%",
"%%%%%%%      $$$$  .$$$OOOOOOOO$$$   $$$$$$$$$$$      %%%%%%%%%%",
"%%%%%%%      $$$$  .$$$OOOOOOOO$$$   $$$$$$$$$$$      %%%%%%%%%%",
"%%%%%%%%%%%%%    OO+$$$$$$$$$$$$$$$$$OOOO$$$    %%%%%%%%%%%%%%%%",
"%%%%%%%%%%%%%    OO+$$$$$$$$$$$$$$$$$OOOO$$$    %%%%%%%%%%%%%%%%",
"%%%%%%%%%%%%%    OO+$$$$$$$$$$$$$$$$$OOOO$$$    %%%%%%%%%%%%%%%%",
"%%%%%%%%%%%%%%%%%                           %%%%%%%%%%%%%%%%%%%%",
"%%%%%%%%%%%%%%%%%                           %%%%%%%%%%%%%%%%%%%%",
"%%%%%%%%%%%%%%%%%                           %%%%%%%%%%%%%%%%%%%%",
"%%%%%%%%%%       @@oooo$$$$$$$$ooo@@@@@@@@@@       %%%%%%%%%%%%%",
"%%%%%%%%%%       @@oooo$$$$$$$$ooo@@@@@@@@@@       %%%%%%%%%%%%%",
"%%%%%%%   $$$$$$$  oooo@@@@@@@@ooo@@@@@@@   $$$$$$$   %%%%%%%%%%",
"%%%%%%%   $$$$$$$  oooo@@@@@@@@ooo@@@@@@@   $$$$$$$   %%%%%%%%%%",
"%%%%%%%   $$$$$$$  oooo@@@@@@@@ooo@@@@@@@   $$$$$$$   %%%%%%%%%%",
"%%%%%%%   $$$$$$$  XXXXXXXXXXXXXXXXXXXXXX   $$$$$$$   %%%%%%%%%%",
"%%%%%%%   $$$$$$$  XXXXXXXXXXXXXXXXXXXXXX   $$$$$$$   %%%%%%%%%%",
"%%%%%%%   $$$$$$$  XXXXXXXXXXXXXXXXXXXXXX   $$$$$$$   %%%%%%%%%%",
"%%%%%%%%%%         XXXXXXXX       XXXXXXX          %%%%%%%%%%%%%",
"%%%%%%%%%%         XXXXXXXX       XXXXXXX          %%%%%%%%%%%%%",
"%%%%%%%%%%%%%    $$$$$$$$$$    $$$$$$$$$$   %%%%%%%%%%%%%%%%%%%%",
"%%%%%%%%%%%%%    $$$$$$$$$$    $$$$$$$$$$   %%%%%%%%%%%%%%%%%%%%",
"%%%%%%%%%%%%%    $$$$$$$$$$    $$$$$$$$$$   %%%%%%%%%%%%%%%%%%%%"
};
