/* XPM */
static char *result[] = {
/* columns rows colors chars-per-pixel */
"64 64 16 1 ",
"  c #533A38",
". c #543C3A",
"X c #F27575",
"o c #D58571",
"O c #FBC57C",
"+ c #FFAD99",
"@ c #85C3D7",
"# c #DECFC3",
"$ c #EEE6E0",
"% c #F0E8E2",
"& c #F2EAE4",
"* c #F3EBE5",
"= c #F5EBE5",
"- c #F4ECE6",
"; c #F5ECE6",
": c None",
/* pixels */
"::::::::::::::::::::::::::::::::::::::::::::::::::::::::::::::::",
"::::::::::::::::::::::::::::::::::::::::::::::::::::::::::::::::",
"::::::::::::::::::::::::::::::::::::::::::::::::::::::::::::::::",
"::::::::::::::::::::::::::::::::::::::::::::::::::::::::::::::::",
"::::::::::::::::::::::::::::::::::::::::::::::::::::::::::::::::",
"::::::::::::::::::::::::::::::::::::::::::::::::::::::::::::::::",
"::::::::::::::::::::::::::::::::::::::::::::::::::::::::::::::::",
"::::::::::::::::::::::::::::::::::::::::::::::::::::::::::::::::",
"::::::::::::::::::::::::::::::::::::::::::::::::::::::::::::::::",
"::::::::::::::::::::::::::::::::::::::::::::::::::::::::::::::::",
":::::::::::::::::      ::::::::::::::::      :::::::::::::::::::",
":::::::::::::::::      ::::::::::::::::      :::::::::::::::::::",
":::::::::::::::::      ::::::::::::::::      :::::::::::::::::::",
"::::::::::::::   ------   ::::::::::   ------   ::::::::::::::::",
"::::::::::::::   ------   ::::::::::   ------   ::::::::::::::::",
"::::::::::::::   ------   ::::::::::   ------   ::::::::::::::::",
"::::::::::::::   ###ooo                ooo###   ::::::::::::::::",
"::::::::::::::   ###ooo                ooo###   ::::::::::::::::",
"::::::::::::::   ###ooo                ooo###   ::::::::::::::::",
"::::::::::::::   ---+++   *--------*   +++---   ::::::::::::::::",
"::::::::::::::   ---+++   *--------*   +++---   ::::::::::::::::",
"::::::::::::::   ---+++   *--------*   +++---   ::::::::::::::::",
":::::::::::   ----------------------------------   :::::::::::::",
":::::::::::   ----------------------------------   :::::::::::::",
":::::::::::.  ---------------------------***----  .:::::::::::::",
":::::::::::.  ---------------------------***----  .:::::::::::::",
":::::::::::.  ---------------------------***----  .:::::::::::::",
":::::::::::   ----------------------------------   :::::::::::::",
":::::::::::   ----------------------------------   :::::::::::::",
":::::::::::   ----------------------------------   :::::::::::::",
":::::::::::   ---------OOO=;------;=OOO---------   :::::::::::::",
":::::::::::   ---------OOO=--------=OOO---------   :::::::::::::",
":::::::::::   ---------OOO=;------;=OOO---------   :::::::::::::",
"::::::        ----------------------------------        ::::::::",
"::::::        ----------------------------------        ::::::::",
"::::::        ----------------------------------        ::::::::",
":::::::::::   ------   ----------------   ------   :::::::::::::",
":::::::::::   ------   ----------------   ------   :::::::::::::",
":::::::::::   ------   ----------------   ------   :::::::::::::",
":::::::::::   ------   ----------------   ------   :::::::::::::",
":::::::::::   ------   ----------------   ------   :::::::::::::",
"::::::        ------   -----++++++-----   ------        ::::::::",
"::::::        ------   -----++++++-----   ------        ::::::::",
"::::::        ------   -----++++++-----   ------        ::::::::",
"::::::::::::::   +++----------------------+++   ::::::::::::::::",
"::::::::::::::   +++----------------------+++   ::::::::::::::::",
"::::::::::::::   +++----------------------+++   ::::::::::::::::",
":::::::::                                            :::::::::::",
":::::::::                                            :::::::::::",
":::::::::                                            :::::::::::",
"::::::   --------   OOO@@@@@@@@@@@@@@@@OOO   --------   ::::::::",
"::::::   --------   OOO@@@@@@@@@@@@@@@@OOO   --------   ::::::::",
"::::::   --------   OOO@@@@@@@@@@@@@@@@OOO   --------   ::::::::",
"::::::   --------   XXXXXXXXXXXXXXXXXXXXXX   --------   ::::::::",
"::::::   --------   XXXXXXXXXXXXXXXXXXXXXX   --------   ::::::::",
"::::::   --------   XXXXXXXXXXXXXXXXXXXXXX   --------   ::::::::",
"::::::   *--*---*   XXXXXXXX      XXXXXXXX   *---*--*   ::::::::",
"::::::   &--%&--$   XXXXXXXX      XXXXXXXX   $--&%--&   ::::::::",
":::::::::           XXXXXXXX      XXXXXXXX           :::::::::::",
":::::::::           XXXXXXXX      XXXXXXXX           :::::::::::",
":::::::::           XXXXXXXX      XXXXXXXX           :::::::::::",
"::::::::::::::   -----------      -----------   ::::::::::::::::",
"::::::::::::::   -----------      -----------   ::::::::::::::::",
"::::::::::::::   -----------      -----------   ::::::::::::::::"
};
