/* XPM */
static char *_6f034d3f0224114d82f1c06cd9cc431wF9Cqm35jooni3Lx[] = {
/* columns rows colors chars-per-pixel */
"64 64 7 1 ",
"  c None",
". c #533A38",
"X c #F27575",
"o c #FBC57C",
"O c #FFAD99",
"+ c #85C3D7",
"@ c #F4ECE6",
/* pixels */
"                                                                ",
"                                                                ",
"                                                                ",
"                                                                ",
"                                                                ",
"                                                                ",
"                                                                ",
"                                                                ",
"                                                                ",
"                                                                ",
"                                                                ",
"                                                                ",
"                                                                ",
"                                                                ",
"                                                                ",
"                                                                ",
"                                                                ",
"                                                                ",
"                                                                ",
"                                                                ",
"                                                                ",
"                                                                ",
"                             ..    ..                           ",
"                            .@@.  .@@.                          ",
"                            .@O.  .O@.                          ",
"                            .@O....O@.                          ",
"                            .@O.@@.O@.                          ",
"                           .@@@@@@@@@@.                         ",
"                           .@@@@@@@@@@.                         ",
"                           .@@@o@@o@@@.                         ",
"                          ..@@@@@@@@@@..                        ",
"                           .@@.@@@@.@@.                         ",
"                          ..@@.@OO@.@@..                        ",
"                            .O@@@@@@O.                          ",
"                             ........                           ",
"                           ..+o+@@+o+..                         ",
"                          .@@.o++++o.@@.                        ",
"                          .@@.XXXXXX.@@.                        ",
"                           ...XX..XX...                         ",
"                            .@@@..@@@.                          ",
"                                                                ",
"                                                                ",
"                                                                ",
"                                                                ",
"                                                                ",
"                                                                ",
"                                                                ",
"                                                                ",
"                                                                ",
"                                                                ",
"                                                                ",
"                                                                ",
"                                                                ",
"                                                                ",
"                                                                ",
"                                                                ",
"                                                                ",
"                                                                ",
"                                                                ",
"                                                                ",
"                                                                ",
"                                                                ",
"                                                                ",
"                                                                "
};
