/* XPM */
static char *result[] = {
/* columns rows colors chars-per-pixel */
"64 64 12 1 ",
"  c #533A38",
". c #573F3D",
"X c #F27575",
"o c #D58571",
"O c #FBC57C",
"+ c #FFAD99",
"@ c #85C3D7",
"# c #DECFC3",
"$ c #F3EBE5",
"% c #F4ECE5",
"& c #F4ECE6",
"* c None",
/* pixels */
"****************************************************************",
"****************************************************************",
"****************************************************************",
"****************************************************************",
"****************************************************************",
"****************************************************************",
"****************************************************************",
"****************************************************************",
"****************************************************************",
"****************************************************************",
"****************************************************************",
"****************************************************************",
"****************************************************************",
"****************************************************************",
"****************************************************************",
"**********************               ***               *********",
"**********************               ***               *********",
"**********************               ***               *********",
"*******************   &&&&&&&&&&&       &&&&&&&&&&&    *********",
"*******************   &&&&&&&&&&&       &&&&&&&&&&&    *********",
"*******************   &&&&&&&&&&&       &&&&&&&&&&&    *********",
"*******************   &&&&&&&&&&&       &&&&&&&&&&&    *********",
"*******************   #####oo           ####ooo        *********",
"*******************   #####oo           ####ooo        *********",
"*******************   #####oo           ####ooo        *********",
"***************       &&&&&++    &&&&   &&&&+++    *************",
"***************       &&&&&++    &&&&   &&&&+++    *************",
"***************       &&&&&++    &&&&   &&&&+++    *************",
"************   &&&&&&&&&&&&&&&&&&&&&&&&&&&&&&&&&&&&    *********",
"************   &&&&&&&&&&&&&&&&&&&&&&&&&&&&&&&&&&&&    *********",
"************   &&&&&&&&&&&&&&&&&&&&&&&&&&&&&&&&&&&&    *********",
"************   &&&&&&&&&&&&&&&&&&&&&&&&&&&&&&&&&&&&    *********",
"************   &&&&&&&&&&&&&&&&&&&&&&&&&&&&&&&&&&&&    *********",
"************   &&&&&&&&&&&&&&&&&&&&&&&&&&&&&&&&&&&&    *********",
"************   &&&&&&&&&&&&&&&&&&&&&&&&&&&&&&&&&&&&    *********",
"************       &&&&&&&&&&%OOO&&&&&&&OOO%&&&&&&&    *********",
"************       &&&&&&&&&&%OOO&&&&&&&OOO%&&&&&&&    *********",
"************       &&&&&&&&&&%OOO&&&&&&&OOO%&&&&&&&    *********",
"*********      &&&&&&&&&&&&&&&&&&&&&&&&&&&&&&&&&&&&      *******",
"*********      &&&&&&&&&&&&&&&&&&&&&&&&&&&&&&&&&&&&      *******",
"*********      &&&&&&&&&&&&&&&&&&&&&&&&&&&&&&&&&&&&      *******",
"************       &&&&&&&&  .&&&&&&&&&&&&&&   &&&&    *********",
"************       &&&&&&&&  .&&&&&&&&&&&&&&   &&&&    *********",
"************       &&&&&&&&   &&&&&&&&&&&&&&   &&&&    *********",
"*********      &&&&&&&&&&&&  .&&&++++++++&&&   &&&&      *******",
"*********      &&&&&&&&&&&&  .&&&++++++++&&&   &&&&      *******",
"***************    &&&+++++&&&&&&&&&&&&&&&&&+++    *************",
"***************    &&&+++++&&&&&&&&&&&&&&&&&+++    *************",
"***************    &&&+++++&&&&&&&&&&&&&&&&&+++    *************",
"***************                                    *************",
"*******************                            *****************",
"*******************                            *****************",
"************          @@@@@@@OOOO@@@@@@@OOOO           *********",
"************          @@@@@@@OOOO@@@@@@@OOOO           *********",
"************          @@@@@@@OOOO@@@@@@@OOOO      ..     *******",
"*********   &&&&&&&   XXXXXXXXXXXXXXXXXXXXXX   &&&&&&&&  *******",
"*********   &&&&&&&   XXXXXXXXXXXXXXXXXXXXXX   &&&&&&&&  *******",
"*********   &&&&&&&   XXXXXXXXXXXXXXXXXXXXXX   &&&&&&&&  *******",
"*********   &&$$&&$   XXXXXXX        XXXXXXX   &&&&&&&&  *******",
"*********   &&&&&&&   XXXXXXX        XXXXXXX   $$&$$$$$  *******",
"*********   $$$&&&$   XXXXXXX        XXXXXXX   $$&$$$$$  *******",
"************          &&&&&&&&&&&    &&&&&&&&&&        *********",
"************          &&&&&&&&&&&    &&&&&&&&&&        *********",
"************          &&&&&&&&&&&    &&&&&&&&&&        *********"
};
