/* XPM */
static char *_874cf92ab59493d81116b11e865976fHykKBRr7699H7R9p[] = {
/* columns rows colors chars-per-pixel */
"64 65 5 1 ",
"  c None",
". c #5C4E92",
"X c #766DAA",
"o c #DDD5DE",
"O c #F3F2C0",
/* pixels */
"                                                                ",
"                                                                ",
"                                                                ",
"                                                                ",
"                                                                ",
"                                                                ",
"                                                                ",
"                                                                ",
"                                                                ",
"                                                                ",
"                                                                ",
"                                                                ",
"                                                                ",
"                                                                ",
"                                                                ",
"                                                                ",
"                                                                ",
"                                                                ",
"                     ......        ......                       ",
"                     ......        ......                       ",
"                   ..OOOOOO..    ..OOOOOO..                     ",
"                   ..OOOOOO..    ..OOOOOO..                     ",
"                   ..OOOOOO........OOOOOO..                     ",
"                   ..OOOOOO........OOOOOO..                     ",
"                   ..OOOOOOooooooooOOOOOO..                     ",
"                   ..OOOOOOooooooooOOOOOO..                     ",
"                   ..OOOOOOOOOOOOOOOOOOOO..                     ",
"                   ..OOOOOOOOOOOOOOOOOOOO..                     ",
"                   ..OOOOOOOOOOOOOOOOOOOO..                     ",
"                 ....OOOOOOOOOOOOOOOOOOOO....                   ",
"                 ....OOOOOOOOOOOOOOOOOOOO....                   ",
"                   ..OOOOOOOOOOOOOOOOOOOO..                     ",
"                   ..OOOOOOOOOOOOOOOOOOOO..                     ",
"                 ....OOOOOOOOOOOOOOOOOOOO....                   ",
"                 ....OOOOOOOOOOOOOOOOOOOO....                   ",
"                   ..OOOOOOOOOOOOOOOOOOOO..                     ",
"                   ..OOOOOOOOOOOOOOOOOOOO..                     ",
"                   ......XXXXXXXXXXXX....                       ",
"                   ......XXXXXXXXXXXX....                       ",
"                   ..ooOOXXXX....XXXX....                       ",
"                   ..ooOOXXXX....XXXX....                       ",
"                     ..OOOO..OOOO..OOOOoo..                     ",
"                       ..OOOOOOOOOO..OOoo..                     ",
"                       ..OOOOOOOOOO..OOoo..                     ",
"                       ..oooo..............                     ",
"                       ..oooo..............                     ",
"                         ....                                   ",
"                         ....                                   ",
"                                                                ",
"                                                                ",
"                                                                ",
"                                                                ",
"                                                                ",
"                                                                ",
"                                                                ",
"                                                                ",
"                                                                ",
"                                                                ",
"                                                                ",
"                                                                ",
"                                                                ",
"                                                                ",
"                                                                ",
"                                                                ",
"                                                                "
};
