/* XPM */
static char *result[] = {
/* columns rows colors chars-per-pixel */
"69 64 7 1 ",
"  c #533A38",
". c #D39660",
"X c #D49761",
"o c #FAC47C",
"O c #FBC57C",
"+ c #F4ECE6",
"@ c None",
/* pixels */
"@@@@@@@@@@@@@@@@@@@@@@@@@@@@@@@@@@@@@@@@@@@@@@@@@@@@@@@@@@@@@@@@@@@@@",
"@@@@@@@@@@@@@@@@@@@@@@@@@@@@@@@@@@@@@@@@@@@@@@@@@@@@@@@@@@@@@@@@@@@@@",
"@@@@@@@@@@@@@@@@@@@@@@@@@@@@@@@@@@@@@@@@@@@@@@@@@@@@@@@@@@@@@@@@@@@@@",
"@@@@@@@@@@@@@@@@@@@@@@@@@@@@@@@@@@@@@@@@@@@@@@@@@@@@@@@@@@@@@@@@@@@@@",
"@@@@@@@@@@@@@@@@@@@@@@@@@@@@@@@@@@@@@@@@@@@@@@@@@@@@@@@@@@@@@@@@@@@@@",
"@@@@@@@@@@@@@@@@@@       @@@@@@@@@@@@@@@@       @@@@@@@@@@@@@@@@@@@@@",
"@@@@@@@@@@@@@@@@@@       @@@@@@@@@@@@@@@@       @@@@@@@@@@@@@@@@@@@@@",
"@@@@@@@@@@@@@@@@@@       @@@@@@@@@@@@@@@@       @@@@@@@@@@@@@@@@@@@@@",
"@@@@@@@@@@@@@@@   +++++++   @@@@@@@@@@   +++++++   @@@@@@@@@@@@@@@@@@",
"@@@@@@@@@@@@@@@   +++++++   @@@@@@@@@@   +++++++   @@@@@@@@@@@@@@@@@@",
"@@@@@@@@@@@@@@@   +++++++   @@@@@@@@@@   +++++++   @@@@@@@@@@@@@@@@@@",
"@@@@@@@@@@@@@@@   +++++++   @@@@@@@@@@   +++++++   @@@@@@@@@@@@@@@@@@",
"@@@@@@@@@@@@@@@   +++++++   @@@@@@@@@@   +++++++   @@@@@@@@@@@@@@@@@@",
"@@@@@@@@@@@@@@@   +++++++   @@@@@@@@@@   +++++++   @@@@@@@@@@@@@@@@@@",
"@@@@@@@@@@@@@@@   +++++++                +++++++   @@@@@@@@@@@@@@@@@@",
"@@@@@@@@@@@@@@@   +++++++                +++++++   @@@@@@@@@@@@@@@@@@",
"@@@@@@@@@@@@@@@   +++++++                +++++++   @@@@@@@@@@@@@@@@@@",
"@@@@@@@@@@@@@@@   ++++++++++++++++++++++++++++++   @@@@@@@@@@@@@@@@@@",
"@@@@@@@@@@@@@@@   ++++++++++++++++++++++++++++++   @@@@@@@@@@@@@@@@@@",
"@@@@@@@@@@@@@@@   ++++++++++++++++++++++++++++++   @@@@@@@@@@@@@@@@@@",
"@@@@@@@@@@@@   ++++++++++++++++++++++++++++++++++++   @@@@@@@@@@@@@@@",
"@@@@@@@@@@@@   ++++++++++++++++++++++++++++++++++++   @@@@@@@@@@@@@@@",
"@@@@@@@@@@@@   ++++++++++++++++++++++++++++++++++++   @@@@@@@@@@@@@@@",
"@@@@@@@@@@@@   ++++++++++++++++++++++++++++++++++++   @@@@@@@@@@@@@@@",
"@@@@@@@@@@@@   ++++++++++++++++++++++++++++++++++++   @@@@@@@@@@@@@@@",
"@@@@@@@@@@@@   ++++++++++++++++++++++++++++++++++++   @@@@@@@@@@@@@@@",
"@@@@@@@@@@@@   ++++++++++++++++++++++++++++++++++++   @@@@@@@@@@@@@@@",
"@@@@@@@@@@@@   ++++++++++++++++++++++++++++++++++++   @@@@@@@@@@@@@@@",
"@@@@@@@@@@@@   ++++++++++++++++++++++++++++++++++++   @@@@@@@@@@@@@@@",
"@@@@@@@@@@@@   ++++++++++++++++++++++++++++++++++++   @@@@@@@@@@@@@@@",
"@@@@@@@@@@@@   ++++++++++++++++++++++++++++++++++++   @@@@@@@@@@@@@@@",
"@@@@@@@@@@@@   ++++++++++++++++++++++++++++++++++++   @@@@@@@@@@@@@@@",
"@@@@@@@@       ++++++++++++++++++++++++++++++++++++       @@@@@@@@@@@",
"@@@@@@@@       ++++++++++++++++++++++++++++++++++++       @@@@@@@@@@@",
"@@@@@@@@       ++++++++++++++++++++++++++++++++++++       @@@@@@@@@@@",
"@@@@@@@@@@@@   ++++++++++++++++++++++++++++++++++++   @@@@@@@@@@@@@@@",
"@@@@@@@@@@@@   ++++++++++++++++++++++++++++++++++++   @@@@@@@@@@@@@@@",
"@@@@@@@@@@@@   ++++++++++++++++++++++++++++++++++++   @@@@@@@@@@@@@@@",
"@@@@@@@@@@@@   ++++++++++++++++++++++++++++++++++++   @@@@@@@@@@@@@@@",
"@@@@@@@@@@@@   ++++++++++++++++++++++++++++++++++++   @@@@@@@@@@@@@@@",
"@@@@@@@@       ++++++++++++++++++++++++++++++++++++       @@@@@@@@@@@",
"@@@@@@@@       ++++++++++++++++++++++++++++++++++++       @@@@@@@@@@@",
"@@@@@@@@       ++++++++++++++++++++++++++++++++++++       @@@@@@@@@@@",
"@@@@@@@@@@@@@@@    ++++++................++++++    @@@@@@@@@@@@@@@@@@",
"@@@@@@@@@@@@@@@    ++++++................++++++    @@@@@@@@@@@@@@@@@@",
"@@@@@@@@@@@@@@@    ++++++................++++++    @@@@@@@@@@@@@@@@@@",
"@@@@@@@@@@@          ....OOOOOOOOOOOOOOOO....          @@@@@@@@@@@@@@",
"@@@@@@@@@@@          ....OOOOOOOOOOOOOOOO....          @@@@@@@@@@@@@@",
"@@@@@@@@@@@          ....OOOOOOOOOOOOOOOO....          @@@@@@@@@@@@@@",
"@@@@@@@@   ++++++    OOOOOOOOO......OOOOOOOOO    ++++++   @@@@@@@@@@@",
"@@@@@@@@   ++++++    OOOOOOOOO......OOOOOOOOO    ++++++   @@@@@@@@@@@",
"@@@@@@@@   ++++++    OOOOOOOOO......OOOOOOOOO    ++++++   @@@@@@@@@@@",
"@@@@@@@@   ++++++    OOOOOOOOO......OOOOOOOOO    ++++++   @@@@@@@@@@@",
"@@@@@@@@   ++++++    ....OOOOOOOOOOOOOOOO....    ++++++   @@@@@@@@@@@",
"@@@@@@@@   ++++++    ....OOOOOOOOOOOOOOOO....    ++++++   @@@@@@@@@@@",
"@@@@@@@@   ++++++    ....OOOOOOOOOOOOOOOO....    ++++++   @@@@@@@@@@@",
"@@@@@@@@   ++++++    X..XOOOooooooooooOOOX..X    ++++++   @@@@@@@@@@@",
"@@@@@@@@@@@          OOOO................OOOO          @@@@@@@@@@@@@@",
"@@@@@@@@@@@          OOOO................OOOO          @@@@@@@@@@@@@@",
"@@@@@@@@@@@          OOOO................OOOO          @@@@@@@@@@@@@@",
"@@@@@@@@@@@          OOOO................OOOO          @@@@@@@@@@@@@@",
"@@@@@@@@@@@@@@    +++++++OOOOOOOOOOOOOOOO+++++++    @@@@@@@@@@@@@@@@@",
"@@@@@@@@@@@@@@    +++++++OOOOOOOOOOOOOOOO+++++++    @@@@@@@@@@@@@@@@@",
"@@@@@@@@@@@@@@    +++++++OOOOOOOOOOOOOOOO+++++++    @@@@@@@@@@@@@@@@@"
};
