/* XPM */
static char *_b652c9488ec4308fee88c853d5d8366MezL13aSnOJSRurB[] = {
/* columns rows colors chars-per-pixel */
"64 65 8 1 ",
"  c None",
". c #EAE178",
"X c #5C4E92",
"o c #766DAA",
"O c #E8B5AC",
"+ c #DDD5DE",
"@ c #F3D8C5",
"# c #F3F2C0",
/* pixels */
"                                                                ",
"                                                                ",
"                                                                ",
"                                                                ",
"                                                                ",
"                                                                ",
"                                                                ",
"                                                                ",
"                                                                ",
"                                                                ",
"                                                                ",
"                                                                ",
"                                                                ",
"                                                                ",
"                                                                ",
"                                                                ",
"                                                                ",
"                     XXXXXX        XXXXXX                       ",
"                     XXXXXX        XXXXXX                       ",
"                   XX######XX    XX######XX                     ",
"                   XX######XX    XX######XX                     ",
"                   XXOOOO##XXXXXXXX##OOOOXX                     ",
"                   XXOOOO##++++++++##OOOOXX                     ",
"                   XXOOOO##++++++++##OOOOXX                     ",
"                   XX######++++++++######XX                     ",
"                   XX######++++++++######XX                     ",
"                   XX######++++++++######XX                     ",
"                   XX######++++++++######XX                     ",
"                 XXXX####################XXXX                   ",
"                 XXXX####################XXXX                   ",
"                   XX##XX############XX##XX                     ",
"                   XX##XX############XX##XX                     ",
"                 XXXX####################XXXX                   ",
"                 XXXX####################XXXX                   ",
"                   XX@@@@############@@@@XX                     ",
"                   XX@@@@############@@@@XX                     ",
"                     XXXXooooooooooooXXXXXX                     ",
"                     XXXXoooo..##oooo##++XX                     ",
"                     XXXXoooo..##oooo##++XX                     ",
"                   XX++######....######XX                       ",
"                   XX++######....######XX                       ",
"                   XX++##XX##########XX                         ",
"                   XX++##XX##########XX                         ",
"                   XXXXXXXXXXXXXX++++XX                         ",
"                   XXXXXXXXXXXXXX++++XX                         ",
"                                 XXXX                           ",
"                                 XXXX                           ",
"                                                                ",
"                                                                ",
"                                                                ",
"                                                                ",
"                                                                ",
"                                                                ",
"                                                                ",
"                                                                ",
"                                                                ",
"                                                                ",
"                                                                ",
"                                                                ",
"                                                                ",
"                                                                ",
"                                                                ",
"                                                                ",
"                                                                ",
"                                                                "
};
