/* XPM */
static char *result[] = {
/* columns rows colors chars-per-pixel */
"64 64 10 1 ",
"  c #533A38",
". c #573F3D",
"X c #F27575",
"o c #FBC57C",
"O c #FFAD99",
"+ c #FFAE9A",
"@ c #85C3D7",
"# c #F4ECE5",
"$ c #F4ECE6",
"% c None",
/* pixels */
"%%%%%%%%%%%%%%%%%%%%%%%%%%%%%%%%%%%%%%%%%%%%%%%%%%%%%%%%%%%%%%%%",
"%%%%%%%%%%%%%%%%%%%%%%%%%%%%%%%%%%%%%%%%%%%%%%%%%%%%%%%%%%%%%%%%",
"%%%%%%%%%%%%%%%%%%%%%%%%%%%%%%%%%%%%%%%%%%%%%%%%%%%%%%%%%%%%%%%%",
"%%%%%%%%%%%%%%%%%%%%%%%%%%%%%%%%%%%%%%%%%%%%%%%%%%%%%%%%%%%%%%%%",
"%%%%%%%%%%%%%%%%%%%%%%%%%%%%%%%%%%%%%%%%%%%%%%%%%%%%%%%%%%%%%%%%",
"%%%%%%%%%%%%%%%%%%%%%%%%%%%%%%%%%%%%%%%%%%%%%%%%%%%%%%%%%%%%%%%%",
"%%%%%%%%%%%%%%%%%%%%%%%%%%%%%%%%%%%%%%%%%%%%%%%%%%%%%%%%%%%%%%%%",
"%%%%%%%%%%%%%%%%%%%%%%%%%%%%%%%%%%%%%%%%%%%%%%%%%%%%%%%%%%%%%%%%",
"%%%%%%%%%%%%%%%%%%%%%%%%%%%%%%%%%%%%%%%%%%%%%%%%%%%%%%%%%%%%%%%%",
"%%%%%%%%%%%%%%%%%%%%%%%%%%%%%%%%%%%%%%%%%%%%%%%%%%%%%%%%%%%%%%%%",
"%%%%%%%%%%%%%%%%%%%%%%%%%%%%%%%%%%%%%%%%%%%%%%%%%%%%%%%%%%%%%%%%",
"%%%%%%%%%%%%%%%%%%%%%%%%%%%%%%%%%%%%%%%%%%%%%%%%%%%%%%%%%%%%%%%%",
"%%%%%%%%%%%%%%%%%%%%%%       %%%%%%%%%%%      %%%%%%%%%%%%%%%%%%",
"%%%%%%%%%%%%%%%%%%%%%%       %%%%%%%%%%%      %%%%%%%%%%%%%%%%%%",
"%%%%%%%%%%%%%%%%%%%%%%       %%%%%%%%%%%      %%%%%%%%%%%%%%%%%%",
"%%%%%%%%%%%%%%%%%%%   $$$$$$$   %%%%    $$$$$$    %%%%%%%%%%%%%%",
"%%%%%%%%%%%%%%%%%%%   $$$$$$$   %%%%    $$$$$$    %%%%%%%%%%%%%%",
"%%%%%%%%%%%%%%%%%%%   $$$$$$$   %%%%    $$$$$$    %%%%%%%%%%%%%%",
"%%%%%%%%%%%%%%%%%%%   $$$$$$$   %%%%    $$$$$$    %%%%%%%%%%%%%%",
"%%%%%%%%%%%%%%%%%%%   $$$$$$$   %%%%    $$$$$$    %%%%%%%%%%%%%%",
"%%%%%%%%%%%%%%%%%%%   $$$$+++   %%%%    $$$$++    %%%%%%%%%%%%%%",
"%%%%%%%%%%%%%%%%%%%   $$$$OOO   %%%%    $$$$OO    %%%%%%%%%%%%%%",
"%%%%%%%%%%%%%%%%%%%   $$$$OOO   %%%%    $$$$OO    %%%%%%%%%%%%%%",
"%%%%%%%%%%%%%%%%%%%   $$$$OOO           $$$$OO    %%%%%%%%%%%%%%",
"%%%%%%%%%%%%%%%%%%%   $$$$OOO           $$$$OO    %%%%%%%%%%%%%%",
"%%%%%%%%%%%%%%%%%%%   $$$$OOO           $$$$OO    %%%%%%%%%%%%%%",
"%%%%%%%%%%%%%%%    $$$$$$$OOO   $$$$    $$$$OO    %%%%%%%%%%%%%%",
"%%%%%%%%%%%%%%%    $$$$$$$OOO   $$$$    $$$$OO    %%%%%%%%%%%%%%",
"%%%%%%%%%%%%   $$$$$$$$$$$$$$$$$$$$$$$$$$$$$$$$$$$   %%%%%%%%%%%",
"%%%%%%%%%%%%   $$$$$$$$$$$$$$$$$$$$$$$$$$$$$$$$$$$   %%%%%%%%%%%",
"%%%%%%%%%%%%   $$$$$$$$$$$$$$$$$$$$$$$$$$$$$$$$$$$   %%%%%%%%%%%",
"%%%%%%%%%%%%   $$$$$$$$$$$$$$$$$$$$$$$$$$$$$$$$$$$   %%%%%%%%%%%",
"%%%%%%%%%%%%   $$$$$$$$$$$$$$$$$$$$$$$$$$$$$$$$$$$   %%%%%%%%%%%",
"%%%%%%%%%%%%   $$$$$$$$$$$$$$$$$$$$$$$$$$$$$$$$$$$   %%%%%%%%%%%",
"%%%%%%%%%%%%       $$$$$$$$$$ooo$$$$$$$#ooo$$$$$$$   %%%%%%%%%%%",
"%%%%%%%%%%%%       $$$$$$$$$$ooo$$$$$$$#ooo$$$$$$$   %%%%%%%%%%%",
"%%%%%%%%%%%%       $$$$$$$$$$ooo$$$$$$$#ooo$$$$$$$   %%%%%%%%%%%",
"%%%%%%%%%      $$$$$$$$$$$$$$$$$$$$$$$$$$$$$$$$$$$      %%%%%%%%",
"%%%%%%%%%      $$$$$$$$$$$$$$$$$$$$$$$$$$$$$$$$$$$      %%%%%%%%",
"%%%%%%%%%      $$$$$$$$$$$$$$$$$$$$$$$$$$$$$$$$$$$      %%%%%%%%",
"%%%%%%%%%%%%       $$$$$$$   $$$$$$$$$$$$$$.  $$$$   %%%%%%%%%%%",
"%%%%%%%%%%%%       $$$$$$$   $$$$$$$$$$$$$$.  $$$$   %%%%%%%%%%%",
"%%%%%%%%%%%%       $$$$$$$   $$$$$$$$$$$$$$.  $$$$   %%%%%%%%%%%",
"%%%%%%%%%      $$$$$$$$$$$   $$$OOOOOOOO$$$.  $$$$      %%%%%%%%",
"%%%%%%%%%      $$$$$$$$$$$   $$$OOOOOOOO$$$.  $$$$      %%%%%%%%",
"%%%%%%%%%%%%%%%    $$$OOOO$$$$$$$$$$$$$$$$$+OO    %%%%%%%%%%%%%%",
"%%%%%%%%%%%%%%%    $$$OOOO$$$$$$$$$$$$$$$$$+OO    %%%%%%%%%%%%%%",
"%%%%%%%%%%%%%%%    $$$OOOO$$$$$$$$$$$$$$$$$+OO    %%%%%%%%%%%%%%",
"%%%%%%%%%%%%%%%%%%%                           %%%%%%%%%%%%%%%%%%",
"%%%%%%%%%%%%%%%%%%%                           %%%%%%%%%%%%%%%%%%",
"%%%%%%%%%%%%%%%%%%%                           %%%%%%%%%%%%%%%%%%",
"%%%%%%%%%%%%       @@@@@@@@@@ooo$$$$$$$$oooo@@       %%%%%%%%%%%",
"%%%%%%%%%%%%       @@@@@@@@@@ooo$$$$$$$$oooo@@       %%%%%%%%%%%",
"%%%%%%%%%   $$$$$$$   @@@@@@@ooo@@@@@@@@oooo  $$$$$$$   %%%%%%%%",
"%%%%%%%%%   $$$$$$$   @@@@@@@ooo@@@@@@@@oooo  $$$$$$$   %%%%%%%%",
"%%%%%%%%%   $$$$$$$   @@@@@@@ooo@@@@@@@@oooo  $$$$$$$   %%%%%%%%",
"%%%%%%%%%   $$$$$$$   XXXXXXXXXXXXXXXXXXXXXX  $$$$$$$   %%%%%%%%",
"%%%%%%%%%   $$$$$$$   XXXXXXXXXXXXXXXXXXXXXX  $$$$$$$   %%%%%%%%",
"%%%%%%%%%   $$$$$$$   XXXXXXXXXXXXXXXXXXXXXX  $$$$$$$   %%%%%%%%",
"%%%%%%%%%%%%          XXXXXXX       XXXXXXXX         %%%%%%%%%%%",
"%%%%%%%%%%%%          XXXXXXX       XXXXXXXX         %%%%%%%%%%%",
"%%%%%%%%%%%%%%%%%%%   $$$$$$$$$$    $$$$$$$$$$    %%%%%%%%%%%%%%",
"%%%%%%%%%%%%%%%%%%%   $$$$$$$$$$    $$$$$$$$$$    %%%%%%%%%%%%%%",
"%%%%%%%%%%%%%%%%%%%   $$$$$$$$$$    $$$$$$$$$$    %%%%%%%%%%%%%%"
};
