/* XPM */
static char *_bd4ce4f578248188489acfc19b7282bH2h3pHG41tPhYyzT[] = {
/* columns rows colors chars-per-pixel */
"64 65 8 1 ",
"  c None",
". c #EAE178",
"X c #5C4E92",
"o c #766DAA",
"O c #E8B5AC",
"+ c #DDD5DE",
"@ c #F3D8C5",
"# c #F3F2C0",
/* pixels */
"                                                                ",
"                                                                ",
"                                                                ",
"                                                                ",
"                                                                ",
"                                                                ",
"                                                                ",
"                                                                ",
"                                                                ",
"                                                                ",
"                                                                ",
"                                                                ",
"                                                                ",
"                                                                ",
"                                                                ",
"                                                                ",
"                             XXXXXX                             ",
"                             XXXXXX                             ",
"                           XX######XX                           ",
"                           XX######XX                           ",
"                         XXXX##OOOO##XX                         ",
"                         XXXX##OOOO##XX                         ",
"                       XX######OOOO##XX                         ",
"                       XX######OOOO##XX                         ",
"                       XX############XX                         ",
"                       XX############XX                         ",
"                       XX############XX                         ",
"                       XX############XX                         ",
"                     XXXX############XXXX                       ",
"                     XXXX############XXXX                       ",
"                     XX####XX########XX                         ",
"                     XX####XX########XX                         ",
"                     XX##############XXXX                       ",
"                     XX##############XXXX                       ",
"                     XX######@@@@####XX                         ",
"                     XX######@@@@####XX                         ",
"                       XXooooooooooXX                           ",
"                       XXooooooooooXX                           ",
"                       ..oooooooo##++XX                         ",
"                       ..oooooooo##++XX                         ",
"                       ..XX########++XX                         ",
"                       ..XX########++XX                         ",
"                       XX########XXXX                           ",
"                       XX########XXXX                           ",
"                       XX++++XXXXXXXX                           ",
"                       XX++++XXXXXXXX                           ",
"                         XXXX  XXXX                             ",
"                         XXXX  XXXX                             ",
"                                                                ",
"                                                                ",
"                                                                ",
"                                                                ",
"                                                                ",
"                                                                ",
"                                                                ",
"                                                                ",
"                                                                ",
"                                                                ",
"                                                                ",
"                                                                ",
"                                                                ",
"                                                                ",
"                                                                ",
"                                                                ",
"                                                                "
};
