/* XPM */
static char *result[] = {
/* columns rows colors chars-per-pixel */
"64 64 218 2 ",
"   c black",
".  c #000108",
"X  c #1F1602",
"o  c #031418",
"O  c #12120F",
"+  c #201703",
"@  c #39231E",
"#  c #061F22",
"$  c #0C1F22",
"%  c #000F24",
"&  c #1B2122",
"*  c #152022",
"=  c #242323",
"-  c #2C2422",
";  c #272829",
":  c #352622",
">  c #312E2C",
",  c #3C2521",
"<  c #252E37",
"1  c #3B3A39",
"2  c #343132",
"3  c #4A251C",
"4  c #582516",
"5  c #5B311F",
"6  c #693217",
"7  c #783516",
"8  c #702E13",
"9  c #462821",
"0  c #5C3120",
"q  c #59352B",
"w  c #403F3D",
"e  c #473C36",
"r  c #542E20",
"t  c #41403E",
"y  c #5F4237",
"u  c #744231",
"i  c #20394D",
"p  c #2F495F",
"a  c #2D455A",
"s  c #334A5F",
"d  c #365A78",
"f  c #2E4F69",
"g  c #4C4C4B",
"h  c #56504D",
"j  c #695650",
"k  c #485664",
"l  c #6C6A65",
"z  c #696865",
"x  c #716E6A",
"c  c #716C65",
"v  c #75726D",
"b  c #7B7873",
"n  c #787672",
"m  c #6D615B",
"M  c #813C13",
"N  c #863C18",
"B  c #813B0E",
"V  c #984614",
"C  c #A04B15",
"Z  c #884A3A",
"A  c #985236",
"S  c #B65F36",
"D  c #AB5A37",
"F  c #B76036",
"G  c #B8623A",
"H  c #B9755F",
"J  c #A66F59",
"K  c #9B6C64",
"L  c #8C756B",
"P  c #A97567",
"I  c #875F52",
"U  c #C0795F",
"Y  c #C17A61",
"T  c #85817A",
"R  c #9B897F",
"E  c #C88368",
"W  c #3B6485",
"Q  c #3B688A",
"!  c #45769E",
"~  c #486A8B",
"^  c #6E7B8D",
"/  c #4E4ABB",
"(  c #465ABE",
")  c #555CBE",
"_  c #5B5CBE",
"`  c #5754BD",
"'  c #514DBC",
"]  c #467CA5",
"[  c #4977A7",
"{  c #5A61BF",
"}  c #5661BF",
"|  c #507BB1",
" . c #6361BF",
".. c #6A6FBF",
"X. c #6C71BF",
"o. c #5966C0",
"O. c #556CC1",
"+. c #586BC1",
"@. c #5364C0",
"#. c #5574C2",
"$. c #5974C4",
"%. c #557CC5",
"&. c #5C7CC5",
"*. c #4A71C3",
"=. c #6C6BC0",
"-. c #6569C1",
";. c #716DC1",
":. c #6772C2",
">. c #7977C3",
",. c #817DC5",
"<. c #4D88B8",
"1. c #508CBD",
"2. c #5587BD",
"3. c #708CB0",
"4. c #75828F",
"5. c #5684C7",
"6. c #558DC6",
"7. c #5885C9",
"8. c #558DC9",
"9. c #5A87C8",
"0. c #5494CA",
"q. c #5799CD",
"w. c #4E90C9",
"e. c #6886C6",
"r. c #7988C5",
"t. c #6696CB",
"y. c #7A96C9",
"u. c #7CA2CE",
"i. c #7FA6D0",
"p. c #918C88",
"a. c #96938C",
"s. c #99948D",
"d. c #9E9B95",
"f. c #8C9194",
"g. c #A68B86",
"h. c #B99286",
"j. c #A19D97",
"k. c #B59C94",
"l. c #A4938D",
"z. c #A5A19A",
"x. c #A8A49D",
"c. c #B9A59C",
"v. c #979CA9",
"b. c #AFAAA8",
"n. c #ADA9A7",
"m. c #BDADA9",
"M. c #B2ADA8",
"N. c #B4B0A9",
"B. c #BBB7B9",
"V. c #ADB3B8",
"C. c #91A1B1",
"Z. c #C19588",
"A. c #C39789",
"S. c #C9A596",
"D. c #D7A998",
"F. c #C2BCB4",
"G. c #C5BEB9",
"H. c #CCB8B1",
"J. c #C7C3BB",
"K. c #D9C4B9",
"L. c #E3C9BD",
"P. c #8483C6",
"I. c #888AC8",
"U. c #8896CA",
"Y. c #9592C9",
"T. c #9999CB",
"R. c #938FC9",
"E. c #A19DCC",
"W. c #99AAC8",
"Q. c #91A7D1",
"!. c #A5A2CD",
"~. c #A7A5CE",
"^. c #A8B9CC",
"/. c #B9BFC0",
"(. c #B8B7CA",
"). c #A8A7D0",
"_. c #B2ADD2",
"`. c #B4B2D3",
"'. c #B9B4D3",
"]. c #BEBAD6",
"[. c #B3BBD6",
"{. c #A9B6D3",
"}. c #C3BED7",
"|. c #C4BFC8",
" X c #BCCCCE",
".X c #B7C6C9",
"XX c #B6CCD0",
"oX c #B9CCD1",
"OX c #B2C2DA",
"+X c #BDD1D3",
"@X c #AEC0CD",
"#X c #CFCAC2",
"$X c #C6C1C8",
"%X c #C9C5C4",
"&X c #D0CBC2",
"*X c #D4D2CD",
"=X c #DAD3CA",
"-X c #C6C2D9",
";X c #CAC5D9",
":X c #CDC9DA",
">X c #C7C6D6",
",X c #C2D1D4",
"<X c #CBD6D7",
"1X c #DAD5D5",
"2X c #D6D3DD",
"3X c #DAD5DF",
"4X c #D1DBDA",
"5X c #D8D9D7",
"6X c #D1CDDD",
"7X c #E3DCD5",
"8X c #DAE2DF",
"9X c #E6E2DA",
"0X c #E9E3DB",
"qX c #D7D8E1",
"wX c #E3E3E2",
"eX c #E9E6E5",
"rX c #ECEAE4",
"tX c None",
/* pixels */
"tXtXtXtXtXtXtXtXtXtXtXtXtXtXtXtXtXtXtXtXtXtXtXtXtXtXtXtXtXtXtXtXtXtXtXtXtXtXtXtXtXtXtXtXtXtXtXtXtXtXtXtXtXtXtXtXtXtXtXtXtXtXtXtX",
"tXtXtXtXtXtXtXtXtXtXtXtXtXtXtXtXtXtXtXtXtXtXtXtXtXtXtXtXtXtXtXtXtXtXtXtXtXtXtXtXtXtXtXtXtXtXtXtXtXtXtXtXtXtXtXtXtXtXtXtXtXtXtXtX",
"tXtXtXtXtXtXtXtXtXtXtXtXtXtXtXtXtXtXtXtXtXtXtXtXtXtXtXtXtXtXtXtXtXtXtXtXtXtXtXtXtXtXtXtXtXtXtXtXtXtXtXtXtXtXtXtXtXtXtXtXtXtXtXtX",
"tXtXtXtXtXtXtXtXtXtXtXtXtXtXtXtXtXtXtXtXtXtXtXtXtXtXtXtXtXtXtXtXtXtXtXtXtXtXtXtXtXtXtXtXtXtXtXtXtXtXtXtXtXtXtXtXtXtXtXtXtXtXtXtX",
"tXtXtXtXtXtXtXtXtXtXtXtXtXtXtXtXtXtXtXtXtXtXtXtXtXtXtXtXtXtXtXtXtXtXtXtXtXtXtXtXtXtXtXtXtXtXtXtXtXtXtXtXtXtXtXtXtXtXtXtXtXtXtXtX",
"tXtXtXtXtXtXtXtXtXtXtXtXtXtXtXtXtXtXtXtXtXtXtXtXtXtXtXtXtXtXtXtXtXtXtXtXtXtXtXtXtXtXtXtXtXtXtXtXtXtXtXtXtXtXtXtXtXtXtXtXtXtXtXtX",
"tXtXtXtXtXtXtXtXtXtXtXtXtXtXtXtXtXtXtXtXtXtXtXtXtXtXtXtXtXtXtXtXtXtXtXtXtXtXtXtXtXtXtXtXtXtXtXtXtXtXtXtXtXtXtXtXtXtXtXtXtXtXtXtX",
"tXtXtXtXtXtXtXtXtXtXtXtXtXtXtXtXtXtXtXtXtXtXtXtXtXtXtXtXtXtXtXtXtXtXtXtXtXtXtXtXtXtXtXtXtXtXtXtXtXtXtXtXtXtXtXtXtXtXtXtXtXtXtXtX",
"tXtXtXtXtXtXtXtXtXtXtXtXtXtXtXtXtXtXtXtXtXtXtXtXtXtXtXtXtXtXtXtXtXtXtXtXtXtXtXtXtXtXtXtXtXtXtXtXtXtXtXtXtXtXtXtXtXtXtXtXtXtXtXtX",
"tXtXtXtXtXtXtXtXtXtXtXtXtXtXtXtXtXtXtXtXtXtXtXtXtXtXtXtXtXtXtXtXtXtXtXtXtXtXtXtXtXtXtXtXtXtXtXtXtXtXtXtXtXtXtXtXtXtXtXtXtXtXtXtX",
"tXtXtXtXtXtXtXtXtXtXtXtXtXtXtXtXtXtXtXtXtXtXtXtXtXtXtXtXtXtXtXtXtXtXtXtXtXtXtXtXtXtXtXtXtXtXtXtXtXtXtXtXtXtXtXtXtXtXtXtXtXtXtXtX",
"tXtXtXtXtXtXtXtXtXtXtXtXtXtXtXtXtXtXtXtXtXtXtXtXtXtXtXtXtXtXtXtXtXtXtXtXtXtXtXtXtXtXtXtXtXtXtXtXtXtXtXtXtXtXtXtXtXtXtXtXtXtXtXtX",
"tXtXtXtXtXtXtXtXtXtXtXtXtXtXtXtXtX= & = & * * * * * * * $ $ $ $ # # $ # # # $ # # $ # * & & = tXtXtXtXtXtXtXtXtXtXtXtXtXtXtXtXtX",
"tXtXtXtXtXtXtXtXtXtXtXtXtXtXtXtX= = = = - - - - - - : : : : : : : : : , : : : : : : @ - - = = & tXtXtXtXtXtXtXtXtXtXtXtXtXtXtXtX",
"tXtXtXtXtXtXtXtXtXtXtXtXtXtXtXtX= = - - @ 9 3 3 3 9 9 r r r 0 0 0 0 0 0 0 0 0 5 5 5 5 3 , @ = = tXtXtXtXtXtXtXtXtXtXtXtXtXtXtXtX",
"tXtXtXtXtXtXtXtXtXtXtXtXtXtXtXtX& = - @ 3 4 4 4 4 4 4 6 7 7 M N M M M M M M M B B 7 7 6 5 @ - * tXtXtXtXtXtXtXtXtXtXtXtXtXtXtXtX",
"tXtXtXtXtXtXtXtXtXtXtXtXtXtXtXtX& - @ 3 4 8 8 8 8 7 7 N N C C C C C C C C C C C C V V V 6 9 - & tXtXtXtXtXtXtXtXtXtXtXtXtXtXtXtX",
"tXtXtXtXtXtXtXtXtXtXtXtXtXtXtXtX* - 9 q u j Z Z Z Z Z A D S S S G F F F F G G G F F A A u q : $ tXtXtXtXtXtXtXtXtXtXtXtXtXtXtXtX",
"tXtXtXtXtXtXtXtXtXtXtXtXtXtXtXtX* : e j I K K K K K K P P H U U U U E H E H E E E E E J I y : o tXtXtXtXtXtXtXtXtXtXtXtXtXtXtXtX",
"tXtXtXtXtXtXtXtXtXtXtXtXtXtXtXtXo > j L g.k.c.S.k.g.g.g.h.h.Z.Z.A.A.A.h.k.E E S.D.D.D.R K j 2 o tXtXtXtXtXtXtXtXtXtXtXtXtXtXtXtX",
"tXtXtXtXtXtXtXtXtXtXtXtXtXtXtXtX. 1 j p.n.H.|.H.F.N.b.n.b.m.m.m.m.m.m.m.N.m.H.J.K.L.K.S.R m 1 . tXtXtXtXtXtXtXtXtXtXtXtXtXtXtXtX",
"tXtXtXtXtXtXtXtXtXtXtXtXtXtXtXtX  w l s.H.&X7X7X&X.X.XB.B..XB..X/././././.J.J.*X7X7XL.J.l.l w   tXtXtXtXtXtXtXtXtXtXtXtXtXtXtXtX",
"tXtXtXtXtXtXtXtXtXtXtXtXtXtXtXtX  w x j.F.*X7X7X5X,X,XoXoX X.X.X.XXX X X X,X<X4X8X9X=XF.d.v t   tXtXtXtXtXtXtXtXtXtXtXtXtXtXtXtX",
"tXtXtXtXtXtXtXtXtXtXtXtXtXtXtXtXtXt x a.M.%X#X1X5X4X4X<X,X+XXXXXXXXX+X,X<X4X4X*X*XJ.J.N.s.x t tXtXtXtXtXtXtXtXtXtXtXtXtXtXtXtXtX",
"tXtXtXtXtXtXtXtXtXtXtXtXtXtXtXtXtXtXtXT s.z.N.J.*X8X8X8X4X+XoXXXXXXX,X4X4X8X8X*XJ.N.x.a.T tXtXtXtXtXtXtXtXtXtXtXtXtXtXtXtXtXtXtX",
"tXtXtXtXtXtXtXtXtXtXtXtXtXtXtXtXtXtXtXtXl b a.N.*X8X0X8X4XoXXXXXXXXX,X4XwXeX9X#XN.a.n z tXtXtXtXtXtXtXtXtXtXtXtXtXtXtXtXtXtXtXtX",
"tXtXtXtXtXtXtXtXtXtXtXtXtXtXtXtXtXtXtXtX; g b x.J.0XrXeX4XoX@X^.@X@XXX4XeXrX0X#Xx.b g ; tXtXtXtXtXtXtXtXtXtXtXtXtXtXtXtXtXtXtXtX",
"tXtXtXtXtXtXtXtXtXtXtXtXtXtXtXtXtXtXtXtX  ; l z.&X0XrXwX<X(.W.W.W.W.^.<XwXrX0X#Xz.c ;   tXtXtXtXtXtXtXtXtXtXtXtXtXtXtXtXtXtXtXtX",
"tXtXtXtXtXtXtXtXtXtXtXtXtXtXtXtXtXtXtXtX. ; l z.&X0XeX3X-X!.U.r.3.T.~.-XqXrX0XJ.z.l ;   tXtXtXtXtXtXtXtXtXtXtXtXtXtXtXtXtXtXtXtX",
"tXtXtXtXtXtXtXtXtXtXtXtXtXtXtXtXtXtXtXtX; h b x.J.0XwXqX].T.>.=.;.X.Y.'.2XeX0X&Xx.b g ; tXtXtXtXtXtXtXtXtXtXtXtXtXtXtXtXtXtXtXtX",
"tXtXtXtXtXtXtXtXtXtXtXtXtXtXtXtXtXtXtXtXz n p.b.#X5X7X6X'.T.I.>.=.=.P.).;X3X5X#XM.p.b l tXtXtXtXtXtXtXtXtXtXtXtXtXtXtXtXtXtXtXtX",
"tXtXtXtXtXtXtXtXtXtXtXtXtXtXtXtXtXtXtXL a.z.b.B.$X>X;X;X].`.).R.,.;.>.R._.}.>X|.B.N.z.s.T tXtXtXtXtXtXtXtXtXtXtXtXtXtXtXtXtXtXtX",
"tXtXtXtXtXtXtXtXtXtXtXtXtXtXtXtXtX> l s.M.G.%X$X}._._.}.;X;X-X_.Y.>.;.,.R.!._.|.|.#XG.N.s.c e tXtXtXtXtXtXtXtXtXtXtXtXtXtXtXtXtX",
"tXtXtXtXtXtXtXtXtXtXtXtXtXtXtXtX> h b j.J.=X1X>X_.E.!.'.;X3X3X}.!.,.=.-.=.,.E._.>X1X*XF.j.v a % tXtXtXtXtXtXtXtXtXtXtXtXtXtXtXtX",
"tXtXtXtXtXtXtXtXtXtXtXtXtXtXtXtXz b p.b.%X*X3X:X'.E.!.'.:X3X3X}.!.,. .' ` =.,.).-X1X*X|.v.^ k i tXtXtXtXtXtXtXtXtXtXtXtXtXtXtXtX",
"tXtXtXtXtXtXtXtXtXtXtXtXtXtXtXL a.j.n.B.$X>X;X;X}.}._.}.;X;X}._.Y.>._ / / ` >.Y._.-X}.V.v.^ ~ d f tXtXtXtXtXtXtXtXtXtXtXtXtXtXtX",
"tXtXtXtXtXtXtXtXtXtXtXtXtXw x s.M.F.%X|.].`.'.}.}.:X:X}.}._.!.Y.,.;._ / / ` =.,.Y.!.~.T.3.3.! Q d a < tXtXtXtXtXtXtXtXtXtXtXtXtX",
"tXtXtXtXtXtXtXtXtXtXtXtX  t v j.J.*X1X>X`.E.E.`.}.3X3X6X'.E.I.>.;. .` ` ` `  .;.>.P.r.r.e.2.<.! W a < X tXtXtXtXtXtXtXtXtXtXtXtX",
"tXtXtXtXtXtXtXtXtXtXtXtX  t v z.&X7XwX2X_.Y.R.).}.3X3X6X].E.I.>.;._ _ _ _ { _ _ {  .-.&.e.6.1.] W p < X tXtXtXtXtXtXtXtXtXtXtXtX",
"tXtXtXtXtXtXtXtXtXtXtXtX  t v x.&X7XeXqX[.U.r.T.'.}.6X}.}._.!.R.,.;.{ } +.$.+.o.) ) } #.8.6.1.] W a < X tXtXtXtXtXtXtXtXtXtXtXtX",
"tXtXtXtXtXtXtXtXtXtXtXtX  t v x.&X0XeXqXOXu.e.y.T.).`.}.;X:X}._.R.>.-.o.#.%.%.#.@.@.@.#.7.8.1.] Q p < X tXtXtXtXtXtXtXtXtXtXtXtX",
"tXtXtXtXtXtXtXtXtXtXtXtX  t v x.#X0XeXqXOXQ.t.e.e.I.T.`.:XqXqX-XE.,.-.O.%.5.8.%.O.o.o.#.7.8.1.] W p < X tXtXtXtXtXtXtXtXtXtXtXtX",
"tXtXtXtXtXtXtXtXtXtXtXtX  t v x.#X7XrXqXOXQ.e.*.O.:.P.).-XqXqX-X).P.$.#.%.5.7.&.+.o.o.$.9.6.1.] W p < X tXtXtXtXtXtXtXtXtXtXtXtX",
"tXtXtXtXtXtXtXtXtXtXtXtX  t v x.#X0XrXqXOXU.&.*.( } >.T.[.;X-XOXQ.r.&.%.%.5.%.#.+.} o.$.9.8.1.] W p < X tXtXtXtXtXtXtXtXtXtXtXtX",
"tXtXtXtXtXtXtXtXtXtXtXtX  t v x.&X0XeXqX{.U.$.( ( ` :.y.Q.{.OXQ.Q.t.9.%.%.$.$.o.} _ o.$.7.8.1.] Q p < X tXtXtXtXtXtXtXtXtXtXtXtX",
"tXtXtXtXtXtXtXtXtXtXtXtX  t v z.#X7XwX2X[.I.:._ ) _ -.>.u.i.i.i.t.t.8.7.%.+.o._ _ _ o.$.7.8.<.] W s < X tXtXtXtXtXtXtXtXtXtXtXtX",
"tXtXtXtXtXtXtXtXtXtXtXtX  w x j.G.=X1X:X`.E.I.>.:.-.$.%.8.q.q.q.q.q.0.7.%.+.+.o.o.o.O.%.%.2.<.! W s < X tXtXtXtXtXtXtXtXtXtXtXtX",
"tXtXtXtXtXtXtXtXtXtXtXtXtXw x s.M.F.%X|.].`.).T.y.>.&.5.w.0.w.q.q.q.q.9.7.&.&.$.$.$.%.| | [ ! Q d a < tXtXtXtXtXtXtXtXtXtXtXtXtX",
"tXtXtXtXtXtXtXtXtXtXtXtXtXtXtXp.a.j.n.B.$X>X-X[.Q.y.9.8.w.0.0.q.q.q.q.0.8.8.9.9.7.5.| | [ ~ d d f tXtXtXtXtXtXtXtXtXtXtXtXtXtXtX",
"tXtXtXtXtXtXtXtXtXtXtXtXtXtXtXtXz b p.n.%X1X2X>X{.u.0.0.w.w.0.0.0.0.0.6.0.6.6.6.8.6.5.[ ~ d s a tXtXtXtXtXtXtXtXtXtXtXtXtXtXtXtX",
"tXtXtXtXtXtXtXtXtXtXtXtXtXtXtXtX> h b z.G.*X1X,X^.3.2.1.<.<.1.6.1.1.1.1.1.1.<.1.1.1.| [ Q f i ; tXtXtXtXtXtXtXtXtXtXtXtXtXtXtXtX",
"tXtXtXtXtXtXtXtXtXtXtXtXtXtXtXtXtX> l s.M.F.B.V.C.3.<.] ] ] ] ] ] ] ] ] ] ] ! <.] ] ! Q d a ; tXtXtXtXtXtXtXtXtXtXtXtXtXtXtXtXtX",
"tXtXtXtXtXtXtXtXtXtXtXtXtXtXtXtXtXtXtXT a.d.d.f.4.^ ~ W W W W W W W W W W W W Q W W W d f tXtXtXtXtXtXtXtXtXtXtXtXtXtXtXtXtXtXtX",
"tXtXtXtXtXtXtXtXtXtXtXtXtXtXtXtXtXtXtXtXv x x z k s s a a a p p s p p s p p p p p p a a tXtXtXtXtXtXtXtXtXtXtXtXtXtXtXtXtXtXtXtX",
"tXtXtXtXtXtXtXtXtXtXtXtXtXtXtXtXtXtXtXtXa e 1 1 1 < < < < < < < < < < < < < < < < < < < tXtXtXtXtXtXtXtXtXtXtXtXtXtXtXtXtXtXtXtX",
"tXtXtXtXtXtXtXtXtXtXtXtXtXtXtXtXtXtXtXtXtX      O X X X X X X X X X X X X X X X X X X tXtXtXtXtXtXtXtXtXtXtXtXtXtXtXtXtXtXtXtXtX",
"tXtXtXtXtXtXtXtXtXtXtXtXtXtXtXtXtXtXtXtXtXtXtXtXtXtXtXtXtXtXtXtXtXtXtXtXtXtXtXtXtXtXtXtXtXtXtXtXtXtXtXtXtXtXtXtXtXtXtXtXtXtXtXtX",
"tXtXtXtXtXtXtXtXtXtXtXtXtXtXtXtXtXtXtXtXtXtXtXtXtXtXtXtXtXtXtXtXtXtXtXtXtXtXtXtXtXtXtXtXtXtXtXtXtXtXtXtXtXtXtXtXtXtXtXtXtXtXtXtX",
"tXtXtXtXtXtXtXtXtXtXtXtXtXtXtXtXtXtXtXtXtXtXtXtXtXtXtXtXtXtXtXtXtXtXtXtXtXtXtXtXtXtXtXtXtXtXtXtXtXtXtXtXtXtXtXtXtXtXtXtXtXtXtXtX",
"tXtXtXtXtXtXtXtXtXtXtXtXtXtXtXtXtXtXtXtXtXtXtXtXtXtXtXtXtXtXtXtXtXtXtXtXtXtXtXtXtXtXtXtXtXtXtXtXtXtXtXtXtXtXtXtXtXtXtXtXtXtXtXtX",
"tXtXtXtXtXtXtXtXtXtXtXtXtXtXtXtXtXtXtXtXtXtXtXtXtXtXtXtXtXtXtXtXtXtXtXtXtXtXtXtXtXtXtXtXtXtXtXtXtXtXtXtXtXtXtXtXtXtXtXtXtXtXtXtX",
"tXtXtXtXtXtXtXtXtXtXtXtXtXtXtXtXtXtXtXtXtXtXtXtXtXtXtXtXtXtXtXtXtXtXtXtXtXtXtXtXtXtXtXtXtXtXtXtXtXtXtXtXtXtXtXtXtXtXtXtXtXtXtXtX",
"tXtXtXtXtXtXtXtXtXtXtXtXtXtXtXtXtXtXtXtXtXtXtXtXtXtXtXtXtXtXtXtXtXtXtXtXtXtXtXtXtXtXtXtXtXtXtXtXtXtXtXtXtXtXtXtXtXtXtXtXtXtXtXtX",
"tXtXtXtXtXtXtXtXtXtXtXtXtXtXtXtXtXtXtXtXtXtXtXtXtXtXtXtXtXtXtXtXtXtXtXtXtXtXtXtXtXtXtXtXtXtXtXtXtXtXtXtXtXtXtXtXtXtXtXtXtXtXtXtX"
};
