/* XPM */
static char *result[] = {
/* columns rows colors chars-per-pixel */
"64 64 8 1 ",
"  c #473937",
". c #483C38",
"X c #346141",
"o c #417E40",
"O c #D67140",
"+ c #74B162",
"@ c #E1A469",
"# c None",
/* pixels */
"################################################################",
"################################################################",
"################################################################",
"################################################################",
"################################################################",
"################################################################",
"################################################################",
"################################################################",
"################################################################",
"################################################################",
"################################################################",
"################################################################",
"################################################################",
"################################################################",
"################################################################",
"################################################################",
"################################################################",
"################################################################",
"################################################################",
"################################################################",
"################################################################",
"################################################################",
"################################################################",
"################################################################",
"################################################################",
"################################################################",
"################################################################",
"################################################################",
"################################################################",
"####################################      ######################",
"####################################      ######################",
"######################      ######  ++++++    ##################",
"######################      ######  ++++++    ##################",
"######################  ++  ######  ++++++++  ##################",
"######################  ++  ######  ++++++++  ##################",
"##################    ++++++      ++++++++++++  ################",
"##################    ++++++      ++++++++++++  ################",
"################  ++++++++++++    ++++++..++++  ################",
"################  ++++++++++++    ++++++..++++  ################",
"################  ++++++++++++++++++    ##    ##################",
"################  ++++++++++++++++++    ##    ##################",
"################  ++++....++++++++++  ##########################",
"################  ++++....++++++++++  ##########################",
"##################    ####  ++oooo  ############################",
"##################    ####  ++oooo  ############################",
"############################  XXXX  ############################",
"############################  XXXX  ############################",
"##########################  OOOOOOOO  ##########################",
"##########################  OOOOOOOO  ##########################",
"########################  OOOOOOOOOOOO  ########################",
"########################  OOOOOOOOOOOO  ########################",
"######################  OOOOOOOOOOOOOOOO  ######################",
"######################  OOOOOOOOOOOOOOOO  ######################",
"##################      OOOO@@@@@@OOOOOO      ##################",
"##################      OOOO@@@@@@OOOOOO      ##################",
"######################  OOOO@@@@@@OOOOOO  ######################",
"######################  OOOO@@@@@@OOOOOO  ######################",
"######################      @@@@@@OO      ######################",
"######################      @@@@@@OO      ######################",
"############################        ############################",
"############################        ############################",
"################################################################",
"################################################################",
"################################################################"
};
