/* XPM */
static char *result[] = {
/* columns rows colors chars-per-pixel */
"64 64 6 1 ",
"  c black",
". c #21110D",
"X c #342319",
"o c #503625",
"O c #755338",
"+ c None",
/* pixels */
"++++........................................................++++",
"++++........................................................++++",
"++++........................................................++++",
"++++........................................................++++",
"....OOOOOOOOOOOOOOOOOOOOOOOOOOOOOOOOOOOOOOOOOOOOOOOOOOOOOOOO....",
"....OOOOOOOOOOOOOOOOOOOOOOOOOOOOOOOOOOOOOOOOOOOOOOOOOOOOOOOO....",
"....OOOOOOOOOOOOOOOOOOOOOOOOOOOOOOOOOOOOOOOOOOOOOOOOOOOOOOOO....",
"....OOOOOOOOOOOOOOOOOOOOOOOOOOOOOOOOOOOOOOOOOOOOOOOOOOOOOOOO....",
"....OOOOOOOOOOOOOOOOOOOOOOOOOOOOOOOOOOOOOOOOOOOOOOOOOOOOOOOO....",
"....OOOOOOOOOOOOOOOOOOOOOOOOOOOOOOOOOOOOOOOOOOOOOOOOOOOOOOOO....",
"....OOOOOOOOOOOOOOOOOOOOOOOOOOOOOOOOOOOOOOOOOOOOOOOOOOOOOOOO....",
"....OOOOOOOOOOOOOOOOOOOOOOOOOOOOOOOOOOOOOOOOOOOOOOOOOOOOOOOO....",
"....ooooXXXXXXXXXXXXXXXXXXXXXXXXXXXXXXXXXXXXXXXXXXXXXXXXoooo....",
"....ooooXXXXXXXXXXXXXXXXXXXXXXXXXXXXXXXXXXXXXXXXXXXXXXXXoooo....",
"....ooooXXXXXXXXXXXXXXXXXXXXXXXXXXXXXXXXXXXXXXXXXXXXXXXXoooo....",
"....ooooXXXXXXXXXXXXXXXXXXXXXXXXXXXXXXXXXXXXXXXXXXXXXXXXoooo....",
"....OOOOXXXXoooo++++++++++++++++++++++++++++++++++++++++OOOO....",
"....OOOOXXXXoooo++++++++++++++++++++++++++++++++++++++++OOOO....",
"....OOOOXXXXoooo++++++++++++++++++++++++++++++++++++++++OOOO....",
"....OOOOXXXXoooo++++++++++++++++++++++++++++++++++++++++OOOO....",
"....OOOOXXXXoooo++++++++++++++++++++++++++++++++++++++++OOOO....",
"....OOOOXXXXoooo++++++++++++++++++++++++++++++++++++++++OOOO....",
"....OOOOXXXXoooo++++++++++++++++++++++++++++++++++++++++OOOO....",
"....OOOOXXXXoooo++++++++++++++++++++++++++++++++++++++++OOOO....",
"....OOOOXXXXoooo++++++++++++++++++++++++++++++++++++++++OOOO....",
"....OOOOXXXXoooo++++++++++++++++++++++++++++++++++++++++OOOO....",
"....OOOOXXXXoooo++++++++++++++++++++++++++++++++++++++++OOOO....",
"....OOOOXXXXoooo++++++++++++++++++++++++++++++++++++++++OOOO....",
"....OOOOXXXXoooo++++++++++++++++++++++++++++++++++++++++OOOO....",
"....OOOOXXXXoooo++++++++++++++++++++++++++++++++++++++++OOOO....",
"....OOOOXXXXoooo++++++++++++++++++++++++++++++++++++++++OOOO....",
"....OOOOXXXXoooo++++++++++++++++++++++++++++++++++++++++OOOO....",
"....OOOOXXXXoooo++++++++++++++++++++++++++++++++++++++++OOOO....",
"....OOOOXXXXoooo++++++++++++++++++++++++++++++++++++++++OOOO....",
"....OOOOXXXXoooo++++++++++++++++++++++++++++++++++++++++OOOO....",
"....OOOOXXXXoooo++++++++++++++++++++++++++++++++++++++++OOOO....",
"....OOOOXXXXoooo++++++++++++++++++++++++++++++++++++++++OOOO....",
"....OOOOXXXXoooo++++++++++++++++++++++++++++++++++++++++OOOO....",
"....OOOOXXXXoooo++++++++++++++++++++++++++++++++++++++++OOOO....",
"....OOOOXXXXoooo++++++++++++++++++++++++++++++++++++++++OOOO....",
"....OOOOXXXXoooo++++++++++++++++++++++++++++++++++++++++OOOO....",
"....OOOOXXXXoooo++++++++++++++++++++++++++++++++++++++++OOOO....",
"....OOOOXXXXoooo++++++++++++++++++++++++++++++++++++++++OOOO....",
"....OOOOXXXXoooo++++++++++++++++++++++++++++++++++++++++OOOO....",
"....OOOOXXXXoooo++++++++++++++++++++++++++++++++++++++++OOOO....",
"....OOOOXXXXoooo++++++++++++++++++++++++++++++++++++++++OOOO....",
"....OOOOXXXXoooo++++++++++++++++++++++++++++++++++++++++OOOO....",
"....OOOOXXXXoooo++++++++++++++++++++++++++++++++++++++++OOOO....",
"....OOOOXXXXoooo++++++++++++++++++++++++++++++++++++++++OOOO....",
"....OOOOXXXXoooo++++++++++++++++++++++++++++++++++++++++OOOO....",
"....OOOOXXXXoooo++++++++++++++++++++++++++++++++++++++++OOOO....",
"....OOOOXXXXoooo++++++++++++++++++++++++++++++++++++++++OOOO....",
"....OOOOXXXXoooo++++++++++++++++++++++++++++++++++++++++OOOO....",
"....OOOOXXXXoooo++++++++++++++++++++++++++++++++++++++++OOOO....",
"....OOOOXXXXoooo++++++++++++++++++++++++++++++++++++++++OOOO....",
"....OOOOXXXXoooo++++++++++++++++++++++++++++++++++++++++OOOO....",
"....            ++++++++++++++++++++++++++++++++++++++++    ....",
"....            ++++++++++++++++++++++++++++++++++++++++    ....",
"....            ++++++++++++++++++++++++++++++++++++++++    ....",
"....            ++++++++++++++++++++++++++++++++++++++++    ....",
"    ++++++++++++++++++++++++++++++++++++++++++++++++++++++++    ",
"    ++++++++++++++++++++++++++++++++++++++++++++++++++++++++    ",
"    ++++++++++++++++++++++++++++++++++++++++++++++++++++++++    ",
"    ++++++++++++++++++++++++++++++++++++++++++++++++++++++++    "
};
