/* XPM */
static char *_d8b520761874e62902c1a1fa2aa871aYC1e7EVp6k31zFx4[] = {
/* columns rows colors chars-per-pixel */
"16 23 8 1 ",
"  c None",
". c #222222",
"X c #62232F",
"o c #314152",
"O c #3D734F",
"+ c #8F4029",
"@ c #D3BFA9",
"# c #FDF7ED",
/* pixels */
"                ",
"                ",
"                ",
"                ",
"                ",
"                ",
"                ",
"    ..........  ",
"    .oOOOOOOO.  ",
"    .oO........ ",
"    .oO.######. ",
"   .....#..##.. ",
"   .+++.#..##.. ",
"   .....#@@##@. ",
"    .oO...#..#. ",
"    .oOOO...... ",
"    .oooooooo.  ",
"    .XXXXXXXX.  ",
"    .++++++++.  ",
"    .++++++++.  ",
"    .XX....XX.  ",
"    .X.   .X.   ",
"    ..    ..    "
};
