/* XPM */
static char *_ab7268570dc4e7fb92484814e156256KWZGcAFva2j1ih2s[] = {
/* columns rows colors chars-per-pixel */
"64 64 21 1 ",
"  c None",
". c black",
"X c black",
"o c #709932",
"O c #6FAF32",
"+ c #358249",
"@ c #386940",
"# c #70452C",
"$ c #646A6B",
"% c #484F52",
"& c #313436",
"* c #5FCDE4",
"= c #639BFF",
"- c #294D33",
"; c #4B994F",
": c #8BC22D",
"> c #5C8466",
", c #B4E441",
"< c #BD9946",
"1 c #9E6937",
"2 c #875435",
/* pixels */
"                               $$$$$                 $$$$$      ",
"                               $$$$$                 $$$$$      ",
"                               $$$$$                 $$$$$      ",
"                               $$$$$      $$$$$         $$$$$   ",
"                               $$$$$      $$$$$         $$$$$   ",
"                               $$$$$      $$$$$         $$$$$   ",
"                   $$$$$$      $$      $$$$$$$$$$$   $$$$$$$$   ",
"                   $$$$$$      $$      $$$$$$$$$$$   $$$$$$$$   ",
"   $$$$$$$$                 $$$        $$$$$$$$$$$              ",
"   $$$$$$$$                 $$$        $$$$$$$$$$$              ",
"   $$$$$$$$                 $$$        $$$$$$$$$$$              ",
"$$$$$$$$$$$$$$     $$$$$$   $$$$$$$$&&&%%%$$$$$&&&%%%   $$$$$   ",
"$$$$$$$$$$$$$$     $$$$$$   $$$$$$$$&&&%%%$$$$$&&&%%%   $$$$$   ",
"$$$$$$$$$$$$$$     $$$$$$   $$$$$$$$&&&%%%$$$$$&&&%%%   $$$$$   ",
"$$$$$$$$$$$$$$   $$$$$$$$&&&%%%$$%%%&&&%%%%%%&&%%%%%%%%%$$$$$   ",
"$$$$$$$$$$$$$$   $$$$$$$$&&&%%%$$%%%&&&%%%%%%&&%%%%%%%%%$$$$$   ",
"$$$$$$$$$$$$$$   $$$$$$$$&&&%%%$$%%%&&&%%%%%%&&%%%%%%%%%$$$$$   ",
"   $$$$$         $$$$$%%%%%%$$$&&%%%%%%$$$$$$%%%%%%%%&&&%%&&&%%%",
"   $$$$$         $$$$$%%%%%%$$$&&%%%%%%$$$$$$%%%%%%%%&&&%%&&&%%%",
"              &&&%%%%%&&&$$$$$$&&%%%&&&$$$$$$$$&&&$$$$$$$$&&&%%%",
"              &&&%%%%%&&&$$$$$$&&%%%&&&$$$$$$$$&&&$$$$$$$$&&&%%%",
"              &&&%%%%%&&&$$$$$$&&%%%&&&$$$$$$$$&&&$$$$$$$$&&&%%%",
"           $$$$$$%%&&&%%%&&&%%%$$&&&%%%%%%$$$$$%%%%%%$$$$$$$$&&&",
"           $$$$$$%%&&&%%%&&&%%%$$&&&%%%%%%$$$$$%%%%%%$$$$$$$$&&&",
"           $$$$$$%%&&&%%%&&&%%%$$&&&%%%%%%$$$$$%%%%%%$$$$$$$$&&&",
"   $$$  $$$$$$$$$$$%%%%%%$$$$$$$$%%%%%%%%%&&&%%%%%$ooooooooooooo",
"   $$$  $$$$$$$$$$$%%%%%%$$$$$$$$%%%%%%%%%&&&%%%%%$ooooooooooooo",
"   $$$  $$$$$$$$$$$%%%%%%$$$$$$$$%%%%%%%%%&&&%%%%%$ooooooooooooo",
"        $$$$$$$$$$$%%%$$$$$$$$$&&&&&$$ooooooooooooooooooooooooo,",
"        $$$$$$$$$$$%%%$$$$$$$$$&&&&&$$ooooooooooooooooooooooooo,",
"        $$$$$$$$$$$%%%$$$$$$$$$&&&&&$$ooooooooooooooooooooooooo,",
"        %%%$$$$$$%%&&&$$$$$$$$$&ooooooooo,,,,,,,,,,,,,,,,,,,,,,,",
"        %%%$$$$$$%%&&&$$$$$$$$$&ooooooooo,,,,,,,,,,,,,,,,,,,,,,,",
"      $$$$$&&&%%%$$$$$$$$%%%&&&%ooooooooo,,,,,,,,,,,,,,,,,,,,,,,",
"      $$$$$&&&%%%$$$$$$$$%%%&&&%ooooooooo,,,,,,,,,,,,,,,,,,,,,,,",
"      $$$$$&&&%%%$$$$$$$$%%%&&&%ooooooooo,,,,,,,,,,,,,,,,,,,,,,,",
"$$$$$$$$$$$$$$%%%%%$$$$$$$$$&&&%ooooooooo,,,,,,,,,,,,,,,,,,,,,,,",
"$$$$$$$$$$$$$$%%%%%$$$$$$$$$&ooooooooo,,,,,,,,,,,,,,,,,,,,,,,,,,",
"$$$$$$$$$$$$$$%%%%%$$$$$$$$$&ooooooooo,,,,,,,,,,,,,,,,,,,,,,,,,,",
"$$$$$$$$$$$$$$&&&$$$$$$$$&&&%ooooooooo,,,,,,,,,,,,,,,,,,,,,,,,,,",
"$$$$$$$$$$$$$$&&&$$$$$$$$&&&%ooo,,,,,,,,,,,,,,,,,,,,,,,,,,,,,,,,",
"$$$$$$$$$$$$$$&&&$$$$$$$$&&&%ooo,,,,,,,,,,,,,,,,,,,,,,,,,,,,,,,,",
"   $$$$$$$$&&&   %%%%%&&&%%%$ooo,,,,,,,,,,,,,,,,,,,,,,,,,,,,,,,,",
"   $$$$$$$$&&&   %%%%%&&&%%%$ooooooooo,,,,,,,,,,,,,,,,,,,,,,,,,,",
"   $$$$$$$$&&&   %%%%%&&&%%%$ooooooooo,,,,,,,,,,,,,,,,,,,,,,,,,,",
"              $$$$$$$$&&&%%%$ooooooooo,,,,,,,,,,,,,,,,,,,,,,,,,,",
"              $$$$$$$$&&&%%%$ooooooooo,,,,,,,,,,,,,,,,,,,,,,,,,,",
"           $$$$$$$$%%%%%%%%%%ooooooooo,,,,,,,,,,,,,,,,,,,,,,,,,,",
"           $$$$$$$$%%%%%%%%%%ooooooooo,,,,,,,,,,,,,,,,,,,,,,,,,,",
"           $$$$$$$$%%%%%%%%%%ooooooooo,,,,,,,,,,,,,,,,,,,,,,,,,,",
"   $$$$$      $$$$$$$$&&&%oooooooooooo,,,,,,,,,,,,,,,,,,,,,,,,,,",
"   $$$$$      $$$$$$$$&&&%oooooooooooo,,,,,,,,,,,,,,,,,,,,,,,,,,",
"   $$$$$      $$$$$$$$&&&%oooooooooooo,,,,,,,,,,,,,,,,,,,,,,,,,,",
"$$$$$$$$$$$        %%%%%%$oooooo,,,,,,,,,,,,,,,,,,,,,,,,,,,,,,,,",
"$$$$$$$$$$$        %%%%%%$oooooo,,,,,,,,,,,,,,,,,,,,,,,,,,,,,,,,",
"$$$$$$$$$$$        %%%%%%$oooooo,,,,,,,,,,,,,,,,,,,,,,,,,,,,,,,,",
"$$$$$$$$$$$      %%%%%%%%&oooooo,,,,,,,,,,,,,,,,,,,,,,,,,,,,,,,,",
"$$$$$$$$$$$      %%%%%%%%&oooooo,,,,,,,,,,,,,,,,,,,,,,,,,,,,,,,,",
"   $$$$$      $$$%%%%%&&&$oooooo,,,,,,,,,,,,,,,,,,,,,,,,,,,,,,,,",
"   $$$$$      $$$%%%%%&&&$oooooo,,,,,,,,,,,,,,,,,,,,,,,,,,,,,,,,",
"   $$$$$      $$$%%%%%&&&$oooooo,,,,,,,,,,,,,,,,,,,,,,,,,,,,,,,,",
"              &&&$$&&&%%%%oooooo,,,,,,,,,,,,,,,,,,,,,,,,,,,,,,,,",
"              &&&$$&&&%%%%ooo,,,,,,,,,,,,,,,,,,,,,,,,,,,,,,,,,,,",
"              &&&$$&&&%%%%ooo,,,,,,,,,,,,,,,,,,,,,,,,,,,,,,,,,,,"
};
