/* XPM */
static char *_164cb8bd3b148b088cde2df5f9588b0cEmC9CCaUY5uxbZt[] = {
/* columns rows colors chars-per-pixel */
"64 64 4 1 ",
"  c None",
". c #78A158",
"X c #A4C263",
"o c #C0D470",
/* pixels */
"                                                                ",
"                                                                ",
"                                                                ",
"                                                                ",
"                                                                ",
"                                                                ",
"                                                                ",
"                                                                ",
"                                                                ",
"                                  ..............................",
"                                  ..............................",
"                                  ..............................",
"                     .........................XXXXXXXXXXXXXXXXXX",
"                     .........................XXXXXXXXXXXXXXXXXX",
"                     .........................XXXXXXXXXXXXXXXXXX",
"               .........XXXXXXXXXXXXXXXXXXXXXXXXXXXXXXXXXXXXXXXX",
"               .........XXXXXXXXXXXXXXXXXXXXXXXXXXXXXXXXXXXXXXXX",
"               .........XXXXXXXXXXXXXXXXXXXXXXXXXXXXXXXXXXXXXXXX",
"               .........XXXXXXXXXXXXXXXXXXXXXXXXXXXXXXXXXXXXXXXX",
"               .........XXXXXXXXXXXXXXXXXXXXXXXXXXXXXXXXXXXXXXXX",
"               .........XXXXXXXXXXXXXXXXXXXXXXXXXXXXXXXXXXXXXXXX",
"            .........XXXXXXXXXXXXXXXXXXXXXXXXXXXXXXXXXXXXXXXXXXX",
"            .........XXXXXXXXXXXXXXXXXXXXXXXXXXXXXXXXXXXXXXXXXXX",
"            .........XXXXXXXXXXXXXXXXXXXXXXXXXXXXXXXXXXXXXXXXXXX",
"            ...XXXXXXXXXXXXXXXXXXXXXXXXXooooooXXXooooooooooooooo",
"            ...XXXXXXXXXXXXXXXXXXXXXXXXXooooooXXXooooooooooooooo",
"            ...XXXXXXXXXXXXXXXXXXXXXXXXXooooooXXXooooooooooooooo",
"            .........XXXXXXXXXXXXXXXXoooooooooooooooXXXXXXoooooo",
"            .........XXXXXXXXXXXXXXXXoooooooooooooooXXXXXXoooooo",
"            .........XXXXXXXXXXXXXXXXoooooooooooooooXXXXXXoooooo",
"            .........XXXXXXXXXXXXXXXXoooooooooooooooXXXXXXoooooo",
"            .........XXXXXXXXXXXXXXXXoooooooooooooooXXXXXXoooooo",
"            .........XXXXXXXXXXXXXXXXoooooooooooooooXXXXXXoooooo",
"            .........XXXXXXXXXXXXXXXXoooooooooooooooXXXXXXoooooo",
"         ............XXXXXXXXXXXXXoooooooooooooooooooooooooooooo",
"         ............XXXXXXXXXXXXXoooooooooooooooooooooooooooooo",
"         ............XXXXXXXXXXXXXoooooooooooooooooooooooooooooo",
"         ......XXXXXXXXXXXXooooooooooooooooooooooooooooooooooooo",
"         ......XXXXXXXXXXXXooooooooooooooooooooooooooooooooooooo",
"         ......XXXXXXXXXXXXooooooooooooooooooooooooooooooooooooo",
"         ......XXXXXXXXXXXXXXXXXXXoooooooooooooooooooooooooooooo",
"         ......XXXXXXXXXXXXXXXXXXXoooooooooooooooooooooooooooooo",
"         ......XXXXXXXXXXXXXXXXXXXoooooooooooooooooooooooooooooo",
"         ......XXXXXXXXXXXXXXXXXXXoooooooooooooooooooooooooooooo",
"         ......XXXXXXXXXXXXXXXXXXXoooooooooooooooooooooooooooooo",
"         ......XXXXXXXXXXXXXXXXXXXoooooooooooooooooooooooooooooo",
"         ...XXXXXXXXXXXXoooooooooooooooooooooooooooooooooooooooo",
"         ...XXXXXXXXXXXXoooooooooooooooooooooooooooooooooooooooo",
"         ...XXXXXXXXXXXXoooooooooooooooooooooooooooooooooooooooo",
"         ...XXXXXXXXXXXXooooooooooooooooooooooooooooXXXXXXoooooo",
"         ...XXXXXXXXXXXXooooooooooooooooooooooooooooXXXXXXoooooo",
"         ...XXXXXXXXXXXXooooooooooooooooooooooooooooXXXXXXoooooo",
"         ...XXXXXXXXXXXXoooXXXXXXXoooooooooooooooooooooooooooooo",
"         ...XXXXXXXXXXXXoooXXXXXXXoooooooooooooooooooooooooooooo",
"         ...XXXXXXXXXXXXoooXXXXXXXoooooooooooooooooooooooooooooo",
"         ...XXXXXXXXXXXXoooXXXXXXXoooooooooooooooooooooooooooooo",
"         ...XXXXXXXXXXXXoooXXXXXXXoooooooooooooooooooooooooooooo",
"         ...XXXXXXXXXXXXoooXXXXXXXoooooooooooooooooooooooooooooo",
"         ...XXXXXXXXXooooooooooooooooooooooooooooooooooooooooooo",
"         ...XXXXXXXXXooooooooooooooooooooooooooooooooooooooooooo",
"         ...XXXXXXXXXooooooooooooooooooooooooooooooooooooooooooo",
"         ...XXXXXXXXXooooooooooooooooooooooooooooooooooooooooooo",
"         ...XXXXXXXXXooooooooooooooooooooooooooooooooooooooooooo",
"         ...XXXXXXXXXooooooooooooooooooooooooooooooooooooooooooo"
};
