/* XPM */
static char *_915b1635a274789d25be786b1700bb3v9q73K3MM9LksjOy[] = {
/* columns rows colors chars-per-pixel */
"64 64 110 2 ",
"   c None",
".  c #A57256",
"X  c #A87657",
"o  c #A87758",
"O  c #A97758",
"+  c #AA7959",
"@  c #AB7A59",
"#  c #AB7A5A",
"$  c #AC7A5A",
"%  c #AC7C5A",
"&  c #AD7C5B",
"*  c #AD7D5B",
"=  c #AE7C5A",
"-  c #AE7D5B",
";  c #AD7E5D",
":  c #B07C5C",
">  c #B07D5C",
",  c #B17D5C",
"<  c #B07F5C",
"1  c #78A158",
"2  c #AD8B5D",
"3  c #AD8C5D",
"4  c #B3805D",
"5  c #B1835E",
"6  c #B68D5F",
"7  c #AF945F",
"8  c #AE975E",
"9  c #B0985F",
"0  c #B48661",
"q  c #BC8663",
"w  c #BD8764",
"e  c #B68961",
"r  c #B88862",
"t  c #BA8862",
"y  c #B88A63",
"u  c #B88B63",
"i  c #B88F61",
"p  c #BE8964",
"a  c #BB8D64",
"s  c #BB8E65",
"d  c #BF8D65",
"f  c #B59160",
"g  c #B49760",
"h  c #BB9364",
"j  c #BD9365",
"k  c #B09860",
"l  c #B19D61",
"z  c #B69D60",
"x  c #B79A64",
"c  c #BE9967",
"v  c #B99D66",
"b  c #BF9468",
"n  c #B8A563",
"m  c #B3A863",
"M  c #B9AE67",
"N  c #B6B566",
"B  c #B7B467",
"V  c #B6B667",
"C  c #BAB167",
"Z  c #B6BB67",
"A  c #B6BB68",
"S  c #BCB86A",
"D  c #C09066",
"F  c #C29667",
"G  c #C19168",
"H  c #C29369",
"J  c #C39369",
"K  c #C59169",
"L  c #C6926A",
"P  c #C7926A",
"I  c #C09469",
"U  c #C19668",
"Y  c #C3946A",
"T  c #C5956A",
"R  c #C5966A",
"E  c #C6966B",
"W  c #C3996B",
"Q  c #C49A6A",
"!  c #C49A6B",
"~  c #C49A6C",
"^  c #C59B6D",
"/  c #C7996F",
"(  c #C69C6C",
")  c #C2A96C",
"_  c #C4AB6E",
"`  c #C5AD6F",
"'  c #C3BC6F",
"]  c #CAA273",
"[  c #CBA478",
"{  c #CDA87B",
"}  c #C4BE70",
"|  c #C5BE71",
" . c #A4C263",
".. c #BECC6E",
"X. c #BECE6E",
"o. c #BFD16F",
"O. c #C0D470",
"+. c #D0AC80",
"@. c #D8B68A",
"#. c #DBBC91",
"$. c #E1BE93",
"%. c #E3C69D",
"&. c #E4C99F",
"*. c #E6CAA0",
"=. c #E7CDA4",
"-. c #E9CEA5",
";. c #E9D0A7",
":. c #EAD2A9",
">. c #EDD7AF",
",. c #EED8AF",
/* pixels */
"                                                                                                                                ",
"                                                                                                                                ",
"                                                                                                                                ",
"                                                                                                                                ",
"                                                                                                                                ",
"                                                                                                                                ",
"                                                                                                                                ",
"                                                                                                                                ",
"                                                                                                                                ",
"                                                                    1 1 1 1 1 1 1 1 1 1 1 1 1 1 1 1 1 1 1 1 1 1 1 1 1 1 1 1 1 1 ",
"                                                                    1 1 1 1 1 1 1 1 1 1 1 1 1 1 1 1 1 1 1 1 1 1 1 1 1 1 1 1 1 1 ",
"                                                                    1 1 1 1 1 1 1 1 1 1 1 1 1 1 1 1 1 1 1 1 1 1 1 1 1 1 1 1 1 1 ",
"                                          1 1 1 1 1 1 1 1 1 1 1 1 1 1 1 1 1 1 1 1 1 1 1 1 1  . . . . . . . . . . . . . . . . . .",
"                                          1 1 1 1 1 1 1 1 1 1 1 1 1 1 1 1 1 1 1 1 1 1 1 1 1  . . . . . . . . . . . . . . . . . .",
"                                          1 1 1 1 1 1 1 1 1 1 1 1 1 1 1 1 1 1 1 1 1 1 1 1 1  . . . . . . . . . . . . . . . . . .",
"                              1 1 1 1 1 1 1 1 1  . . . . . . . . . . . . . . . . . . . . . . . . . . . . . . . . . . . . . . . .",
"                              1 1 1 1 1 1 1 1 1  . . . . . . . . . . . . . . . . . . . . . . . . . . . . . . . . . . . . . . . .",
"                              1 1 1 1 1 1 1 1 1  . . . . . . . . . . . . . . . . . . . . . . . . . . . . . . . . . . . . . . . .",
"                              1 1 1 1 1 1 1 1 1  . . . . . . . . . . . . . . . . . . . . . . . . . . . . . . . . . . . . . . . .",
"                              1 1 1 1 1 1 1 1 1  . . . . . . . . . . . . . . . . . . . . . . . . . . . . . . . . . . . . . . . .",
"                              1 1 1 1 1 1 1 1 1  . . . . . . . . . . . . . . . . . . . . . . . . . . . . . . . . . . . . . . . .",
"                        1 1 1 1 1 1 1 1 1  . . . . . . . . . . . . . . . . . . . . . . . . . . . . . . . . . . . . . . . . . . .",
"                        1 1 1 1 1 1 1 1 1  . . . . . . . . . . . . . . . . . . . . . . . . . . . . . . . . . . . . . . . . . . .",
"                        1 1 1 1 1 1 1 1 1  . . . . . . . . . . . . . . . . . . . . . . . . . . . . . . . . . . . . . . . . . . .",
"                        1 1 1  . . . . . . . . . . . . . . . . . . . . . . . . .O.O.O.O.O.O. . . .O.O.O.O.O.O.O.O.O.O.O.O.O.O.O.",
"                        1 1 1  . . . . . . . . . . . . . . . . . . . . . . . . .O.O.O.O.O.O. . . .O.O.O.O.O.O.O.O.O.O.O.O.O.O.O.",
"                        1 1 1  . . . . . . . . . . . . . . . . . . . . . . . . .O.O.O.O.O.O. . . .O.O.O.O.O.O.O.O.O.O.O.O.O.O.O.",
"                        1 1 1 1 1 1 1 1 1  . . . . . . . . . . . . . . . .O.O.O.O.O.O.O.O.O.O.O.O.O.O.O. . . . . . .O.O.O.O.O.O.",
"                        1 1 1 1 1 1 1 1 1  . . . . . . . . . . . . . . . .O.O.O.O.O.O.O.O.O.O.O.O.O.O.O. . . . . . .O.O.O.O.O.O.",
"                        1 1 1 1 1 1 1 1 1  . . . . . . . . . . . . . . . .O.O.O.O.O.O.O.O.O.O.O.O.O.O.O. . . . . . .O.O.O.O.O.O.",
"                        1 1 1 1 1 1 1 1 1  . . . . . . . . . . . . . . . .O.O.O.O.O.O.O.O.O.O.O.O.O.O.O. . . . . . .O.O.O.O.O.O.",
"                        1 1 1 1 1 1 1 1 1  . . . . . . . . . . . . . . . .O.O.O.O.O.O.O.O.O.O.O.O.O.O.O. . . . . . .O.O.O.O.O.O.",
"                        1 1 1 1 1 1 1 1 1  . . . . . . . . . . . . . . . .O.O.O.O.O.O.O.O.O.O.O.O.O.O.O. . . . . . .O.O.O.O.O.O.",
"                        1 1 1 1 1 1 1 1 1  . . . . . . . . . . . . . . . .O.O.O.O.O.O.O.O.O.O.O.O.O.O.O. . . . . . .O.O.O.O.O.O.",
"                  1 1 1 1 1 1 1 1 1 1 1 1  . . . . . . . . . . . . .O.O.O.O.O.O.O.O.O.O.O.O.O.O.O.O.O.O.O.O.O.O.O.O.O.O.O.O.O.O.",
"                  1 1 1 1 1 1 1 1 1 1 1 1  . . . . . . . . . . . . .O.O.O.O.O.O.O.O.O.O.O.O.O.O.O.O.O.O.O.O.O.O.O.O.O.O.O.O.O.O.",
"                  1 1 1 1 1 1 1 1 1 1 1 1  . . . . . . . . . . . . .O.O.O.O.O.O.C F F 6 6 i i f f O.O.O.O.O.O.O.O.O.O.O.O.O.O.O.",
"                  1 1 1 1 1 1  . . . . . . . . . . . .O.O.O.O.O.O.O.O.O.O.O.O.O.C F F 6 6 i i f f O.O.O.O.O.O.O.O.O.O.O.O.O.O.O.",
"                  1 1 1 1 1 1  . . . . . . . . . . . .O.O.O.O.O.O.O.O.O.O.O.n n @.-.-.&.&.*.*.%.%.c c X.X.O.O.O.O.O.O.O.O.O.O.O.",
"                  1 1 1 1 1 1  . . . . . . . . . . . .O.O.O.O.O.O.O.O.O.O.O.n n @.-.-.&.&.*.*.%.%.c c X.X.O.O.O.O.O.O.O.O.O.O.O.",
"                  1 1 1 1 1 1  . . . . . . . . . . . . . . . . . . .O.O.O.O.z z $.>.>.;.;.:.:.:.:.U U X.X.O.O.O.O.O.O.O.O.O.O.O.",
"                  1 1 1 1 1 1  . . . . . . . . . . . . . . . . . . .O.O.O.O.9 9 / #.#.,.,.=.=.[ [ > > x x ) ) ` _ _ _ _ _ _ _ _ ",
"                  1 1 1 1 1 1  . . . . . . . . . . . . . . . . . . .O.O.O.O.9 9 / #.#.,.,.=.=.[ [ > > x x ) ) ` _ _ _ _ _ _ _ _ ",
"                  1 1 1 1 1 1  . . . . . . . . . . . . . . . . . . .O.O.O.O.8 8 D ] ] +.+.{ { U U @ @ p p L L L L L L L L L L L ",
"                  1 1 1 1 1 1  . . . . . . . . . . . . . . . . . . .O.O.O.O.8 8 D ] ] +.+.{ { U U @ @ p p L L L L L L L L L L L ",
"                  1 1 1 1 1 1  . . . . . . . . . . . . . . . . . . .O.O.O.O.8 8 H ( ( Q Q Q Q W W * * V V A A Z Z Z Z Z Z Z Z Z ",
"                  1 1 1  . . . . . . . . . . . .O.O.O.O.O.O.O.O.O.O.O.O.O.O.8 8 H ( ( Q Q Q Q W W * * V V A A Z Z Z Z Z Z Z Z Z ",
"                  1 1 1  . . . . . . . . . . . .O.O.O.O.O.O.O.O.O.O.O.O.O.O.8 8 U U U 0 0 u u / / * * M M ' ' | | | | | | | | | ",
"                  1 1 1  . . . . . . . . . . . .O.O.O.O.O.O.O.O.O.O.O.O.O.O.8 8 U U U 0 0 u u / / * * M M ' ' | | | | | | | | | ",
"                  1 1 1  . . . . . . . . . . . .O.O.O.O.O.O.O.O.O.O.O.O.O.O.8 8 R a a . . * * / / @ @ u u H H R R R R R R R R R ",
"                  1 1 1  . . . . . . . . . . . .O.O.O.O.O.O.O.O.O.O.O.O.O.O.8 8 R a a . . * * / / @ @ u u H H R R R R R R R R R ",
"                  1 1 1  . . . . . . . . . . . .O.O.O.O.O.O.O.O.O.O.O.O.O.O.8 8 H u u X X * * b b @ @ > > > > > > > > > > > > > ",
"                  1 1 1  . . . . . . . . . . . .O.O.O. . . . . . . .O.O.O.O.8 8 H u u X X * * b b @ @ > > > > > > > > > > > > > ",
"                  1 1 1  . . . . . . . . . . . .O.O.O. . . . . . . .O.O.O.O.8 8 d 5 5 O O * * e e 5 5 k k l l l l l l l l l l l ",
"                  1 1 1  . . . . . . . . . . . .O.O.O. . . . . . . .O.O.O.O.8 8 d 5 5 O O * * e e 5 5 k k l l l l l l l l l l l ",
"                  1 1 1  . . . . . . . . . . . .O.O.O. . . . . . . .O.O.O.O.m m h u u O O * * a a g g o.o.O.O.O.O.O.O.O.O.O.O.O.",
"                  1 1 1  . . . . . . . . . . . .O.O.O. . . . . . . .O.O.O.O.O.O.S j j $ $ ; ; v v O.O.O.O.O.O.O.O.O.O.O.O.O.O.O.",
"                  1 1 1  . . . . . . . . . . . .O.O.O. . . . . . . .O.O.O.O.O.O.S j j $ $ ; ; v v O.O.O.O.O.O.O.O.O.O.O.O.O.O.O.",
"                  1 1 1  . . . . . . . . .O.O.O.O.O.O.O.O.O.O.O.O.O.O.O.O.O.O.O.O.V V w w 3 3 O.O.O.O.O.O.O.O.O.O.O.O.O.O.O.O.O.",
"                  1 1 1  . . . . . . . . .O.O.O.O.O.O.O.O.O.O.O.O.O.O.O.O.O.O.O.O.V V w w 3 3 O.O.O.O.O.O.O.O.O.O.O.O.O.O.O.O.O.",
"                  1 1 1  . . . . . . . . .O.O.O.O.O.O.O.O.O.O.O.O.O.O.O.O.O.O.O.O.V V q q 2 2 O.O.O.O.O.O.O.O.O.O.O.O.O.O.O.O.O.",
"                  1 1 1  . . . . . . . . .O.O.O.O.O.O.O.O.O.O.O.O.O.O.O.O.O.O.O.O.V V q q 2 2 O.O.O.O.O.O.O.O.O.O.O.O.O.O.O.O.O.",
"                  1 1 1  . . . . . . . . .O.O.O.O.O.O.O.O.O.O.O.O.O.O.O.O.O.O.O.O.V V q q 2 2 O.O.O.O.O.O.O.O.O.O.O.O.O.O.O.O.O.",
"                  1 1 1  . . . . . . . . .O.O.O.O.O.O.O.O.O.O.O.O.O.O.O.O.O.O.O.O.V V q q 2 2 O.O.O.O.O.O.O.O.O.O.O.O.O.O.O.O.O."
};
