/* XPM */
static char *result[] = {
/* columns rows colors chars-per-pixel */
"64 64 19 1 ",
"  c #245824",
". c #265A25",
"X c #275A25",
"o c #295B25",
"O c #385B2A",
"+ c #395B2A",
"@ c #467530",
"# c #467630",
"$ c #477731",
"% c #A96D5F",
"& c #AA6D5F",
"* c #AD6E61",
"= c #B16F63",
"- c #72943D",
"; c #74953E",
": c #AFC259",
"> c #527EA7",
", c #58A6D0",
"< c #B9D1E1",
/* pixels */
"::::::::::::::::::::::::::::::::::::::::::::::::::::::::::::::::",
"::::::::::::::::::::::::::::::::::::::::::::::::::::::::::::::::",
"::::::::::::::::::::::::::::::::::::::::::::::::::::::::::::::::",
"::::::::::::::::::::::::::::::::::::::::::::::::::::::::::::::::",
"::::::::::::::::::::::::::::::::::::::::::::::::::::::::::::::::",
"::::::::::::::::::::::::::::::::::::::::::::::::::::::::::::::::",
"::::::::::::::::::::::::::::::::::::::::::::::::::::::::::::::::",
"::::::::::::::::::::::::::::::::::::::::::::::::::::::::::::::::",
"::::::::::::::::::::::::::::::::::::::::::::::::::::::::::::::::",
"::::::::::::::::::::::::::::::::::::::::::::::::::::::::::::::::",
"::::::::::::::::::::::::::::::::::::::::::::::::::::::::::::::::",
"::::::::::::::::::::::::::::::::::::::::::::::::::::::::::::::::",
"::::::::::::::::::::::::::::::::::::::::::::::::::::::::::::::::",
"::::::::::::::::::::::::::::::::::::::::::::::::::::::::::::::::",
"::::::::::::::::::::::::::::::::::::::::::::::::::::::::::::::::",
"::::::::::::::::::::::::::::::::::::::::::::::::::::::::::::::::",
"::::::::::::::::::::::::::::::::::::::::::::::::::::::::::::::::",
"::::::::::::::::::::::::::::::::::::::::::::::::::::::::::::::::",
"::::::::::::::::::::::::::::::::::::::::::::::::::::::::::::::::",
"::::::::::::::::::::::::::::::::::::::::::::::::::::::::::::::::",
"::::::::::::::::::::::::::::::::::::::::::::::::::::::::::::::::",
"::::::::::::::::::::::::::::::::::::::::::::::::::::::::::::::::",
"::::::::::::::::::::::::::::::::::::::::::::::::::::::::::::::::",
"::::::::::::::::::::::::::::::::::::::::::::::::::::::::::::::::",
"::::::::::::::::::::::::::::::::::::::::;;;;::::::::::::::::::::",
"::::::::::::::::::::::::::::::::::::::::;;;;::::::::::::::::::::",
"::::::::::::::::::::::::::::::::::::::::;;;;::::::::::::::::::::",
"::::::::::::::::::::::::::::::::::::::::;;;;::::::::::::::::::::",
"::::::::;;;;::::;;;;;;;;;;;;::::::::;;;;;;;;::::::::;;;;::::::::",
"::::::::;;;;::::;;;;;;;;;;;;::::::::;;;;;;;;::::::::;;;;::::::::",
"::::::::;;;;::::;;;;;;;;;;;;::::::::;;;;;;;;::::::::;;;;::::::::",
"::::::::;;;;::::;;;;;;;;;;;;::::::::;;;;;;;;::::::::;;;;::::::::",
";;;;;;;;;;;;;;;;;;;;;;;;;;;;;;;;;;;;;;;;X..X;;;;;;;;;;;;;;;;;;;;",
";;;;;;;;;;;;;;;;;;;;;;;;;;;;;;;;;;;;;;;;....;;;;;;;;;;;;;;;;;;;;",
";;;;;;;;;;;;;;;;;;;;;;;;;;;;;;;;;;;;;;;;....;;;;;;;;;;;;;;;;;;;;",
";;;;;;;;;;;;;;;;;;;;;;;;;;;;;;;;;;;;;;;;....;;;;;;;;;;;;;;;;;;;;",
"....;;;;;;;;...X----;;;;;;;;....;;;;;;;;....;;;;;;;;...X....;;;;",
"....;;;;;;;;...X----;;;;;;;;....----;;;;....;;;;;;;;...X....;;;;",
"....;;;;;;;;....----;;;;;;;;....----;;;;....;;;;;;;;........;;;;",
"....;;;;;;;;....----;;;;;;;;...X----;;;;....;;;;;;;;XX.X....;;;;",
"....####$$$$....####$$$$$$$$....@@@@........@@@@$$$$........@@@@",
"....####$$$$oooo####$$$$$$$$oooo@@@@.....   @@@@$$$$........@@@@",
"....####$$$$oooo####$$$$$$$$oooo@@@@.....   @@@@$$$$........@@@@",
"....####$$$$oooo####$$$$$$$$oooo@@@@.....   @@@@$$$$........@@@@",
"****OOOO....&&&&OOOO........%%%%OOOO%%%%****++++....%%%%****++++",
"****OOOO....&&&&OOOO........%%%%OOOO%%%%****++++....%%%%****++++",
"****OOOO....&&&&OOOO........%%%%OOOO%%%%****++++....%%%%****++++",
"****OOOO....&&&&OOOO........%%%%OOOO%%%%****++++....%%%%****++++",
"====********====************====****========********========****",
"====********====************====****========********========****",
"====********====************====****========********========****",
"====********====************====****========********========****",
"<<<<<<<<<<<<<<<<<<<<<<<<<<<<<<<<<<<<<<<<<<<<<<<<<<<<<<<<<<<<<<<<",
"<<<<<<<<<<<<<<<<<<<<<<<<<<<<<<<<<<<<<<<<<<<<<<<<<<<<<<<<<<<<<<<<",
"<<<<<<<<<<<<<<<<<<<<<<<<<<<<<<<<<<<<<<<<<<<<<<<<<<<<<<<<<<<<<<<<",
"<<<<<<<<<<<<<<<<<<<<<<<<<<<<<<<<<<<<<<<<<<<<<<<<<<<<<<<<<<<<<<<<",
">>>>>>>>>>>>>>>>>>>>>>>>>>>>>>>>>>>>>>>>>>>>>>>>>>>>>>>>>>>>>>>>",
">>>>>>>>>>>>>>>>>>>>>>>>>>>>>>>>>>>>>>>>>>>>>>>>>>>>>>>>>>>>>>>>",
">>>>>>>>>>>>>>>>>>>>>>>>>>>>>>>>>>>>>>>>>>>>>>>>>>>>>>>>>>>>>>>>",
">>>>>>>>>>>>>>>>>>>>>>>>>>>>>>>>>>>>>>>>>>>>>>>>>>>>>>>>>>>>>>>>",
",,,,,,,,,,,,,,,,,,,,,,,,,,,,,,,,,,,,,,,,,,,,,,,,,,,,,,,,,,,,,,,,",
",,,,,,,,,,,,,,,,,,,,,,,,,,,,,,,,,,,,,,,,,,,,,,,,,,,,,,,,,,,,,,,,",
",,,,,,,,,,,,,,,,,,,,,,,,,,,,,,,,,,,,,,,,,,,,,,,,,,,,,,,,,,,,,,,,",
",,,,,,,,,,,,,,,,,,,,,,,,,,,,,,,,,,,,,,,,,,,,,,,,,,,,,,,,,,,,,,,,"
};
