/* XPM */
static char *_4662400c80045c6c3caa9276ed02535QMjahPLNbyqCtWJ6[] = {
/* columns rows colors chars-per-pixel */
"64 64 31 1 ",
"  c #265A25",
". c #295C26",
"X c #2E5E26",
"o c #3B5B2B",
"O c #346128",
"+ c #477731",
"@ c #4B7932",
"# c #4F7A32",
"$ c #527C33",
"% c #484043",
"& c #915C58",
"* c #A96D5F",
"= c #AD6E61",
"- c #77833D",
"; c #77843E",
": c #74953E",
"> c #789740",
", c #7A9940",
"< c #94A746",
"1 c #95A846",
"2 c #AFC259",
"3 c #527EA7",
"4 c #5C85AB",
"5 c #58A4CE",
"6 c #58A6D0",
"7 c #59A8D2",
"8 c #B4CBDB",
"9 c #B6CBDB",
"0 c #B7CCDC",
"q c #B4CEDF",
"w c #B9D1E1",
/* pixels */
"22222222222222222222222222222222222222222222--------%%%%qq006666",
"22222222222222222222222222222222222222222222--------%%%%00006666",
"22222222222222222222222222222222222222222222--------%%%%00006666",
"22222222222222222222222222222222222222222222--------%%%%00006666",
"222222222222222222222222222222222222222211111111;;;;%%%%00006666",
"222222222222222222222222222222222222222211111111;;;;%%%%00006666",
"222222222222222222222222222222222222222211111111;;;;%%%%00006666",
"222222222222222222222222222222222222222211111<<<;;;;%%%%00006666",
"222222222222222222222222222222222222222211111111;;;;%%%%00006666",
"222222222222222222222222222222222222222211111111;;;;%%%%00006666",
"222222222222222222222222222222222222222211111111;;;;%%%%00006666",
"222222222222222222222222222222222222222211111111;;;;%%%%00006666",
"2222222222222222222222222222222222222222222222221111%%%%00006666",
"2222222222222222222222222222222222222222222222221111%%%%00006666",
"2222222222222222222222222222222222222222222222221111%%%%000q6666",
"2222222222222222222222222222222222222222222222221111%%%%000q6666",
"2222222222222222222222222222222222222222111111111111%%%%00006666",
"2222222222222222222222222222222222222222111111111111%%%%00006666",
"2222222222222222222222222222222222222222111111111111%%%%00006666",
"2222222222222222222222222222222222222222111111111111%%%%00006666",
"2222222222222222222222222222222222222222111111111111%%%%00006666",
"2222222222222222222222222222222222222222111111111111%%%%00006666",
"2222222222222222222222222222222222222222111111111111%%%%00006666",
"2222222222222222222222222222222222222222111111111111%%%%00qq6666",
"22222222222222222222222222222222>>>>>>>>>>>>1111$$$$%%%%qq006666",
"22222222222222222222222222222222>>>>>>>>>>>>1111$$$$%%%%00006666",
"22222222222222222222222222222222>>>>>>>>>>>>1111$$$$%%%%00006666",
"22222222222222222222222222222222>>>>>>>>>>>>1111$$$$%%%%00006666",
"2222>>>>>>>>22222222>>>>2222>>>>>>>>>>>>>>>>####....%%%%00006666",
"2222>>>>>>>>22222222>>>>2222>>>>>>>>>>>>>>>>####....%%%%00006666",
"2222>>>>>>>>22222222>>>>2222>>>>>>>>>>>>>>>>####....%%%%00006666",
"2222>>>>>>>>22222222>>>>2222>>>>>>>>>>>>>>>>####....%%%%00006666",
">>>>>>>>>>>>>>>>>>>>>>>>>>>>>>>>>>>>>>>>@@@@....&&&&%%%%00006666",
">>>>>>>>>>>>>>>>>>>>>>>>>>>>>>>>>>>>>>>>@@@@....&&&&%%%%00006666",
">>>>>>>>>>>>>>>>>>>>>>>>>>>>>>>>>>>>>>>>@@@@....&&&&%%%%00006666",
",>>>>>>>>>>>>>>>>>>>>>>>>>>>>>>>>>>>>>>>@@@@....&&&&%%%%00006666",
"####>>>>>>>>>>>>@@@@>>>>OOOO++++++++XXXX    &&&&&&&&%%%%00006666",
"####>>>>>>>>>>>>@@@@>>>>OOOO++++++++XXXX    &&&&&&&&%%%%00006666",
"####>>>>>>>>>>>>@@@@>>>>OOOO++++++++XXXX    &&&&&&&&%%%%000q6666",
"####>>>>>>>>>>>:@@@@>>>>OOOO++++++++XXXX    &&&&&&&&%%%%000q6666",
"    ++++++++++++....++++            &&&&&&&&&&&&&&&&999944446666",
"    ++++++++++++....++++            &&&&&&&&&&&&&&&&999944446666",
"    ++++++++++++....++++            &&&&&&&&&&&&&&&&999944446666",
"    ++++++++++++....++++            &&&&&&&&&&&&&&&&999944446666",
"****oooo        ****oooo****************&&&&&&&&9999444466666666",
"****oooo        ****oooo****************&&&&&&&&9999444466666666",
"****oooo        ****oooo****************&&&&&&&&9999444466666666",
"=***oooo        ****oooo****************&&&&&&&&9999444466666666",
"****************************************0000wwww4444666666666666",
"****************************************0000wwww4444666666666666",
"****************************************0000wwww4444666666666666",
"****************************************0000wwww4444666666666666",
"wwwwwwwwwwwwwwwwwwwwwwwwwwwwwwwwwwwwwwww333333336666666666666666",
"wwwwwwwwwwwwwwwwwwwwwwwwwwwwwwwwwwwwwwww333333336666677777777777",
"wwwwwwwwwwwwwwwwwwwwwwwwwwwwwwwwwwwwwwww333333336666677777777777",
"wwwwwwwwwwwwwwwwwwwwwwwwwwwwwwwwwwwwwwww333333336666677777777777",
"3333333333333333333333333333333333333333666666666666666666666666",
"3333333333333333333333333333333333333333666666666666666666666666",
"3333333333333333333333333333333333333333666666666666666666666666",
"3333333333333333333333333333333333333333666566667777777777777666",
"6666666666666666666666666666666666666666666666666666666666666666",
"6666666666666666666666666666666666666666666666666666666666666666",
"6666666666666666666666666666666666666666666666666666666666666666",
"6666666666666666666666666666666666666666666666666666666666666666"
};
