/* XPM */
static char *e3d4c8b731674b4499ba5838009f90e9xHt2kQjqAdcBAAVi[] = {
/* columns rows colors chars-per-pixel */
"64 64 4 1 ",
"  c None",
". c #78A158",
"X c #A4C263",
"o c #C0D470",
/* pixels */
"oooooooooooooooooooooooooooooooooooooooooooooooooooooooooooooooo",
"oooooooooooooooooooooooooooooooooooooooooooooooooooooooooooooooo",
"oooooooooooooooooooooooooooooooooooooooooooooooooooooooooooooooo",
"oooooooooooooooooooooooooooooooooooooooooooooooooooooooooooooooo",
"oooooooooooooooooooooooooooooooooooooooooooooooooooooooooooooooo",
"oooooooooooooooooooooooooooooooooooooooooooooooooooooooooooooooo",
"oooooooooooooooooooooooooooooooooooooooooooooooooooooooooooooooo",
"oooooooooooooooooooooooooooooooooooooooooooooooooooooooooooooooo",
"oooooooooooooooooooooooooooooooooooooooooooooooooooooooooooooooo",
"oooooooooooooooooooooooooooooooooooooooooooooooooooooooooooooooo",
"oooooooooooooooooooooooooooooooooooooooooooooooooooooooooooooooo",
"oooooooooooooooooooooooooooooooooooooooooooooooooooooooooooooooo",
"oooooooooooooooooooooooooooooooooooooooooooooooooooooooooooooooo",
"oooooooooooooooooooooooooooooooooooooooooooooooooooooooooooooooo",
"oooooooooooooooooooooooooooooooooooooooooooooooooooooooooooooooo",
"oooooooooooooooooooooooooooooooooooooooooooooooooooooooooooooooo",
"oooooooooooooooooooooooooooooooooooooooooooooooooooooooooooooooo",
"oooooooooooooooooooooooooooooooooooooooooooooooooooooooooooooooo",
"oooooooooooooooooooooooooooooooooooooooooooooooooooooooooooooooo",
"oooooooooooooooooooooooooooooooooooooooooooooooooooooooooooooooo",
"oooooooooooooooooooooooooooooooooooooooooooooooooooooooooooooooo",
"oooooooooooooooooooooooooooooooooooooooooooooooooooooooooooooooo",
"oooooooooooooooooooooooooooooooooooooooooooooooooooooooooooooooo",
"oooooooooooooooooooooooooooooooooooooooooooooooooooooooooooooooo",
"oooooooooooooooooooooooooooooooooooooooooooooooooooooooooooooooo",
"oooooooooooooooooooooooooooooooooooooooooooooooooooooooooooooooo",
"oooooooooooooooooooooooooooooooooooooooooooooooooooooooooooooooo",
"oooooooooXXXoooooooooooooooooooooooooooooooooooooXXXXXXooooooooo",
"oooooooooXXXoooooooooooooooooooooooooooooooooooooXXXXXXooooooooo",
"oooooooooXXXoooooooooooooooooooooooooooooooooooooXXXXXXooooooooo",
"oooooooooooooooooooooooooooooooooooooooooooooooooooooooooooooooo",
"oooooooooooooooooooooooooooooooooooooooooooooooooooooooooooooooo",
"oooooooooooooooooooooooooooooooooooooooooooooooooooooooooooooooo",
"oooooooooooooooooooooooooooooooooooooooooooooooooooooooooooooooo",
"ooooooooooooooooooooooooXXXXXXoooooooooooooooooooooooooooooooooo",
"ooooooooooooooooooooooooXXXXXXoooooooooooooooooooooooooooooooooo",
"ooooooooooooooooooooooooXXXXXXoooooooooooooooooooooooooooooooooo",
"ooooooooooooooooooooooooXXXXXXoooooooooooooooooooooooooooooooooo",
"ooooooooooooooooooooooooXXXXXXoooooooooooooooooooooooooooooooooo",
"ooooooooooooooooooooooooXXXXXXoooooooooooooooooooooooooooooooooo",
"ooooooooooooXXXXXXoooooooooooooooooooooooooXXXoooooooooXXXoooooo",
"ooooooooooooXXXXXXoooooooooooooooooooooooooXXXoooooooooXXXoooooo",
"ooooooooooooXXXXXXoooooooooooooooooooooooooXXXoooooooooXXXoooooo",
"oooooooooXXXXXXXXXXXXXXXoooooooooooooXXXXXXXXXXXXXXXXXXXXXXXXooo",
"oooooooooXXXXXXXXXXXXXXXoooooooooooooXXXXXXXXXXXXXXXXXXXXXXXXooo",
"oooooooooXXXXXXXXXXXXXXXoooooooooooooXXXXXXXXXXXXXXXXXXXXXXXXooo",
"XXXXXXXXXXXXXXXXXXXXXXXXXXXXXXXXXXXXXXXXXXXXXXXXXXXXXXXXXXXXXXXX",
"XXXXXXXXXXXXXXXXXXXXXXXXXXXXXXXXXXXXXXXXXXXXXXXXXXXXXXXXXXXXXXXX",
"XXXXXXXXXXXXXXXXXXXXXXXXXXXXXXXXXXXXXXXXXXXXXXXXXXXXXXXXXXXXXXXX",
"XXXXXXXXXXXXXXXXXXXXXXXXXXXXXXXXXXXXXXXXXXXXXXXXXXXXXXXXXXXXXXXX",
"XXXXXXXXXXXXXXXXXXXXXXXXXXXXXXXXXXXXXXXXXXXXXXXXXXXXXXXXXXXXXXXX",
"XXXXXXXXXXXXXXXXXXXXXXXXXXXXXXXXXXXXXXXXXXXXXXXXXXXXXXXXXXXXXXXX",
"XXXXXXXXX............XXXXXXXXXXXXXXXXXXXXXX............XXXXXXXXX",
"XXXXXXXXX............XXXXXXXXXXXXXXXXXXXXXX............XXXXXXXXX",
"XXXXXXXXX............XXXXXXXXXXXXXXXXXXXXXX............XXXXXXXXX",
"................................................................",
"................................................................",
"................................................................",
"                                                                ",
"                                                                ",
"                                                                ",
"                                                                ",
"                                                                ",
"                                                                "
};
