/* XPM */
static char *d90d94600e3f49cb93e4f90fdc2b692cCe907mk819h8jL6P[] = {
/* columns rows colors chars-per-pixel */
"64 64 9 1 ",
"  c #737F3D",
". c #484043",
"X c #75803D",
"o c #91A345",
"O c #93A545",
"+ c #95A846",
"@ c #AFC259",
"# c #59A8D2",
"$ c #B4D1E4",
/* pixels */
"################################################################",
"################################################################",
"################################################################",
"################################################################",
"############################................####........########",
"############################................####........########",
"############################................####........########",
"############################................####........########",
"####################........@@@@@@@@@@@@@@@@....@@@@@@@@........",
"####################........@@@@@@@@@@@@@@@@....@@@@@@@@........",
"####################........@@@@@@@@@@@@@@@@....@@@@@@@@........",
"####################........@@@@@@@@@@@@@@@@....@@@@@@@@........",
"################....oooo@@@@@@@@@@@@@@@@@@@@@@@@@@@@@@@@@@@@@@@@",
"################....oooo@@@@@@@@@@@@@@@@@@@@@@@@@@@@@@@@@@@@@@@@",
"################....oooo@@@@@@@@@@@@@@@@@@@@@@@@@@@@@@@@@@@@@@@@",
"################....oooo@@@@@@@@@@@@@@@@@@@@@@@@@@@@@@@@@@@@@@@@",
"############....oooo@@@@@@@@@@@@@@@@@@@@@@@@@@@@@@@@@@@@@@@@@@@@",
"############....oooo@@@@@@@@@@@@@@@@@@@@@@@@@@@@@@@@@@@@@@@@@@@@",
"############....oooo@@@@@@@@@@@@@@@@@@@@@@@@@@@@@@@@@@@@@@@@@@@@",
"############....oooo@@@@@@@@@@@@@@@@@@@@@@@@@@@@@@@@@@@@@@@@@@@@",
"############....OOOO@@@@@@@@@@@@@@@@@@@@@@@@@@@@@@@@@@@@@@@@@@@@",
"############....OOOO@@@@@@@@@@@@@@@@@@@@@@@@@@@@@@@@@@@@@@@@@@@@",
"############....OOOO@@@@@@@@@@@@@@@@@@@@@@@@@@@@@@@@@@@@@@@@@@@@",
"############....OOOO@@@@@@@@@@@@@@@@@@@@@@@@@@@@@@@@@@@@@@@@@@@@",
"########....oooo++++@@@@@@@@@@@@@@@@@@@@@@@@@@@@@@@@@@@@@@@@@@@@",
"########....oooo++++@@@@@@@@@@@@@@@@@@@@@@@@@@@@@@@@@@@@@@@@@@@@",
"########....oooo++++@@@@@@@@@@@@@@@@@@@@@@@@@@@@@@@@@@@@@@@@@@@@",
"########....oooo++++@@@@@@@@@@@@@@@@@@@@@@@@@@@@@@@@@@@@@@@@@@@@",
"####$$$$....OOOO++++@@@@@@@@@@@@@@@@@@@@@@@@@@@@@@@@@@@@@@@@@@@@",
"####$$$$....OOOO++++@@@@@@@@@@@@@@@@@@@@@@@@@@@@@@@@@@@@@@@@@@@@",
"####$$$$....OOOO++++@@@@@@@@@@@@@@@@@@@@@@@@@@@@@@@@@@@@@@@@@@@@",
"####$$$$....OOOO++++@@@@@@@@@@@@@@@@@@@@@@@@@@@@@@@@@@@@@@@@@@@@",
"####$$$$....OOOO++++++++@@@@@@@@@@@@@@@@@@@@@@@@@@@@@@@@@@@@@@@@",
"####$$$$....OOOO++++++++@@@@@@@@@@@@@@@@@@@@@@@@@@@@@@@@@@@@@@@@",
"####$$$$....OOOO++++++++@@@@@@@@@@@@@@@@@@@@@@@@@@@@@@@@@@@@@@@@",
"####$$$$....OOOO++++++++@@@@@@@@@@@@@@@@@@@@@@@@@@@@@@@@@@@@@@@@",
"####$$$$....XXXXXXXX@@@@@@@@@@@@@@@@@@@@@@@@@@@@@@@@@@@@@@@@@@@@",
"####$$$$....XXXXXXXX@@@@@@@@@@@@@@@@@@@@@@@@@@@@@@@@@@@@@@@@@@@@",
"####$$$$....XXXXXXXX@@@@@@@@@@@@@@@@@@@@@@@@@@@@@@@@@@@@@@@@@@@@",
"####$$$$....XXXXXXXX@@@@@@@@@@@@@@@@@@@@@@@@@@@@@@@@@@@@@@@@@@@@",
"####$$$$....    @@@@@@@@@@@@@@@@@@@@@@@@@@@@@@@@@@@@@@@@@@@@@@@@",
"####$$$$....    @@@@@@@@@@@@@@@@@@@@@@@@@@@@@@@@@@@@@@@@@@@@@@@@",
"####$$$$....    @@@@@@@@@@@@@@@@@@@@@@@@@@@@@@@@@@@@@@@@@@@@@@@@",
"####$$$$....    @@@@@@@@@@@@@@@@@@@@@@@@@@@@@@@@@@@@@@@@@@@@@@@@",
"####$$$$....    @@@@@@@@@@@@@@@@@@@@@@@@@@@@@@@@@@@@@@@@@@@@@@@@",
"####$$$$....    @@@@@@@@@@@@@@@@@@@@@@@@@@@@@@@@@@@@@@@@@@@@@@@@",
"####$$$$....    @@@@@@@@@@@@@@@@@@@@@@@@@@@@@@@@@@@@@@@@@@@@@@@@",
"####$$$$....    @@@@@@@@@@@@@@@@@@@@@@@@@@@@@@@@@@@@@@@@@@@@@@@@",
"####$$$$....OOOO@@@@@@@@@@@@@@@@@@@@@@@@@@@@@@@@@@@@@@@@@@@@@@@@",
"####$$$$....OOOO@@@@@@@@@@@@@@@@@@@@@@@@@@@@@@@@@@@@@@@@@@@@@@@@",
"####$$$$....OOOO@@@@@@@@@@@@@@@@@@@@@@@@@@@@@@@@@@@@@@@@@@@@@@@@",
"####$$$$....OOOO@@@@@@@@@@@@@@@@@@@@@@@@@@@@@@@@@@@@@@@@@@@@@@@@",
"####$$$$....OOOO++++++++++++@@@@@@@@@@@@@@@@@@@@@@@@@@@@@@@@@@@@",
"####$$$$....OOOO++++++++++++@@@@@@@@@@@@@@@@@@@@@@@@@@@@@@@@@@@@",
"####$$$$....OOOO++++++++++++@@@@@@@@@@@@@@@@@@@@@@@@@@@@@@@@@@@@",
"####$$$$....OOOO++++++++++++@@@@@@@@@@@@@@@@@@@@@@@@@@@@@@@@@@@@",
"####$$$$....OOOO++++@@@@@@@@@@@@@@@@@@@@@@@@@@@@@@@@@@@@@@@@@@@@",
"####$$$$....OOOO++++@@@@@@@@@@@@@@@@@@@@@@@@@@@@@@@@@@@@@@@@@@@@",
"####$$$$....OOOO++++@@@@@@@@@@@@@@@@@@@@@@@@@@@@@@@@@@@@@@@@@@@@",
"####$$$$....OOOO++++@@@@@@@@@@@@@@@@@@@@@@@@@@@@@@@@@@@@@@@@@@@@",
"####$$$$....OOOO++++++++++++@@@@@@@@@@@@@@@@@@@@@@@@@@@@@@@@@@@@",
"####$$$$....OOOO++++++++++++@@@@@@@@@@@@@@@@@@@@@@@@@@@@@@@@@@@@",
"####$$$$....OOOO++++++++++++@@@@@@@@@@@@@@@@@@@@@@@@@@@@@@@@@@@@",
"####$$$$....OOOO++++++++++++@@@@@@@@@@@@@@@@@@@@@@@@@@@@@@@@@@@@"
};
