/* XPM */
static char *_945a38b59f14e369194ee938ea2b3c8maF1wQBZcKKTVGiP[] = {
/* columns rows colors chars-per-pixel */
"64 64 14 1 ",
"  c #484043",
". c #76823D",
"X c #7A863F",
"o c #7B883F",
"O c #95A846",
"+ c #97AA47",
"@ c #98AB48",
"# c #AFC259",
"$ c #58A4CD",
"% c #59A8D2",
"& c #63ABD3",
"* c #B2CDDE",
"= c #B4CEDF",
"- c #B6D2E4",
/* pixels */
"%%%%%%%%%%%%%%%%%%%%%%%%%%%%%%%%%%%%%%%%%%%%%%%%%%%%%%%%%%%%%%%%",
"%%%%%%%%%%%%%%%%%%%%%%%%%%%%%%%%%%%%%%%%%%%%%%%%%%%%%%%%%%%%%%%%",
"%%%%%%%%%%%%%%%%%%%%%%%%%%%%%%%%%%%%%%%%%%%%%%%%%%%%%%%%%%%%%%%%",
"%%%%%%%%%%%%%%%%%%%%%%%%%%%%%%%%%%%%%%%%%%%%%%%%%%%%%%%%%%%%%%%%",
"%%%%        $$$$                    $$$$%%%%%%%%%%%%%%%%%%%%%%%%",
"%%%%        $$$$                    $$$$%%%%%%%%%%%%%%%%%%%%%%%%",
"%%%%        $$$$                    $$$$%%%%%%%%%%%%%%%%%%%%%%%%",
"%%%%        $$$$                    $$$$%%%%%%%%%%%%%%%%%%%%%%%%",
"    ########    ####################        $$$$%%%%%%%%%%%%%%%%",
"    ########    ####################        $$$$%%%%%%%%%%%%%%%%",
"    ########    ####################        $$$$%%%%%%%%%%%%%%%%",
"    ########    ####################        $$$$%%%%%%%%%%%%%%%%",
"########################################OOOO    $$$$%%%%%%%%%%%%",
"########################################OOOO    $$$$%%%%%%%%%%%%",
"########################################OOOO    $$$$%%%%%%%%%%%%",
"########################################OOOO    $$$$%%%%%%%%%%%%",
"############################################OOOO    $$$$%%%%%%%%",
"############################################OOOO    $$$$%%%%%%%%",
"############################################OOOO    $$$$%%%%%%%%",
"############################################OOOO    $$$$%%%%%%%%",
"############################################OOOO    $$$$%%%%%%%%",
"############################################OOOO    $$$$%%%%%%%%",
"############################################OOOO    $$$$%%%%%%%%",
"############################################OOOO    $$$$%%%%%%%%",
"############################################OOOOOOOO    $$$$%%%%",
"############################################OOOOOOOO    $$$$%%%%",
"############################################OOOOOOOO    $$$$%%%%",
"############################################OOOOOOOO    $$$$%%%%",
"########################################OOOOOOOOOOOO    ****&&&&",
"########################################OOOOOOOOOOOO    ****&&&&",
"########################################OOOOOOOOOOOO    ****&&&&",
"########################################OOOOOOOOOOOO    ****&&&&",
"############################################oooo....    ====&&&&",
"############################################oooo....    ====&&&&",
"############################################oooo....    ====&&&&",
"############################################oooo....    ====&&&&",
"################################################XXXX    ====&&&&",
"################################################XXXX    ====&&&&",
"################################################XXXX    ====&&&&",
"################################################XXXX    ====&&&&",
"################################################XXXX    ====&&&&",
"################################################XXXX    ====&&&&",
"################################################XXXX    ====&&&&",
"################################################XXXX    ====&&&&",
"################################################OOOO    ====&&&&",
"################################################OOOO    ====&&&&",
"################################################OOOO    ====&&&&",
"################################################OOOO    ====&&&&",
"########################################OOOOOOOOOOOO    ====&&&&",
"########################################OOOOOOOOOOOO    ====&&&&",
"########################################OOOOOOOOOOOO    ====&&&&",
"########################################OOOOOOOOOOOO    ====&&&&",
"########################################OOOOOOOOOOOO    ====&&&&",
"########################################OOOOOOOOOOOO    ====&&&&",
"########################################OOOOOOOOOOOO    ====&&&&",
"########################################OOOOOOOOOOOO    ====&&&&",
"################################################OOOO    ====&&&&",
"################################################OOOO    ====&&&&",
"################################################OOOO    ====&&&&",
"################################################OOOO    ====&&&&",
"########################################OOOOOOOOOOOO    ----&&&&",
"########################################OOOOOOOOOOOO    ----&&&&",
"########################################OOOOOOOOOOOO    ----&&&&",
"########################################@OOOOOOOOOOO    ----&&&&"
};
