/* XPM */
static char *_65b7cab1660428ec5bc166bb68507590MLXnrqFmLBI6mpO[] = {
/* columns rows colors chars-per-pixel */
"64 64 188 2 ",
"   c None",
".  c #A77657",
"X  c #A67757",
"o  c #A97758",
"O  c #A97858",
"+  c #AA7959",
"@  c #AB7959",
"#  c #AA7A59",
"$  c #AA7B59",
"%  c #AB7B59",
"&  c #AB7A5A",
"*  c #AD7A5B",
"=  c #AE7B5A",
"-  c #AE7B5B",
";  c #AA7C59",
":  c #AA7C5A",
">  c #AB7C5A",
",  c #AB7E5A",
"<  c #AE7C5A",
"1  c #AE7C5B",
"2  c #AE7D5B",
"3  c #AF7D5B",
"4  c #AC7F5A",
"5  c #AC7E5B",
"6  c #AF7B5C",
"7  c #AF7C5C",
"8  c #AE7D5C",
"9  c #AF7D5C",
"0  c #AF7E5C",
"q  c #AE7F5C",
"w  c #B07C5C",
"e  c #B07D5C",
"r  c #B17D5C",
"t  c #B07E5C",
"y  c #B17E5C",
"u  c #B17E5D",
"i  c #B17F5D",
"p  c #B27E5C",
"a  c #B27F5D",
"s  c #B27F5E",
"d  c #78A158",
"f  c #AB805A",
"g  c #AB815A",
"h  c #AC815A",
"j  c #AE815B",
"k  c #AF805C",
"l  c #AF805D",
"z  c #B0805B",
"x  c #B1805D",
"c  c #B2805D",
"v  c #B0815E",
"b  c #B1815E",
"n  c #B3815E",
"m  c #B1825E",
"M  c #B2835E",
"N  c #B6825F",
"B  c #B3845F",
"V  c #B5875E",
"C  c #B1895E",
"Z  c #B68D5F",
"A  c #AD955D",
"S  c #B3925E",
"D  c #B4915D",
"F  c #B78460",
"G  c #B88762",
"H  c #B58860",
"J  c #B58861",
"K  c #B78863",
"L  c #BB8862",
"P  c #BA8863",
"I  c #BD8963",
"U  c #BF8A65",
"Y  c #BF8C65",
"T  c #BD8E65",
"R  c #BA9164",
"E  c #B99264",
"W  c #BD9267",
"Q  c #BC9864",
"!  c #BD9368",
"~  c #BE9368",
"^  c #BE9468",
"/  c #BF9868",
"(  c #BF9869",
")  c #B8A765",
"_  c #B7A866",
"`  c #B8A965",
"'  c #B8A866",
"]  c #BAB26B",
"[  c #B9B568",
"{  c #BBB668",
"}  c #BBB768",
"|  c #BCB768",
" . c #B8BA68",
".. c #B8BB68",
"X. c #BBBB68",
"o. c #C18C66",
"O. c #C18F66",
"+. c #C18E67",
"@. c #C28E67",
"#. c #C38E67",
"$. c #C38F67",
"%. c #C48F68",
"&. c #C09065",
"*. c #C09566",
"=. c #C39068",
"-. c #C49068",
";. c #C49169",
":. c #C59169",
">. c #C49268",
",. c #C59269",
"<. c #C6926A",
"1. c #C6936A",
"2. c #C7936A",
"3. c #C0956A",
"4. c #C2976B",
"5. c #C49469",
"6. c #C5946A",
"7. c #C6946A",
"8. c #C1986B",
"9. c #C1996B",
"0. c #C3996B",
"q. c #C49A6A",
"w. c #C19C68",
"e. c #C4996C",
"r. c #C49B6D",
"t. c #C59B6D",
"y. c #C49C6D",
"u. c #C59C6D",
"i. c #C49D6D",
"p. c #C59D6D",
"a. c #C69C6D",
"s. c #C59E6D",
"d. c #C69C6E",
"f. c #C69D6E",
"g. c #C69D6F",
"h. c #C59E6E",
"j. c #C69E6E",
"k. c #C69E6F",
"l. c #C69F6F",
"z. c #C5A16E",
"x. c #C6A16E",
"c. c #CFAB7F",
"v. c #D1A67B",
"b. c #D0AA7A",
"n. c #A4C263",
"m. c #BBC56B",
"M. c #BDC66D",
"N. c #BCC96B",
"B. c #BCC96C",
"V. c #BECA6E",
"C. c #BDCC6D",
"Z. c #BDCC6E",
"A. c #BECC6E",
"S. c #BECD6E",
"D. c #BECF6E",
"F. c #BFCE6F",
"G. c #BFCF6F",
"H. c #BFD06F",
"J. c #BFD16F",
"K. c #BFD26F",
"L. c #BFD36F",
"P. c #C0C76E",
"I. c #C0C96F",
"U. c #C0CA6E",
"Y. c #C0CA6F",
"T. c #C0CC6F",
"R. c #C0CE6F",
"E. c #C1CE6F",
"W. c #C0CF6F",
"Q. c #C0D06F",
"!. c #C0D16F",
"~. c #C0D26F",
"^. c #C0CF70",
"/. c #C1CF70",
"(. c #C0D070",
"). c #C0D170",
"_. c #C1D170",
"`. c #C0D270",
"'. c #C1D270",
"]. c #C0D370",
"[. c #C0D470",
"{. c #D3AF82",
"}. c #D7AC80",
"|. c #E4C99F",
" X c #E8CDA4",
".X c #E9D0A7",
"XX c #EBD5AC",
"oX c #EED7AF",
/* pixels */
"                                                                                                                                ",
"                                                                                                                                ",
"                                                                                                                                ",
"                                                                                                                                ",
"                                                                                                                                ",
"                                                                                                                                ",
"                                                                                                                                ",
"                                                                                                                                ",
"                                                                                                                                ",
"d d d d d d d d d d d d d d d d d d d d d d d d d d d d d d d d d d d d d d d d d d d d d d d d d d d d d d d d d d d d d d d d ",
"d d d d d d d d d d d d d d d d d d d d d d d d d d d d d d d d d d d d d d d d d d d d d d d d d d d d d d d d d d d d d d d d ",
"d d d d d d d d d d d d d d d d d d d d d d d d d d d d d d d d d d d d d d d d d d d d d d d d d d d d d d d d d d d d d d d d ",
"n.n.n.n.n.n.n.n.n.n.n.n.d d d d d d d d d d d d n.n.n.n.n.n.n.n.n.n.n.n.n.n.n.n.n.n.n.n.n.n.d d d d d d d d d n.n.n.n.n.n.n.n.n.",
"n.n.n.n.n.n.n.n.n.n.n.n.d d d d d d d d d d d d n.n.n.n.n.n.n.n.n.n.n.n.n.n.n.n.n.n.n.n.n.n.d d d d d d d d d n.n.n.n.n.n.n.n.n.",
"n.n.n.n.n.n.n.n.n.n.n.n.d d d d d d d d d d d d n.n.n.n.n.n.n.n.n.n.n.n.n.n.n.n.n.n.n.n.n.n.d d d d d d d d d n.n.n.n.n.n.n.n.n.",
"n.n.n.n.n.n.n.n.n.n.n.n.n.n.n.n.n.n.n.n.n.n.n.n.n.n.n.n.n.n.n.n.n.n.n.n.n.n.n.n.n.n.n.n.n.n.n.n.n.n.n.n.n.n.n.n.n.n.n.n.n.n.n.n.",
"n.n.n.n.n.n.n.n.n.n.n.n.n.n.n.n.n.n.n.n.n.n.n.n.n.n.n.n.n.n.n.n.n.n.n.n.n.n.n.n.n.n.n.n.n.n.n.n.n.n.n.n.n.n.n.n.n.n.n.n.n.n.n.n.",
"n.n.n.n.n.n.n.n.n.n.n.n.n.n.n.n.n.n.n.n.n.n.n.n.n.n.n.n.n.n.n.n.n.n.n.n.n.n.n.n.n.n.n.n.n.n.n.n.n.n.n.n.n.n.n.n.n.n.n.n.n.n.n.n.",
"n.n.n.n.n.n.n.n.n.n.n.n.n.n.n.n.n.n.n.n.n.n.n.n.n.n.n.n.n.n.n.n.n.n.n.n.n.n.n.n.n.n.n.n.n.n.n.n.n.n.n.n.n.n.n.n.n.n.n.n.n.n.n.n.",
"n.n.n.n.n.n.n.n.n.n.n.n.n.n.n.n.n.n.n.n.n.n.n.n.n.n.n.n.n.n.n.n.n.n.n.n.n.n.n.n.n.n.n.n.n.n.n.n.n.n.n.n.n.n.n.n.n.n.n.n.n.n.n.n.",
"n.n.n.n.n.n.n.n.n.n.n.n.n.n.n.n.n.n.n.n.n.n.n.n.n.n.n.n.n.n.n.n.n.n.n.n.n.n.n.n.n.n.n.n.n.n.n.n.n.n.n.n.n.n.n.n.n.n.n.n.n.n.n.n.",
"[.[.[.[.[.[.n.n.n.n.n.n.n.n.n.n.n.n.n.n.n.n.n.n.n.n.n.n.n.n.n.n.n.n.[.[.[.n.n.n.n.n.n.n.n.n.n.n.n.n.n.n.n.n.n.n.n.n.[.[.[.[.[.[.",
"[.[.[.[.[.[.n.n.n.n.n.n.n.n.n.n.n.n.n.n.n.n.n.n.n.n.n.n.n.n.n.n.n.n.[.[.[.n.n.n.n.n.n.n.n.n.n.n.n.n.n.n.n.n.n.n.n.n.[.[.[.[.[.[.",
"[.[.[.[.[.[.n.n.n.n.n.n.n.n.n.n.n.n.n.n.n.n.n.n.n.n.n.n.n.n.n.n.n.n.[.[.[.n.n.n.n.n.n.n.n.n.n.n.n.n.n.n.n.n.n.n.n.n.[.[.[.[.[.[.",
"[.[.[.[.[.[.[.[.[.[.[.[.[.[.[.[.[.[.n.n.n.[.[.[.[.[.[.[.[.[.n.n.n.n.[.[.[.[.[.[.[.[.[.n.n.n.[.[.[.[.[.[.[.[.[.[.[.[.[.[.[.[.[.[.",
"[.[.[.[.[.[.[.[.[.[.[.[.[.[.[.[.[.[.n.n.n.[.[.[.[.[.[.[.[.[.n.n.n.n.[.[.[.[.[.[.[.[.[.n.n.n.[.[.[.[.[.[.[.[.[.[.[.[.[.[.[.[.[.[.",
"[.[.[.[.[.[.[.[.[.[.[.[.[.[.[.[.[.[.n.n.n.[.[.[.[.[.[.[.[.[.n.n.n.n.[.[.[.[.[.[.[.[.[.n.n.n.[.[.[.[.[.[.[.[.[.[.[.[.[.[.[.[.[.[.",
"[.[.[.[.[.[.[.[.[.n.n.n.[.[.[.[.[.[.[.[.[.[.[.[.[.[.[.[.[.[.[.[.[.[.[.[.[.[.[.[.[.[.[.[.[.[.[.[.[.[.[.[.[.[.[.n.n.n.[.[.[.[.[.[.",
"[.[.[.[.[.[.[.[.[.n.n.n.[.[.[.[.[.[.[.[.[.[.[.[.[.[.[.[.[.[.[.[.[.[.[.[.[.[.[.[.[.[.[.[.[.[.[.[.[.[.[.[.[.[.[.n.n.n.[.[.[.[.[.[.",
"[.[.[.[.[.[.[.[.[.n.n.n.[.[.[.[.[.[.[.[.[.[.[.[.[.[.[.[.[.[.[.[.[.[.[.[.[.[.[.[.[.[.[.[.[.[.[.[.[.[.[.[.[.[.[.n.n.n.[.[.[.[.[.[.",
"[.[.[.[.[.[.[.[.[.n.n.n.[.[.[.[.[.[.[.[.[.[.[.[.[.[.[.[.[.[.[.[.[.[.[.[.[.[.[.[.[.[.[.[.[.[.[.[.[.[.[.[.[.[.[.n.n.n.[.[.[.[.[.[.",
"[.[.[.[.[.[.[.[.[.n.n.n.[.[.[.[.[.[.[.[.[.[.[.[.[.[.[.[.[.[.[.[.[.[.[.[.[.[.[.[.[.[.[.[.[.[.[.[.[.[.[.[.[.[.[.n.n.n.[.[.[.[.[.[.",
"[.[.[.[.[.[.[.[.[.n.n.n.[.[.[.[.[.[.[.[.[.[.[.[.[.[.[.[.[.[.[.[.[.[.[.[.[.[.[.[.[.[.[.[.[.[.[.[.[.[.[.[.[.[.[.n.n.n.[.[.[.[.[.[.",
"[.[.[.[.[.[.[.[.[.n.n.n.[.[.[.[.[.[.[.[.[.[.[.[.[.[.[.[.[.[.[.[.[.[.[.[.[.[.[.[.[.[.[.[.[.[.[.[.[.[.[.[.[.[.[.n.n.n.[.[.[.[.[.[.",
"[.[.[.[.[.[.[.[.[.[.[.[.[.[.[.[.[.[.[.[.[.[.[.[.[.[.[.[.[.[.[.[.[.[.[.[.[.n.n.n.n.n.n.[.[.[.[.[.[.[.[.[.[.[.[.[.[.[.[.[.[.[.[.[.",
"[.[.[.[.[.[.[.[.[.[.[.[.[.[.[.[.[.[.[.[.[.[.[.[.[.[.[.[.[.[.[.[.[.[.[.[.[.n.n.n.n.n.n.[.[.[.[.[.[.[.[.[.[.[.[.[.[.[.[.[.[.[.[.[.",
"Z Z *.*.M.M.[.[.[.[.[.[.[.[.[.[.[.[.[.[.[.[.[.[.[.[.' ' &.&.V V V V &.&._ ) n.n.n.n.n.[.[.[.[.[.[.[.[.[.[.[.[.[.[.[.M.M.*.*.Z Z ",
"Z Z *.*.M.M.[.[.[.[.[.[.[.[.[.[.[.[.[.[.[.[.[.[.[.[.' ' &.&.V V V V &.&.' ' [.[.[.[.[.[.[.[.[.[.[.[.[.[.[.[.[.[.[.[.M.M.*.*.Z Z ",
"|.|. X Xb.b.X.[.[.[.[.[.[.[.[.[.[.[.[.[.[.[.[.[.S S v.v. X X|.|.|.|. X Xv.v.S [.[.[.[.[.[.[.[.[.[.[.[.[.[.[.[.[.X.X.b.b. X X|.|.",
"|.|. X Xb.b.X.[.[.[.[.[.[.[.[.[.[.[.[.[.[.[.[.[.S S v.v. X X|.|.|.|. X Xv.v.S [.[.[.[.[.[.[.[.[.[.[.[.[.[.[.[.[.X.X.b.b. X X|.|.",
".X.XoXoX}.}.| /./././././././././././././.W.W.!.D D }.}.oXoX.X.X.X.XoXoX}.}.D [.]././././././././././././././.W.[ [ }.}.oXoX.X.X",
"XXXX{.{.K K ( p.p.p.p.p.p.p.p.z.z.p.p.p.p.8.4.~ z z K K {.{.XXXXXXXX{.{.K K z ~ 8.p.p.p.p.p.p.p.p.p.p.p.p.p.p.8.~ E K K {.{.XXXX",
"XXXX{.{.K K ( p.t.t.t.t.t.t.t.t.p.p.p.p.t.4.4.~ z z K K {.{.XXXXXXXX{.{.K K z ~ 8.t.t.t.t.t.t.7.7.t.p.p.p.p.t.4.^ E K K {.{.XXXX",
"c.c.p.p.q q +.1.1.1.1.1.1.1.1.1.1.1.1.1.1.1.1.%.N N q q p.p.c.c.c.c.p.p.q q N %.1.1.1.1.1.1.1.1.1.1.1.1.1.1.1.1.+.U q q p.p.c.c.",
"c.c.p.p.q q Y =.=.=.=.=.=.1.1.7.1.1.1.%.%.+.+.+.N N q q p.p.c.c.c.c.p.p.q q N %.=.=.=.=.=.=.=.7.1.1.1.1.1.%.%.+.+.I q q p.p.c.c.",
"q.q.p.p.P P D.K.].].].].].].K.[.[.D.K.].].].K.m.. . P P p.p.q.q.q.q.p.p.P P D.K.K.K.].K.[.].K.[.[.K.].].].].].].K.V.P P p.p.q.q.",
"q.q.p.p.P P D.[.[.[.[.[.[.[.K.[.[.K.[.[.[.[.[.D.. . P P p.p.q.q.q.q.p.p.P P D.[.K.[.[.].[.[.K.[.[.].[.[.[.[.[.[.[.D.P P p.p.q.q.",
"K K t.t.G G ].].[.[.[.].[.[.[.[.[.].[.[.[.[.[.W.4 4 G G t.t.K K K K t.t.G G D.].].].[.].[.[.].[.[.].[.[.[.[.[.].].D.G G t.t.K K ",
"K K t.t.G G ].[.[.[.[.].].].].].].].].].].].].I.4 4 G G t.t.K K K K t.t.G G K.].].].].].].].].].].].].].].].].].].I.G G t.t.K K ",
". . 4.4.m m ].[.[.[.[.[.[.].[.[.[.].[.[.[.[.[.I.m m m m 4.4.. . . . 4.4.m m !.[.].].[.].[.[.].].].].[.].].[.[.[.[.W.m m 4.4.. . ",
". . 4.4.m m !.[.[.].].].].].].].].W.].].].].].P.m m m m 4.4.. . . . 4.4.m m !.].].].].].].].W.].].].].].].].].[.[.W.m m 4.4.. . ",
"O O W W m m a a a m a m a a a m B a a a a a a a - - m m W W O O O O W W m m - a a a a m m m m m m a a a a a a a 6 q m m W W O O ",
"O O W W m m q a a a a a a a a a w a a a a a a a - - m m W W O O O O W W m m - a a a a a a a a a a a a a a a a a a q m m W W O O ",
"O O K K F F 4 O O O O O O O O q - - O O O O O O o o F F K K O O O O K K F F o O O O O O O O O 4 4 q - - O O O O O j F F K K O O ",
"O O K K F F f , O , , O , , , l q - O O O O O O o o F F K K O O O O K K F F o O O O O O O O O l j q q - , , , O , f F F K K O O ",
"O O Y Y Q Q X.D.D.D.D.V.V.D.D.D.V.D.D.D.D.D.D.D.A A P P Y Y O O O O Y Y P P A [.D.D.D.D.D.D.D.D.V.V.D.D.D.D.V.V.X.X.Q Q Y Y O O ",
"O O w.w.V.V.[.[.[.[.[.[.[.[.[.[.].[.[.[.[.[.[.[.[.[.] ] +.+.O O O O +.+.] ] [.[.[.[.[.[.[.[.[.[.].[.].].[.[.[.[.[.[.V.V.w.w.O O ",
"O O w.w.V.V.[.[.[.[.[.[.[.[.[.[.[.[.[.[.[.[.[.[.[.[.] ] +.+.O O O O +.+.] ] [.[.[.[.[.[.[.[.[.[.].].[.].[.[.[.[.[.[.V.V.w.w.O O ",
"[ [ K.K.[.[.[.[.[.[.[.[.[.[.[.[.[.[.[.[.[.[.[.[.[.[.[.[.N.N.C C C C N.N.[.[.[.[.[.[.[.[.[.[.[.[.[.[.].[.[.[.[.[.[.[.[.[.K.K.[ [ ",
"[.[.[.[.[.[.[.[.[.[.[.[.[.[.[.[.[.[.[.[.[.[.[.[.[.[.[.[.[.[.[.[.[.[.[.[.[.[.[.[.[.[.[.[.[.[.[.[.[.[.[.[.[.[.[.[.[.[.[.[.[.[.[.[.",
"[.[.[.[.[.[.[.[.[.[.[.[.[.[.[.[.[.[.[.[.[.[.[.[.[.[.[.[.[.[.[.[.[.[.[.[.[.[.[.[.[.[.[.[.[.[.[.[.[.[.[.[.[.[.[.[.[.[.[.[.[.[.[.[.",
"[.[.[.[.[.[.[.[.[.[.[.[.[.[.[.[.[.[.[.[.[.[.[.[.[.[.[.[.[.[.[.[.[.[.[.[.[.[.[.[.[.[.[.[.[.[.[.[.[.[.[.[.[.[.[.[.[.[.[.[.[.[.[.[.",
"[.[.[.[.[.[.[.[.[.[.[.[.[.[.[.[.[.[.[.[.[.[.[.[.[.[.[.[.[.[.[.[.[.[.[.[.[.[.[.[.[.[.[.[.[.[.[.[.[.[.[.[.[.[.[.[.[.[.[.[.[.[.[.[.",
"[.[.[.[.[.[.[.[.[.[.[.[.[.[.[.[.[.[.[.[.[.[.[.[.[.[.[.[.[.[.[.[.[.[.[.[.[.[.[.[.[.[.[.[.[.[.[.[.[.[.[.[.[.[.[.[.[.[.[.[.[.[.[.[."
};
