/* XPM */
static char *ee9f112e595a44d9c81e6d5c748bf0a9Ax2ILMLZp1C1B6U6[] = {
/* columns rows colors chars-per-pixel */
"64 64 4 1 ",
"  c None",
". c #78A158",
"X c #A4C263",
"o c #C0D470",
/* pixels */
"         ...XXXXXXXXXXXXoooooooooooooooooooooooooooooooooooooooo",
"         ...XXXXXXXXXXXXoooooooooooooooooooooooooooooooooooooooo",
"         ...XXXXXXXXXXXXoooooooooooooooooooooooooooooooooooooooo",
"         ...XXXXXXXXXooooooooooooooooooooooooooooooooooooooooooo",
"         ...XXXXXXXXXooooooooooooooooooooooooooooooooooooooooooo",
"         ...XXXXXXXXXooooooooooooooooooooooooooooooooooooooooooo",
"         ...XXXXXXXXXXXXoooooooooooooooooooooooooooooooooooooooo",
"         ...XXXXXXXXXXXXoooooooooooooooooooooooooooooooooooooooo",
"         ...XXXXXXXXXXXXoooooooooooooooooooooooooooooooooooooooo",
"         ......XXXXXXXXXXXXooooooooooooooooooooooooooooooooooooo",
"         ......XXXXXXXXXXXXooooooooooooooooooooooooooooooooooooo",
"         ......XXXXXXXXXXXXooooooooooooooooooooooooooooooooooooo",
"         ......XXXXXXXXXXXXooooooooooooooooooooooooooooooooooooo",
"         ......XXXXXXXXXXXXooooooooooooooooooooooooooooooooooooo",
"         ......XXXXXXXXXXXXooooooooooooooooooooooooooooooooooooo",
"         ......XXXXXXXXXooooooooooooooooXXXXXXoooooooooooooooooo",
"         ......XXXXXXXXXooooooooooooooooXXXXXXoooooooooooooooooo",
"         ......XXXXXXXXXooooooooooooooooXXXXXXoooooooooooooooooo",
"         ...XXXXXXXXXXXXXXXooooooooooooooooooooooooooooooooooooo",
"         ...XXXXXXXXXXXXXXXooooooooooooooooooooooooooooooooooooo",
"         ...XXXXXXXXXXXXXXXooooooooooooooooooooooooooooooooooooo",
"         ...XXXXXXXXXXXXooooooooooooooooooooooooooooXXXXXXoooooo",
"         ...XXXXXXXXXXXXooooooooooooooooooooooooooooXXXXXXoooooo",
"         ...XXXXXXXXXXXXooooooooooooooooooooooooooooXXXXXXoooooo",
"         ...XXXXXXXXXXXXooooooooooooooooooooooooooooXXXXXXoooooo",
"         ...XXXXXXXXXXXXooooooooooooooooooooooooooooXXXXXXoooooo",
"         ...XXXXXXXXXXXXooooooooooooooooooooooooooooXXXXXXoooooo",
"         ......XXXXXXXXXoooooooooooooooooooooooooooooooooooooooo",
"         ......XXXXXXXXXoooooooooooooooooooooooooooooooooooooooo",
"         ......XXXXXXXXXoooooooooooooooooooooooooooooooooooooooo",
"         ......XXXXXXXXXXXXXXXXXXXoooooooooooooooooooooooooooooo",
"         ......XXXXXXXXXXXXXXXXXXXoooooooooooooooooooooooooooooo",
"         ......XXXXXXXXXXXXXXXXXXXoooooooooooooooooooooooooooooo",
"         ......XXXXXXXXXXXXXXXXXXXoooooooooooooooooooooooooooooo",
"            ...XXXXXXXXXXXXoooooooooooooooooooXXXooooooooooooooo",
"            ...XXXXXXXXXXXXoooooooooooooooooooXXXooooooooooooooo",
"            ...XXXXXXXXXXXXoooooooooooooooooooXXXooooooooooooooo",
"            ...XXXXXXXXXXXXoooooooooooooooooooXXXooooooooooooooo",
"            ...XXXXXXXXXXXXoooooooooooooooooooXXXooooooooooooooo",
"            ...XXXXXXXXXXXXoooooooooooooooooooXXXooooooooooooooo",
"            .........XXXXXXXXXXXXXooooooXXXXXXoooooooooooooooooo",
"            .........XXXXXXXXXXXXXooooooXXXXXXoooooooooooooooooo",
"            .........XXXXXXXXXXXXXooooooXXXXXXoooooooooooooooooo",
"            .........XXXXXXXXXXXXXXXXXXXXXXXXXXXXXXXooooooXXXooo",
"            .........XXXXXXXXXXXXXXXXXXXXXXXXXXXXXXXooooooXXXooo",
"            .........XXXXXXXXXXXXXXXXXXXXXXXXXXXXXXXooooooXXXooo",
"               .........XXXXXXXXXXXXXXXXXXXXXXXXXXXXXXXXXXXXXXXX",
"               .........XXXXXXXXXXXXXXXXXXXXXXXXXXXXXXXXXXXXXXXX",
"               .........XXXXXXXXXXXXXXXXXXXXXXXXXXXXXXXXXXXXXXXX",
"               .........XXXXXXXXXXXXXXXXXXXXXXXXXXXXXXXXXXXXXXXX",
"               .........XXXXXXXXXXXXXXXXXXXXXXXXXXXXXXXXXXXXXXXX",
"               .........XXXXXXXXXXXXXXXXXXXXXXXXXXXXXXXXXXXXXXXX",
"                     .........................XXX.........XXXXXX",
"                     .........................XXX.........XXXXXX",
"                     .........................XXX.........XXXXXX",
"                                  ..............................",
"                                  ..............................",
"                                  ..............................",
"                                                                ",
"                                                                ",
"                                                                ",
"                                                                ",
"                                                                ",
"                                                                "
};
