/* XPM */
static char *e33092bb472f4d57c9f093c5315868d6eZjrHY3BcF8wVbCB[] = {
/* columns rows colors chars-per-pixel */
"64 64 4 1 ",
"  c None",
". c #78A158",
"X c #A4C263",
"o c #C0D470",
/* pixels */
"                                                                ",
"                                                                ",
"                                                                ",
"                                                                ",
"                                                                ",
"                                                                ",
"                                                                ",
"                                                                ",
"                                                                ",
"..................................                              ",
"..................................                              ",
"..................................                              ",
"XXXXXXXXXXXXXXXXXXXXX.........................                  ",
"XXXXXXXXXXXXXXXXXXXXX.........................                  ",
"XXXXXXXXXXXXXXXXXXXXX.........................                  ",
"XXXXXXXXXXXXXXXXXXXXXXXXXXXXXXXXXXXXXXXX............            ",
"XXXXXXXXXXXXXXXXXXXXXXXXXXXXXXXXXXXXXXXX............            ",
"XXXXXXXXXXXXXXXXXXXXXXXXXXXXXXXXXXXXXXXX............            ",
"XXXXXXXXXXXXXXXXXXXXXXXXXXXXXXXXXXXXXXXX............            ",
"XXXXXXXXXXXXXXXXXXXXXXXXXXXXXXXXXXXXXXXX............            ",
"XXXXXXXXXXXXXXXXXXXXXXXXXXXXXXXXXXXXXXXX............            ",
"oooooooooXXXXXXXXXXXXXXXXXXXXXXXXXXXXXXXXXXXXX.........         ",
"oooooooooXXXXXXXXXXXXXXXXXXXXXXXXXXXXXXXXXXXXX.........         ",
"oooooooooXXXXXXXXXXXXXXXXXXXXXXXXXXXXXXXXXXXXX.........         ",
"oooooooooXXXXXXoooXXXXXXXXXXXXXXXXXXXXXXXXXXXX.........         ",
"oooooooooXXXXXXoooXXXXXXXXXXXXXXXXXXXXXXXXXXXX.........         ",
"oooooooooXXXXXXoooXXXXXXXXXXXXXXXXXXXXXXXXXXXX.........         ",
"oooooooooooooooooooooooooooXXXooooXXXXXXXXXXXX.........         ",
"oooooooooooooooooooooooooooXXXooooXXXXXXXXXXXX.........         ",
"oooooooooooooooooooooooooooXXXooooXXXXXXXXXXXX.........         ",
"oooooooooooooooooooooooooooXXXooooXXXXXXXXXXXX.........         ",
"oooooooooooooooooooooooooooXXXooooXXXXXXXXXXXX.........         ",
"oooooooooooooooooooooooooooXXXooooXXXXXXXXXXXX.........         ",
"oooooooooooooooooooooooooooXXXooooXXXXXXXXXXXX.........         ",
"ooooooooooooooooooooooooooooooooooooooooXXXXXXXXXXXX......      ",
"ooooooooooooooooooooooooooooooooooooooooXXXXXXXXXXXX......      ",
"ooooooooooooooooooooooooooooooooooooooooXXXXXXXXXXXX......      ",
"oooooooooooooooooooooooooooooooooooooooooooXXXXXXXXX......      ",
"oooooooooooooooooooooooooooooooooooooooooooXXXXXXXXX......      ",
"oooooooooooooooooooooooooooooooooooooooooooXXXXXXXXX......      ",
"oooooooooXXXXXXooooooooooooooooooooooooooooXXXXXXXXXXXX...      ",
"oooooooooXXXXXXooooooooooooooooooooooooooooXXXXXXXXXXXX...      ",
"oooooooooXXXXXXooooooooooooooooooooooooooooXXXXXXXXXXXX...      ",
"oooooooooXXXXXXooooooooooooooooooooooooooooXXXXXXXXXXXX...      ",
"oooooooooXXXXXXooooooooooooooooooooooooooooXXXXXXXXXXXX...      ",
"oooooooooXXXXXXooooooooooooooooooooooooooooXXXXXXXXXXXX...      ",
"ooooooooooooooooooooooooooooooXXXXoooooooooXXXXXXXXXXXX...      ",
"ooooooooooooooooooooooooooooooXXXXoooooooooXXXXXXXXXXXX...      ",
"ooooooooooooooooooooooooooooooXXXXoooooooooXXXXXXXXXXXX...      ",
"ooooooooooooooooooooooooooooooooooooooooooooooXXXXXX......      ",
"ooooooooooooooooooooooooooooooooooooooooooooooXXXXXX......      ",
"ooooooooooooooooooooooooooooooooooooooooooooooXXXXXX......      ",
"oooooooooooooooooooooooooooooooooooooooooooXXXXXXXXX......      ",
"oooooooooooooooooooooooooooooooooooooooooooXXXXXXXXX......      ",
"oooooooooooooooooooooooooooooooooooooooooooXXXXXXXXX......      ",
"oooooooooooooooooooooooooooooooooooooooooooXXXXXXXXX......      ",
"oooooooooooooooooooooooooooooooooooooooooooXXXXXXXXX......      ",
"oooooooooooooooooooooooooooooooooooooooooooXXXXXXXXX......      ",
"ooooooooooooooooooooooooooooooooooooooooooooooXXXXXXXXX...      ",
"ooooooooooooooooooooooooooooooooooooooooooooooXXXXXXXXX...      ",
"ooooooooooooooooooooooooooooooooooooooooooooooXXXXXXXXX...      ",
"ooooooooooooooooooooooooooooooooooooooooooooooXXXXXXXXX...      ",
"ooooooooooooooooooooooooooooooooooooooooooooooXXXXXXXXX...      ",
"ooooooooooooooooooooooooooooooooooooooooooooooXXXXXXXXX...      "
};
