/* XPM */
static char *_d1256332ad54e7de4a44abafbe3e2e7v6PQ1LZYLLGxIvQJ[] = {
/* columns rows colors chars-per-pixel */
"64 64 4 1 ",
"  c None",
". c #78A158",
"X c #A4C263",
"o c #C0D470",
/* pixels */
"         ...XXXXXXXXXXXXoooooooooooooooooooooooooooooooooooooooo",
"         ...XXXXXXXXXXXXoooooooooooooooooooooooooooooooooooooooo",
"         ...XXXXXXXXXXXXoooooooooooooooooooooooooooooooooooooooo",
"         ...XXXXXXXXXXXXoooooooooooooooooooooooooooooooooooooooo",
"         ...XXXXXXXXXXXXoooooooooooooooooooooooooooooooooooooooo",
"         ...XXXXXXXXXXXXoooooooooooooooooooooooooooooooooooooooo",
"         ...XXXXXXXXXooooooXXXXXXXoooooooooooooooooooooooooooooo",
"         ...XXXXXXXXXooooooXXXXXXXoooooooooooooooooooooooooooooo",
"         ...XXXXXXXXXooooooXXXXXXXoooooooooooooooooooooooooooooo",
"         ...XXXXXXXXXooooooooooooooooooooooooooooooooooooooooooo",
"         ...XXXXXXXXXooooooooooooooooooooooooooooooooooooooooooo",
"         ...XXXXXXXXXooooooooooooooooooooooooooooooooooooooooooo",
"         ......XXXXXXXXXooooooooooooooooooooooXXXooooooooooooooo",
"         ......XXXXXXXXXooooooooooooooooooooooXXXooooooooooooooo",
"         ......XXXXXXXXXooooooooooooooooooooooXXXooooooooooooooo",
"         ......XXXXXXXXXooooooooooooooooooooooXXXooooooooooooooo",
"         ......XXXXXXXXXooooooooooooooooooooooXXXooooooooooooooo",
"         ......XXXXXXXXXooooooooooooooooooooooXXXooooooooooooooo",
"         ......XXXXXXXXXXXXooooooooooooooooooooooooooooooooooooo",
"         ......XXXXXXXXXXXXooooooooooooooooooooooooooooooooooooo",
"         ......XXXXXXXXXXXXooooooooooooooooooooooooooooooooooooo",
"         ......XXXXXXXXXoooooooooooooooooooooooooooooooooooooooo",
"         ......XXXXXXXXXoooooooooooooooooooooooooooooooooooooooo",
"         ......XXXXXXXXXoooooooooooooooooooooooooooooooooooooooo",
"         ...XXXXXXXXXXXXooooooooooXXXooooooooooooooooooooooooooo",
"         ...XXXXXXXXXXXXooooooooooXXXooooooooooooooooooooooooooo",
"         ...XXXXXXXXXXXXooooooooooXXXooooooooooooooooooooooooooo",
"         ...XXXXXXXXXXXXooooooooooXXXooooooooooooooooooooooooooo",
"         ...XXXXXXXXXXXXooooooooooXXXooooooooooooooooooooooooooo",
"         ...XXXXXXXXXXXXooooooooooXXXooooooooooooooooooooooooooo",
"         ...XXXXXXXXXooooooooooooooooooooooooooooooooooooooooooo",
"         ...XXXXXXXXXooooooooooooooooooooooooooooooooooooooooooo",
"         ...XXXXXXXXXooooooooooooooooooooooooooooooooooooooooooo",
"         ...XXXXXXXXXooooooooooooooooooooooooooooooooooooooooooo",
"         ...XXXXXXXXXooooooooooooooooooooooooooooooooooooooooooo",
"         ...XXXXXXXXXooooooooooooooooooooooooooooooooooooooooooo",
"         ...XXXXXXXXXooooooooooooooooooooooooooooooooooooooooooo",
"         ...XXXXXXXXXXXXoooooooooooooooooooooooooooooooooooooooo",
"         ...XXXXXXXXXXXXoooooooooooooooooooooooooooooooooooooooo",
"         ...XXXXXXXXXXXXoooooooooooooooooooooooooooooooooooooooo",
"         ...XXXXXXXXXXXXoooooooooooooooooooooooooooooooooooooooo",
"         ...XXXXXXXXXXXXoooooooooooooooooooooooooooooooooooooooo",
"         ...XXXXXXXXXXXXoooooooooooooooooooooooooooooooooooooooo",
"         ......XXXXXXXXXoooooooooooooooooooooooooooooooooooooooo",
"         ......XXXXXXXXXoooooooooooooooooooooooooooooooooooooooo",
"         ......XXXXXXXXXoooooooooooooooooooooooooooooooooooooooo",
"         ......XXXXXXXXXoooooooooooooooooooooooooooooooooooooooo",
"         ......XXXXXXXXXoooooooooooooooooooooooooooooooooooooooo",
"         ......XXXXXXXXXoooooooooooooooooooooooooooooooooooooooo",
"         ...XXXXXXXXXXXXXXXooooooooooXXXoooooooooooooooooooooooo",
"         ...XXXXXXXXXXXXXXXooooooooooXXXoooooooooooooooooooooooo",
"         ...XXXXXXXXXXXXXXXooooooooooXXXoooooooooooooooooooooooo",
"         ...XXXXXXXXXXXXXXXooooooooooXXXoooooooooooooooooooooooo",
"         ...XXXXXXXXXXXXXXXooooooooooXXXoooooooooooooooooooooooo",
"         ...XXXXXXXXXXXXXXXooooooooooXXXoooooooooooooooooooooooo",
"         ...XXXXXXXXXXXXoooooooooooooooooooooooooooooooooooooooo",
"         ...XXXXXXXXXXXXoooooooooooooooooooooooooooooooooooooooo",
"         ...XXXXXXXXXXXXoooooooooooooooooooooooooooooooooooooooo",
"         ...XXXXXXXXXooooooooooooooooooooooooooooooooooooooooooo",
"         ...XXXXXXXXXooooooooooooooooooooooooooooooooooooooooooo",
"         ...XXXXXXXXXooooooooooooooooooooooooooooooooooooooooooo",
"         ...XXXXXXXXXXXXoooooooooooooooooooooooooooooooooooooooo",
"         ...XXXXXXXXXXXXoooooooooooooooooooooooooooooooooooooooo",
"         ...XXXXXXXXXXXXoooooooooooooooooooooooooooooooooooooooo"
};
