/* XPM */
static char *_a3530b81d0547f8d7dc67ea2d82878bgQUALM99GWPFiPHR[] = {
/* columns rows colors chars-per-pixel */
"64 64 10 1 ",
"  c #484043",
". c #79853E",
"X c #94A746",
"o c #97AA47",
"O c #98AB48",
"+ c #AFC259",
"@ c #63ABD3",
"# c #64ABD3",
"$ c #B6D1E3",
"% c #B6D2E4",
/* pixels */
"++++++++++++++++++++++++++++++++++++++++++++oooooooX    %%%%@@@@",
"++++++++++++++++++++++++++++++++++++++++++++oooooooo    %%%%@@@@",
"++++++++++++++++++++++++++++++++++++++++++++oooooooo    %%%%@@@@",
"++++++++++++++++++++++++++++++++++++++++++++oooooooo    %%%%@@@@",
"++++++++++++++++++++++++++++++++++++++++++++++++++++    $$$$@@@@",
"++++++++++++++++++++++++++++++++++++++++++++++++++++    $$$$@@@@",
"++++++++++++++++++++++++++++++++++++++++++++++++++++    $$$$@@@@",
"++++++++++++++++++++++++++++++++++++++++++++++++++++    $$$$@@@@",
"++++++++++++++++++++++++++++++++++++++++++++++++OOOO    $$$$@@@@",
"++++++++++++++++++++++++++++++++++++++++++++++++OOOO    $$$$@@@@",
"++++++++++++++++++++++++++++++++++++++++++++++++OOOO    $$$$@@@@",
"++++++++++++++++++++++++++++++++++++++++++++++++OOOO    $$$$@@@@",
"++++++++++++++++++++++++++++++++++++++++++++++++++++    $$$$####",
"++++++++++++++++++++++++++++++++++++++++++++++++++++    $$$$####",
"++++++++++++++++++++++++++++++++++++++++++++++++++++    $$$$####",
"++++++++++++++++++++++++++++++++++++++++++++++++++++    $$$$####",
"++++++++++++++++++++++++++++++++++++++++++++++++++++    $$$$####",
"++++++++++++++++++++++++++++++++++++++++++++++++++++    $$$$####",
"++++++++++++++++++++++++++++++++++++++++++++++++++++    $$$$####",
"++++++++++++++++++++++++++++++++++++++++++++++++++++    $$$$####",
"++++++++++++++++++++++++++++++++++++++++++++++++++++    $$$$####",
"++++++++++++++++++++++++++++++++++++++++++++++++++++    $$$$####",
"++++++++++++++++++++++++++++++++++++++++++++++++++++    $$$$####",
"++++++++++++++++++++++++++++++++++++++++++++++++++++    $$$$####",
"++++++++++++++++++++++++++++++++++++++++++++++++++++    $$$$####",
"++++++++++++++++++++++++++++++++++++++++++++++++++++    $$$$####",
"++++++++++++++++++++++++++++++++++++++++++++++++++++    $$$$####",
"++++++++++++++++++++++++++++++++++++++++++++++++++++    $$$$####",
"++++++++++++++++++++++++++++++++++++++++++++++++++++    $$$$####",
"++++++++++++++++++++++++++++++++++++++++++++++++++++    $$$$####",
"++++++++++++++++++++++++++++++++++++++++++++++++++++    $$$$####",
"++++++++++++++++++++++++++++++++++++++++++++++++++++    $$$$####",
"++++++++++++++++++++++++++++++++++++++++++++++++OOOO    $$$$####",
"++++++++++++++++++++++++++++++++++++++++++++++++ooOO    $$$$####",
"++++++++++++++++++++++++++++++++++++++++++++++++oooo    $$$$####",
"++++++++++++++++++++++++++++++++++++++++++++++++oooo    $$$$####",
"++++++++++++++++++++++++++++++++++++++++++++OOOOoooX    $$$$####",
"++++++++++++++++++++++++++++++++++++++++++++OOOOoooo    $$$$####",
"++++++++++++++++++++++++++++++++++++++++++++OOOOoooo    $$$$####",
"++++++++++++++++++++++++++++++++++++++++++++OOOOoooo    $$$$####",
"++++++++++++++++++++++++++++++++++++++++++++oooo....    $$$$@@@@",
"++++++++++++++++++++++++++++++++++++++++++++oooo....    $$$$@@@@",
"++++++++++++++++++++++++++++++++++++++++++++oooo....    $$$$@@@@",
"++++++++++++++++++++++++++++++++++++++++++++oooo....    $$$$@@@@",
"++++++++++++++++++++++++++++++++++++++++++++++++oooo    $$$$####",
"++++++++++++++++++++++++++++++++++++++++++++++++oooo    $$$$####",
"++++++++++++++++++++++++++++++++++++++++++++++++oooo    $$$$####",
"++++++++++++++++++++++++++++++++++++++++++++++++oooo    $$$$####",
"++++++++++++++++++++++++++++++++++++++++++++OOOOoooX    $$$$####",
"++++++++++++++++++++++++++++++++++++++++++++OOOOoooo    $$$$####",
"++++++++++++++++++++++++++++++++++++++++++++OOOOoooo    $$$$####",
"++++++++++++++++++++++++++++++++++++++++++++OOOOoooo    $$$$####",
"++++++++++++++++++++++++++++++++++++++++++++oooooooo    $$$$####",
"++++++++++++++++++++++++++++++++++++++++++++oooooooo    $$$$####",
"++++++++++++++++++++++++++++++++++++++++++++oooooooo    $$$$####",
"++++++++++++++++++++++++++++++++++++++++++++ooooXXoo    $$$$####",
"++++++++++++++++++++++++++++++++++++++++++++oooo....    $$$$####",
"++++++++++++++++++++++++++++++++++++++++++++oooo....    $$$$####",
"++++++++++++++++++++++++++++++++++++++++++++oooo....    $$$$####",
"++++++++++++++++++++++++++++++++++++++++++++oooo....    $$$$####",
"++++++++++++++++++++++++++++++++++++++++OOOOoooXXXXX    %%%%@@@@",
"++++++++++++++++++++++++++++++++++++++++OOOOooooXXXX    %%%%@@@@",
"++++++++++++++++++++++++++++++++++++++++OOOOooooXXXX    %%%%@@@@",
"++++++++++++++++++++++++++++++++++++++++OOOOooooXXXX    %%%%@@@@"
};
