/* XPM */
static char *be0097fd864b4694a98221cdfdd2c1d80a993eigsoppzu9T[] = {
/* columns rows colors chars-per-pixel */
"64 64 32 1 ",
"  c #245824",
". c #285B25",
"X c #285826",
"o c #2C5C26",
"O c #335A29",
"+ c #375B2A",
"@ c #467630",
"# c #477731",
"$ c #497731",
"% c #4A7831",
"& c #737F3D",
"* c #514A4C",
"= c #925B59",
"- c #955B5B",
"; c #955C5A",
": c #985C5C",
"> c #AA6D5F",
", c #AD6E61",
"< c #AF6D62",
"1 c #75813D",
"2 c #77833D",
"3 c #72943D",
"4 c #74953E",
"5 c #91A345",
"6 c #AEC158",
"7 c #AFC259",
"8 c #527EA7",
"9 c #5280A9",
"0 c #58A6D0",
"q c #59A8D2",
"w c #B6D2E4",
"e c #B8D0E1",
/* pixels */
"0000wwww****5555555555556666666666666666666666666666666666666666",
"0000wwww****5555555555556666666666666666666666666666666666666666",
"0000wwww****5555555555556666666666666666666666666666666666666666",
"0000wwww****5555555555556666666666666666666666666666666666666666",
"0000wwww****1111111155555555666666666666666666666666666666666666",
"0000wwww****1111111155555555666666666666666666666666666666666666",
"0000wwww****1111111155555555666666666666666666666666666666666666",
"0000wwww****1111111155555555666666666666666666666666666666666666",
"0000wwww****&&&&555566666666666666666666666666666666666666666666",
"0000wwww****&&&&555566666666666666666666666666666666666666666666",
"0000wwww****&&&&555566666666666666666666666666666666666666666666",
"0000wwww****&&&&555566666666666666666666666666666666666666666666",
"0000wwww****&&&&555555556666666666666666666666666666666666666666",
"0000wwww****&&&&555555556666666666666666666666666666666666666666",
"0000wwww****&&&&555555556666666666666666666666666666666666666666",
"0000wwww****&&&&555555556666666666666666666666666666666666666666",
"0000wwww****5555555555556666666666666666666666666666666666666666",
"0000wwww****5555555555556666666666666666666666666666666666666666",
"0000wwww****5555555555556666666666666666666666666666666666666666",
"0000wwww****5555555555556666666666666666666666666666666666666666",
"0000wwww****5555555555556666666666666666666666666666666666666666",
"0000wwww****5555555555556666666666666666666666666666666666666666",
"0000wwww****5555555555556666666666666666666666666666666666666666",
"0000wwww****5555555555556666666666666666666666666666666666666666",
"0000wwww****$$$$555544444444444466666666666666666666666666666666",
"0000wwww****$$$$555544444444444466666666666666666666666666666666",
"0000wwww****$$$$555544444444444466666666666666666666666666666666",
"0000wwww****$$$$555544444444444466666666666666666666666666666666",
"0000wwww****XXXX$$$$44444444444444446666666644446666444444446666",
"0000wwww****XXXX$$$$44434444444444446666666644446666444444446666",
"0000wwww****XXXX$$$$44434444444444446666666644446666444444446666",
"0000wwww****XXXX$$$$44434444444444446666666644446666444444446666",
"0000wwww****====OOOO@@@@4443444444444444444444444444444444444444",
"0000wwww****====OOOO@@@@4444444444444444444444444444444444444444",
"0000wwww****====OOOO@@@@4444444444444444444444444444444444444444",
"0000wwww****====OOOO@@@@4444444444444444444444444444444444444444",
"0000wwww****----;;;;OOOOoooo@@@@@@@@oooo4444%%%%444444444444%%%%",
"0000wwww****----;;;;OOOOoooo@@@@@@@@oooo4444%%%%444444444444%%%%",
"0000wwww****----;;;;OOOOoooo@@@@@@@@oooo4444%%%%444444444444%%%%",
"0000wwww****::::;;;;OOOOoooo@@@@@@@@oooo4444%%%%333344444444%%%%",
"00009999wwww::::::::;;;;;;;;OOOO        @@@@XXXX@@@@@@@@@@@@XXXX",
"00009999wwww::::::::;;;;;;;;OOOO        @@@@XXXX@@@@@@@@@@@@XXXX",
"00009999wwww::::::::;;;;;;;;OOOO        @@@@XXXX@@@@@@@@@@@@XXXX",
"00009999wwww:::::::::;;;;;;;OOOO        @@@@XXXX@@@@@@@@@@@@XXXX",
"000000009999wwww::::::::,,,,,,,,,,,,,,,,++++>>>>++++        >>>>",
"000000009999wwww::::::::,,,,,,,,,,,,,,,,++++>>>>++++        >>>>",
"000000009999wwww::::::::,,,,,,,,,,,,,,,,++++>>>>++++        >>>>",
"000000009999wwww::::::::,,,,,,,,,,,,,,,,++++>>>>++++        >>>>",
"0000qqqq00009999wwwwwwee,,,,,,,,,,,,,,,,,,,,,,,,,,,,,,,,,,,,,,,,",
"0000qqqq00009999wwwwwwee,,,,,,,,,,,,,,,,,,,,,,,,,,,,,,,,,,,,,,,,",
"0000qqqq00009999wwwwwwee,,,,,,,,,,,,,,,,,,,,,,,,,,,,,,,,,,,,,,,,",
"0000qqqq00009999wwwwwwee,,,,,,,,,,,,,,,,,,,,,,,,,,,,,,,,,,,,,,,,",
"0000qqqqqqqq000099998888wwwwwwwwwwwwwwwwwwwwwwwwwwwwwwwwwwwwwwww",
"0000qqqqqqqq000099998888wwwwwwwwwwwwwwwwwwwwwwwwwwwwwwwwwwwwwwww",
"0000qqqqqqqq000099998888wwwwwwwwwwwwwwwwwwwwwwwwwwwwwwwwwwwwwwww",
"0000qqqqqqqq000099998888wwwwwwwwwwwwwwwwwwwwwwwwwwwwwwwwwwwwwwww",
"0000qqqqqqqqqqqq000000008888888888888888888888888888888888888888",
"0000qqqqqqqqqqqq000000008888888888888888888888888888888888888888",
"0000qqqqqqqqqqqq000000008888888888888888888888888888888888888888",
"0000qqqqqqqqqqqq000000008888888888888888888888888888888888888888",
"0000000000000000000000000000000000000000000000000000000000000000",
"0000000000000000000000000000000000000000000000000000000000000000",
"0000000000000000000000000000000000000000000000000000000000000000",
"0000000000000000000000000000000000000000000000000000000000000000"
};
