/* XPM */
static char *_1734a3646bf442f8772a8ea98c770c7CZIe32rkRMQTL1Sp[] = {
/* columns rows colors chars-per-pixel */
"64 64 4 1 ",
"  c None",
". c #78A158",
"X c #A4C263",
"o c #C0D470",
/* pixels */
"ooooooooooooooooooooooooooooooooooooooooooooooXXXXXXXXX...      ",
"ooooooooooooooooooooooooooooooooooooooooooooooXXXXXXXXX...      ",
"ooooooooooooooooooooooooooooooooooooooooooooooXXXXXXXXX...      ",
"oooooooooooooooooooooooooooooooooooooooooooXXXXXXXXX......      ",
"oooooooooooooooooooooooooooooooooooooooooooXXXXXXXXX......      ",
"oooooooooooooooooooooooooooooooooooooooooooXXXXXXXXX......      ",
"oooooooooooooooooooooooooooooooooooooooooooXXXXXXXXX......      ",
"oooooooooooooooooooooooooooooooooooooooooooXXXXXXXXX......      ",
"oooooooooooooooooooooooooooooooooooooooooooXXXXXXXXX......      ",
"oooooooooooooooooooooXXXXXXoooooooooooooXXXXXXXXXXXXXXX...      ",
"oooooooooooooooooooooXXXXXXoooooooooooooXXXXXXXXXXXXXXX...      ",
"oooooooooooooooooooooXXXXXXoooooooooooooXXXXXXXXXXXXXXX...      ",
"oooooooooooooooooooooXXXXXXoooooooooooooXXXXXXXXXXXXXXX...      ",
"oooooooooooooooooooooXXXXXXoooooooooooooXXXXXXXXXXXXXXX...      ",
"oooooooooooooooooooooXXXXXXoooooooooooooXXXXXXXXXXXXXXX...      ",
"oooooooooooooooooooooooooooooooooooooooooooXXXXXXXXXXXX...      ",
"oooooooooooooooooooooooooooooooooooooooooooXXXXXXXXXXXX...      ",
"oooooooooooooooooooooooooooooooooooooooooooXXXXXXXXXXXX...      ",
"ooooooooooooooooooooooooooooooooooooooooXXXXXXXXXXXXXXX...      ",
"ooooooooooooooooooooooooooooooooooooooooXXXXXXXXXXXXXXX...      ",
"ooooooooooooooooooooooooooooooooooooooooXXXXXXXXXXXXXXX...      ",
"oooooooooooooooooooooooooooooooooooooooooooXXXXXXXXX......      ",
"oooooooooooooooooooooooooooooooooooooooooooXXXXXXXXX......      ",
"oooooooooooooooooooooooooooooooooooooooooooXXXXXXXXX......      ",
"oooooooooooooooooooooooooooooooooooooooooooXXXXXXXXX......      ",
"oooooooooooooooooooooooooooooooooooooooooooXXXXXXXXX......      ",
"oooooooooooooooooooooooooooooooooooooooooooXXXXXXXXX......      ",
"oooooooooooooooooooooooooooooooooooooooooooXXXXXXXXX......      ",
"oooooooooooooooooooooooooooooooooooooooooooXXXXXXXXX......      ",
"oooooooooooooooooooooooooooooooooooooooooooXXXXXXXXX......      ",
"oooooooooooooooXXXoooooooooXXXooooooooooXXXXXXXXXXXX......      ",
"oooooooooooooooXXXoooooooooXXXooooooooooXXXXXXXXXXXX......      ",
"oooooooooooooooXXXoooooooooXXXooooooooooXXXXXXXXXXXX......      ",
"oooooooooooooooXXXoooooooooXXXooooooooooXXXXXXXXXXXX......      ",
"ooooooooooooooooooooooooooooooooooooooooXXXXXX.........         ",
"ooooooooooooooooooooooooooooooooooooooooXXXXXX.........         ",
"ooooooooooooooooooooooooooooooooooooooooXXXXXX.........         ",
"ooooooooooooooooooooooooooooooooooooooooXXXXXX.........         ",
"ooooooooooooooooooooooooooooooooooooooooXXXXXX.........         ",
"ooooooooooooooooooooooooooooooooooooooooXXXXXX.........         ",
"ooooooooooooooooooooooooooooooooooXXXXXXXXXXXX.........         ",
"ooooooooooooooooooooooooooooooooooXXXXXXXXXXXX.........         ",
"ooooooooooooooooooooooooooooooooooXXXXXXXXXXXX.........         ",
"oooooooooXXXXXXooooooXXXXXXXXXXXXXXXXXXXXXXXXX.........         ",
"oooooooooXXXXXXooooooXXXXXXXXXXXXXXXXXXXXXXXXX.........         ",
"oooooooooXXXXXXooooooXXXXXXXXXXXXXXXXXXXXXXXXX.........         ",
"XXXXXXXXXXXXXXXXXXXXXXXXXXXXXXXXXXXXXXXXXXX.........            ",
"XXXXXXXXXXXXXXXXXXXXXXXXXXXXXXXXXXXXXXXXXXX.........            ",
"XXXXXXXXXXXXXXXXXXXXXXXXXXXXXXXXXXXXXXXXXXX.........            ",
"XXXXXXXXXXXXXXXXXXXXXXXXXXXXXXXXXXXXXXXXXXX.........            ",
"XXXXXXXXXXXXXXXXXXXXXXXXXXXXXXXXXXXXXXXXXXX.........            ",
"XXXXXXXXXXXXXXXXXXXXXXXXXXXXXXXXXXXXXXXXXXX.........            ",
"XXXXXXXXX.........XXXXXXXXX...................                  ",
"XXXXXXXXX.........XXXXXXXXX...................                  ",
"XXXXXXXXX.........XXXXXXXXX...................                  ",
"..................................                              ",
"..................................                              ",
"..................................                              ",
"                                                                ",
"                                                                ",
"                                                                ",
"                                                                ",
"                                                                ",
"                                                                "
};
