/* XPM */
static char *d05a9c1a6d844a8bf8a1cda7e3c65933DvTgKBM5knIYhaxt[] = {
/* columns rows colors chars-per-pixel */
"64 64 4 1 ",
"  c None",
". c #78A158",
"X c #A4C263",
"o c #C0D470",
/* pixels */
"ooooooooooooooooooooooooooooooooooooooooooooooXXXXXXXXX...      ",
"ooooooooooooooooooooooooooooooooooooooooooooooXXXXXXXXX...      ",
"ooooooooooooooooooooooooooooooooooooooooooooooXXXXXXXXX...      ",
"ooooooooooooooooooooooooooooooooooooooooooooooXXXXXXXXX...      ",
"ooooooooooooooooooooooooooooooooooooooooooooooXXXXXXXXX...      ",
"ooooooooooooooooooooooooooooooooooooooooooooooXXXXXXXXX...      ",
"ooooooooooooooooooooooooooooooooooooooooooooooXXXXXXXXX...      ",
"ooooooooooooooooooooooooooooooooooooooooooooooXXXXXXXXX...      ",
"ooooooooooooooooooooooooooooooooooooooooooooooXXXXXXXXX...      ",
"oooooooooooooooooooooXXXXXXooooooooooooooooXXXXXXXXXXXX...      ",
"oooooooooooooooooooooXXXXXXooooooooooooooooXXXXXXXXXXXX...      ",
"oooooooooooooooooooooXXXXXXooooooooooooooooXXXXXXXXXXXX...      ",
"ooooooooooooooooooooooooooooooooooooooooXXXXXXXXXXXX......      ",
"ooooooooooooooooooooooooooooooooooooooooXXXXXXXXXXXX......      ",
"ooooooooooooooooooooooooooooooooooooooooXXXXXXXXXXXX......      ",
"ooooooooooooooooooooooooooooooooooooooooXXXXXXXXXXXX......      ",
"ooooooooooooooooooooooooooooooooooooooooXXXXXXXXXXXX......      ",
"ooooooooooooooooooooooooooooooooooooooooXXXXXXXXXXXX......      ",
"oooooooooooooooooooooooooooooooooooooooooooXXXXXXXXX......      ",
"oooooooooooooooooooooooooooooooooooooooooooXXXXXXXXX......      ",
"oooooooooooooooooooooooooooooooooooooooooooXXXXXXXXX......      ",
"ooooooooooooooooooooooooooooooooooooooooXXXXXXXXXXXX......      ",
"ooooooooooooooooooooooooooooooooooooooooXXXXXXXXXXXX......      ",
"ooooooooooooooooooooooooooooooooooooooooXXXXXXXXXXXX......      ",
"ooooooooooooooooooooooooooooooooooooooooXXXXXXXXXXXXXXX...      ",
"ooooooooooooooooooooooooooooooooooooooooXXXXXXXXXXXXXXX...      ",
"ooooooooooooooooooooooooooooooooooooooooXXXXXXXXXXXXXXX...      ",
"ooooooooooooooooooooooooooooooooooooooooXXXXXXXXXXXXXXX...      ",
"ooooooooooooooooooooooooooooooooooooooooXXXXXXXXXXXXXXX...      ",
"ooooooooooooooooooooooooooooooooooooooooXXXXXXXXXXXXXXX...      ",
"oooooooooooooooooooooooooooooooooooooooooooXXXXXXXXXXXX...      ",
"oooooooooooooooooooooooooooooooooooooooooooXXXXXXXXXXXX...      ",
"oooooooooooooooooooooooooooooooooooooooooooXXXXXXXXXXXX...      ",
"oooooooooooooooooooooooooooooooooooooooooooXXXXXXXXXXXX...      ",
"ooooooooooooooooooooooooooooooXXXXoooooooooXXXXXXXXXXXX...      ",
"ooooooooooooooooooooooooooooooXXXXoooooooooXXXXXXXXXXXX...      ",
"ooooooooooooooooooooooooooooooXXXXoooooooooXXXXXXXXXXXX...      ",
"oooooooooooooooooooooooooooooooooooooooooooXXXXXXXXXXXX...      ",
"oooooooooooooooooooooooooooooooooooooooooooXXXXXXXXXXXX...      ",
"oooooooooooooooooooooooooooooooooooooooooooXXXXXXXXXXXX...      ",
"oooooooooooooooooooooooooooooooooooooooooooXXXXXXXXXXXX...      ",
"oooooooooooooooooooooooooooooooooooooooooooXXXXXXXXXXXX...      ",
"oooooooooooooooooooooooooooooooooooooooooooXXXXXXXXXXXX...      ",
"oooooooooooooooooooooooooooooooooooooooooooXXXXXXXXXXXX...      ",
"oooooooooooooooooooooooooooooooooooooooooooXXXXXXXXXXXX...      ",
"oooooooooooooooooooooooooooooooooooooooooooXXXXXXXXXXXX...      ",
"ooooooooooooooooooXXXoooooooooooooooooooXXXXXXXXXXXXXXX...      ",
"ooooooooooooooooooXXXoooooooooooooooooooXXXXXXXXXXXXXXX...      ",
"ooooooooooooooooooXXXoooooooooooooooooooXXXXXXXXXXXXXXX...      ",
"oooooooooooooooooooooooooooooooooooooooooooXXXXXXXXX......      ",
"oooooooooooooooooooooooooooooooooooooooooooXXXXXXXXX......      ",
"oooooooooooooooooooooooooooooooooooooooooooXXXXXXXXX......      ",
"oooooooooooooooooooooooooooooooooooooooooooXXXXXXXXX......      ",
"oooooooooooooooooooooooooooooooooooooooooooXXXXXXXXX......      ",
"oooooooooooooooooooooooooooooooooooooooooooXXXXXXXXX......      ",
"ooooooooooooooooooooooooooooooXXXXooooooooooooXXXXXX......      ",
"ooooooooooooooooooooooooooooooXXXXooooooooooooXXXXXX......      ",
"ooooooooooooooooooooooooooooooXXXXooooooooooooXXXXXX......      ",
"ooooooooooooooooooooooooooooooooooooooooooooooXXXXXXXXX...      ",
"ooooooooooooooooooooooooooooooooooooooooooooooXXXXXXXXX...      ",
"ooooooooooooooooooooooooooooooooooooooooooooooXXXXXXXXX...      ",
"ooooooooooooooooooooooooooooooooooooooooooooooXXXXXXXXX...      ",
"ooooooooooooooooooooooooooooooooooooooooooooooXXXXXXXXX...      ",
"ooooooooooooooooooooooooooooooooooooooooooooooXXXXXXXXX...      "
};
