/* XPM */
static char *result[] = {
/* columns rows colors chars-per-pixel */
"64 64 7 1 ",
"  c #473937",
". c #335142",
"X c #4A7351",
"o c #6F9454",
"O c #8DB070",
"+ c #BCD091",
"@ c None",
/* pixels */
"@@@@@@@@@@@@@@@@@@@@@@@@@@@@@@@@@@@@@@@@@@@@@@@@@@@@@@@@@@@@@@@@",
"@@@@@@@@@@@@@@@@@@@@@@@@@@@@@@@@@@@@@@@@@@@@@@@@@@@@@@@@@@@@@@@@",
"@@@@@@@@@@@@@@@@@@@@@@@@@@@@@@@@@@@@@@@@@@@@@@@@@@@@@@@@@@@@@@@@",
"@@@@@@@@@@@@@@@@@@@@@@@@@@@@@@@@@@@@@@@@@@@@@@@@@@@@@@@@@@@@@@@@",
"@@@@@@@@@@@@@@@@@@@@@@@@@@@@@@@@@@@@@@@@@@@@@@@@@@@@@@@@@@@@@@@@",
"@@@@@@@@@@@@@@@@@@@@@@@@@@@@@@@@@@@@@@@@@@@@@@@@@@@@@@@@@@@@@@@@",
"@@@@@@@@@@@@@@@@@@@@@@@@@@@@@@@@@@@@@@@@@@@@@@@@@@@@@@@@@@@@@@@@",
"@@@@@@@@@@@@@@@@@@@@@@@@@@@@@@@@@@@@@@@@@@@@@@@@@@@@@@@@@@@@@@@@",
"@@@@@@@@@@@@@@@@@@@@@@@@@@@@@@@@@@@@@@@@@@@@@@@@@@@@@@@@@@@@@@@@",
"@@@@@@@@@@@@@@@@@@@@@@@@@@@@@@@@@@@@@@@@@@@@@@@@@@@@@@@@@@@@@@@@",
"@@@@@@@@@@@@@@@@@@@@@@@@@@@@@@@@@@@@@@@@@@@@@@@@@@@@@@@@@@@@@@@@",
"@@@@@@@@@@@@@@@@@@@@@@@@@@@@@@@@@@@@@@@@@@@@@@@@@@@@@@@@@@@@@@@@",
"@@@@@@@@@@@@@@@@@@@@@@@@@@@@@@@@@@@@@@@@@@@@@@@@@@@@@@@@@@@@@@@@",
"@@@@@@@@@@@@@@@@@@@@@@@@@@@@@@@@@@@@@@@@@@@@@@@@@@@@@@@@@@@@@@@@",
"@@@@@@@@@@@@@@@@@@@@@@@@@@@@@@@@@@@@@@@@@@@@@@@@@@@@@@@@@@@@@@@@",
"@@@@@@@@@@@@@@@@@@@@@@@@@@@@@@@@@@@@@@@@@@@@@@@@@@@@@@@@@@@@@@@@",
"@@@@@@@@@@@@@@@@@@@@@@@@@@@@@@@@@@@@@@@@@@@@@@@@@@@@@@@@@@@@@@@@",
"@@@@@@@@@@@@@@@@@@@@@@@@@@@@@@@@@@@@@@@@@@@@@@@@@@@@@@@@@@@@@@@@",
"@@@@@@@@@@@@@@@@@@@@@@@@@@@@@@@@@@@@@@@@@@@@@@@@@@@@@@@@@@@@@@@@",
"@@@@@@@@@@@@@@@@@@@@@@@@@@@@@@@@@@@@@@@@@@@@@@@@@@@@@@@@@@@@@@@@",
"@@@@@@@@@@@@@@@@@@@@@@@@@@@@@@@@@@@@@@@@@@@@@@@@@@@@@@@@@@@@@@@@",
"@@@@@@@@@@@@@@@@@@@@@@@@@@@@@@@@@@@@@@@@@@@@@@@@@@@@@@@@@@@@@@@@",
"@@@@@@@@@@@@@@@@@@@@@@@@@@@@@@@@@@@@@@@@@@@@@@@@@@@@@@@@@@@@@@@@",
"@@@@@@@@@@@@@@@@@@@@@@@@@@@@@@@@@@@@@@@@@@@@@@@@@@@@@@@@@@@@@@@@",
"@@@@@@@@@@@@@@@@@@@@@@@@@@@@@@@@@@@@@@@@@@@@@@@@@@@@@@@@@@@@@@@@",
"@@@@@@@@@@@@@@@@@@@@@@@@@@@@@@@@@@@@@@@@@@@@@@@@@@@@@@@@@@@@@@@@",
"@@@@@@@@@@@@@@@@@@@@@@@@@@       @@@@@@@@@@@@@@@@@@@@@@@@@@@@@@@",
"@@@@@@@@@@@@@@@@@@@@@@@@@@       @@@@@@@@@@@@@@@@@@@@@@@@@@@@@@@",
"@@@@@@@@@@@@@@@@@@@@@@@@@@       @@@@@@@@@@@@@@@@@@@@@@@@@@@@@@@",
"@@@@@@@@@@@@@@@@@           +++++   @@           @@@@@@@@@@@@@@@",
"@@@@@@@@@@@@@@@@@           +++++   @@           @@@@@@@@@@@@@@@",
"@@@@@@@@@@@@@@@@@  +++++++  +++++OOO     ++++++  @@@@@@@@@@@@@@@",
"@@@@@@@@@@@@@@@@@  +++++++  +++++OOO     ++++++  @@@@@@@@@@@@@@@",
"@@@@@@@@@@@@@@@@@  +++++++  +++++OOO     ++++++  @@@@@@@@@@@@@@@",
"@@@@@@@@@@@@       +++++++OOOOO++OOOOO+++++++++  @@@@@@@@@@@@@@@",
"@@@@@@@@@@@@       +++++++OOOOO++OOOOO+++++++++  @@@@@@@@@@@@@@@",
"@@@@@@@@@@@@       +++++++OOOOO++OOOOO+++++++++  @@@@@@@@@@@@@@@",
"@@@@@@@@@@@@  +++++OOOO++++++++OOOOO+++++++++++++   @@@@@@@@@@@@",
"@@@@@@@@@@@@  +++++OOOO++++++++OOOOO+++++++++++++   @@@@@@@@@@@@",
"@@@@@@@@@@@@  +++++OOOO++++++++OOOOO+++++++++++++   @@@@@@@@@@@@",
"@@@@@@@@@@@@  +++++OOOOOOO+++++OOOOO+++++OOO+++++   @@@@@@@@@@@@",
"@@@@@@@@@@@@  +++++OOOOOOO+++++OOOOO+++++OOO+++++   @@@@@@@@@@@@",
"@@@@@@@@@@@@@@   ..ooooOOO++OOOOOOOOoo+++OOO...     @@@@@@@@@@@@",
"@@@@@@@@@@@@@@   ..ooooOOO++OOOOOOOOoo+++OOO...     @@@@@@@@@@@@",
"@@@@@@@@@@@@@@   ..ooooOOO++OOOOOOOOoo+++OOO...     @@@@@@@@@@@@",
"@@@@@@@@@@@@@@   oooooooooooOOOOOOOOooooooooooo  @@@@@@@@@@@@@@@",
"@@@@@@@@@@@@@@   oooooooooooOOOOOOOOooooooooooo  @@@@@@@@@@@@@@@",
"@@@@@@@@@@@@@@   oooooooooooOOOOOOOOooooooooooo  @@@@@@@@@@@@@@@",
"@@@@@@@@@@@@  ...ooooooXXXooooooooooooXXXoooooo  @@@@@@@@@@@@@@@",
"@@@@@@@@@@@@  ...ooooooXXXooooooooooooXXXoooooo  @@@@@@@@@@@@@@@",
"@@@@@@@@@@@@  .....XXXXXXXooooooooooooXXX........   @@@@@@@@@@@@",
"@@@@@@@@@@@@  .....XXXXXXXooooooooooooXXX........   @@@@@@@@@@@@",
"@@@@@@@@@@@@  .....XXXXXXXooooooooooooXXX........   @@@@@@@@@@@@",
"@@@@@@@@@@@@  ...XXXXXXXXXXXooooooooXXXXXXXXXXX..   @@@@@@@@@@@@",
"@@@@@@@@@@@@  ...XXXXXXXXXXXooooooooXXXXXXXXXXX..   @@@@@@@@@@@@",
"@@@@@@@@@@@@  ...XXXXXXXXXXXooooooooXXXXXXXXXXX..   @@@@@@@@@@@@",
"@@@@@@@@@@@@  .....XXXXXXX..XXXXX...XXXXXXXXXXX..   @@@@@@@@@@@@",
"@@@@@@@@@@@@  .....XXXXXXX..XXXXX...XXXXXXXXXXX..   @@@@@@@@@@@@",
"@@@@@@@@@@@@  .....XXXXXXX..XXXXX...XXXXXXXXXXX..   @@@@@@@@@@@@",
"@@@@@@@@@@@@@@........................XXX...XXX..@@@@@@@@@@@@@@@",
"@@@@@@@@@@@@@@........................XXX...XXX..@@@@@@@@@@@@@@@",
"@@@@@@@@@@@@@@@@@@@............@@@@@...........@@@@@@@@@@@@@@@@@",
"@@@@@@@@@@@@@@@@@@@............@@@@@...........@@@@@@@@@@@@@@@@@",
"@@@@@@@@@@@@@@@@@@@............@@@@@...........@@@@@@@@@@@@@@@@@"
};
