/* XPM */
static char *_267cd40be20455dd892307e927caf13C7Kk2FEQ3PODzbhE[] = {
/* columns rows colors chars-per-pixel */
"64 64 132 2 ",
"   c None",
".  c #121B35",
"X  c #1C2436",
"o  c #232B37",
"O  c #262E38",
"+  c #273038",
"@  c #2C3339",
"#  c #2F3839",
"$  c #333C3A",
"%  c #37413B",
"&  c #3A433B",
"*  c #434C3E",
"=  c #46503F",
"-  c #48533F",
";  c #4C5B3E",
":  c #4B5540",
">  c #4F5A41",
",  c #525D43",
"<  c #556242",
"1  c #5A6645",
"2  c #5D6A45",
"3  c #606D47",
"4  c #626E48",
"5  c #647447",
"6  c #657249",
"7  c #69764A",
"8  c #6E7B4C",
"9  c #717E4E",
"0  c #74824E",
"q  c #75894B",
"w  c #798D4D",
"e  c #7D924E",
"r  c #778450",
"t  c #798651",
"y  c #7C8A52",
"u  c #7F9052",
"i  c #80954F",
"p  c #82984F",
"a  c #818F54",
"s  c #839454",
"d  c #859B51",
"f  c #8A9C56",
"g  c #8D9C59",
"h  c #8CA155",
"j  c #8FA059",
"k  c #90A457",
"l  c #93A45C",
"z  c #92A858",
"x  c #94A959",
"c  c #95A85B",
"v  c #96A95B",
"b  c #96AB5A",
"n  c #97AE5A",
"m  c #97AA5C",
"M  c #97A85E",
"N  c #96AA5B",
"B  c #98AE5A",
"V  c #99AF5B",
"C  c #98AB5D",
"Z  c #99AB5D",
"A  c #98A95E",
"S  c #99AA5E",
"D  c #99AB5E",
"F  c #9AAB5F",
"G  c #9BAF5D",
"H  c #9BAE5F",
"J  c #9CAE5F",
"K  c #9AAD5D",
"L  c #9AB05C",
"P  c #9DB15E",
"I  c #9DB15F",
"U  c #9DB25E",
"Y  c #9EB25E",
"T  c #9EB25F",
"R  c #9FB35F",
"E  c #9CB15D",
"W  c #A0B45F",
"Q  c #9BAC60",
"!  c #9CAD60",
"~  c #9DAE60",
"^  c #9DAF60",
"/  c #9DAE61",
"(  c #9FAF61",
")  c #9DAE60",
"_  c #9DB060",
"`  c #9FB061",
"'  c #9FB161",
"]  c #9FB360",
"[  c #9FB061",
"{  c #A0B360",
"}  c #A0B162",
"|  c #A1B262",
" . c #A1B362",
".. c #A0B460",
"X. c #A0B560",
"o. c #A1B560",
"O. c #A1B461",
"+. c #A2B561",
"@. c #A2B661",
"#. c #A3B661",
"$. c #A1B462",
"%. c #A2B562",
"&. c #A3B563",
"*. c #A3B662",
"=. c #A3B762",
"-. c #A4B762",
";. c #A4B763",
":. c #A4B564",
">. c #A5B664",
",. c #A5B764",
"<. c #A2B562",
"1. c #A4B863",
"2. c #A5B863",
"3. c #A5B864",
"4. c #A6B864",
"5. c #A6B964",
"6. c #A7B964",
"7. c #A6B865",
"8. c #A7B865",
"9. c #A7B965",
"0. c #A7BA64",
"q. c #A7BA65",
"w. c #A7B964",
"e. c #A8BA65",
"r. c #A8BA66",
"t. c #A8BB66",
"y. c #A9BB66",
"u. c #AABC66",
"i. c #AABC67",
"p. c #ABBD67",
"a. c #ACBE67",
"s. c #A9BB66",
/* pixels */
"        & &         & &           & &   & &                 & &       &       & &       &       & &               &             ",
"        0 t =     * t 0 & o       9 y , 0 t * o         O @ 8 y , X 1 y 7 X & r r & o 7 y 1 . , y 8             6 y 2 X         ",
"      & f M 2     7 A g 2 2 1   4 g A 7 g M 3 1 2     < 2 < s / 9 * 4 / s 1 2 l M 6 < s / 8 < 0 / y $   2 2   ; y ] y 3 3       ",
"    & - f { d 2 8 / 5.G h A y 2 M 5.$.h G ] h c f - & r A h c 5.{ 0 6 ] ,.m h Y 5./ h c $.h k { 5.y & = s g < q z 5.{ / M 2     ",
"& 0 f f / 5.Y j M y.i.2.$.5.l e { i.5.$.2.5.$.5.A q s m 5.$.$.y.y.h s $.i.5.$.2.i.y.$.$.5.$.;.i.y.h q s / G w h $.5.Y f 0 <     ",
"& t M ] 5.y.y.y.y.y.y.y.y.y.Y B 2.y.y.y.y.y.y.y.$.n $.i.y.y.y.y.y.Y B 5.y.y.y.y.y.y.y.y.y.y.y.y.y.Y B 5.i.$.n $.i.5.L e 2       ",
"  , 7 h W y.y.y.y.y.y.y.y.y.y.5.y.y.y.y.y.y.y.y.y.5.y.y.y.y.y.y.y.5.5.y.y.y.y.y.y.y.y.y.y.y.y.y.y.5.5.y.y.y.5.y.y.y.5.G p 2 *   ",
"& r l Y 2.y.y.y.y.y.y.y.y.y.y.y.y.y.y.y.y.y.y.y.y.y.y.y.y.y.y.y.y.y.y.y.y.y.y.y.y.y.y.y.y.y.y.y.y.y.y.y.y.y.y.y.y.y.y.5.Y l r & ",
"& r l Y 2.y.y.y.y.y.y.y.y.y.y.y.y.y.y.y.y.y.y.y.y.y.y.y.y.y.y.y.y.y.y.y.y.y.y.y.y.y.y.y.y.y.y.y.y.y.y.y.y.y.y.y.y.y.y.i.5.M 0 & ",
"  & 2 h $.y.y.y.y.y.y.y.y.y.y.y.y.y.y.y.y.y.y.y.y.y.y.y.y.y.y.y.y.y.y.y.y.y.y.y.y.y.y.y.y.y.y.y.y.y.y.y.y.y.y.y.y.y.5.5.A 7 &   ",
"  o 1 m 5.y.y.y.y.y.y.y.y.y.y.y.y.y.y.y.y.y.y.y.y.y.y.y.y.y.y.y.y.y.y.y.y.y.y.y.y.y.y.y.y.y.y.y.y.y.y.y.y.y.y.y.y.5.L s 7       ",
"  o > a c $.y.y.y.y.y.y.y.y.y.y.y.y.y.y.y.y.y.y.y.y.y.y.y.y.y.y.y.y.y.y.y.y.y.y.y.y.y.y.y.y.y.y.y.y.y.y.y.y.y.y.y.5.Y f 0 1     ",
"  > , 1 e B 5.y.y.y.y.y.y.y.y.y.y.y.y.y.y.y.y.y.y.y.y.y.y.y.y.y.y.y.y.y.y.y.y.y.y.y.y.y.y.y.y.y.y.y.y.y.y.y.y.y.y.y.2.$.l 1 +   ",
"& y M m ] ;.y.y.y.y.y.y.y.y.y.y.y.y.y.y.y.y.y.y.y.y.y.y.y.y.y.y.y.y.y.y.y.y.y.y.y.y.y.y.y.y.y.y.y.y.y.y.y.y.y.y.y.5.B s 3 * $   ",
"& 9 g 5.a.i.y.y.y.y.y.y.y.y.y.y.y.y.y.y.y.y.y.y.y.y.y.y.y.y.y.y.y.y.y.y.y.y.y.y.y.y.y.y.y.y.y.y.y.y.y.y.y.y.y.y.y.5.Y h y y 8 & ",
"  # 1 l $.2.y.y.y.y.y.y.y.y.y.y.y.y.y.y.y.y.y.y.y.y.y.y.y.y.y.y.y.y.y.y.y.y.y.y.y.y.y.y.y.y.y.y.y.y.y.y.y.y.y.y.y.y.y.y.5./ y & ",
"  $ * 1 e B 5.y.y.y.y.y.y.y.y.y.y.y.y.y.y.y.y.y.y.y.y.y.y.y.y.y.y.y.y.y.y.y.y.y.y.y.y.y.y.y.y.y.y.y.y.y.y.y.y.y.y.y.y.y.{ 0 ,   ",
"& 9 s s l Y y.y.y.y.y.y.y.y.y.y.y.y.y.y.y.y.y.y.y.y.y.y.y.y.y.y.y.y.y.y.y.y.y.y.y.y.y.y.y.y.y.y.y.y.y.y.y.y.y.y.y.5.Y h y ,     ",
"& y Q 5.y.y.y.y.y.y.y.y.y.y.y.y.y.y.y.y.y.y.y.y.y.y.y.y.y.y.y.y.y.y.y.y.y.y.y.y.y.y.y.y.y.y.y.y.y.y.y.y.y.y.y.y.y.5.B q &       ",
"  : 8 ] i.y.y.y.y.y.y.y.y.y.y.y.y.y.y.y.y.y.y.y.y.y.y.y.y.y.y.y.y.y.y.y.y.y.y.y.y.y.y.y.y.y.y.y.y.y.y.y.y.y.y.y.y.y.5.s -       ",
"  . < h $.y.y.y.y.y.y.y.y.y.y.y.y.y.y.y.y.y.y.y.y.y.y.y.y.y.y.y.y.y.y.y.y.y.y.y.y.y.y.y.y.y.y.y.y.y.y.y.y.y.y.y.y.y.i./ s 1     ",
"  2 0 h $.y.y.y.y.y.y.y.y.y.y.y.y.y.y.y.y.y.y.y.y.y.y.y.y.y.y.y.y.y.y.y.y.y.y.y.y.y.y.y.y.y.y.y.y.y.y.y.y.y.y.y.y.y.$.J g 2     ",
"& y ] ,.y.y.y.y.y.y.y.y.y.y.y.y.y.y.y.y.y.y.y.y.y.y.y.y.y.y.y.y.y.y.y.y.y.y.y.y.y.y.y.y.y.y.y.y.y.y.y.y.y.y.y.y.y.5.n w >       ",
"  4 a ,.i.y.y.y.y.y.y.y.y.y.y.y.y.y.y.y.y.y.y.y.y.y.y.y.y.y.y.y.y.y.y.y.y.y.y.y.y.y.y.y.y.y.y.y.y.y.y.y.y.y.y.y.y.y.$.y %       ",
"    1 f A $.y.y.y.y.y.y.y.y.y.y.y.y.y.y.y.y.y.y.y.y.y.y.y.y.y.y.y.y.y.y.y.y.y.y.y.y.y.y.y.y.y.y.y.y.y.y.y.y.y.y.y.y.i.M 9 ,     ",
"      < w n 5.y.y.y.y.y.y.y.y.y.y.y.y.y.y.y.y.y.y.y.y.y.y.y.y.y.y.y.y.y.y.y.y.y.y.y.y.y.y.y.y.y.y.y.y.y.y.y.y.y.y.y.5.$.M 2     ",
"    ; q l $.y.y.y.y.y.y.y.y.y.y.y.y.y.y.y.y.y.y.y.y.y.y.y.y.y.y.y.y.y.y.y.y.y.y.y.y.y.y.y.y.y.y.y.y.y.y.y.y.y.y.y.5.L s 7       ",
"  7 u c $.y.y.y.y.y.y.y.y.y.y.y.y.y.y.y.y.y.y.y.y.y.y.y.y.y.y.y.y.y.y.y.y.y.y.y.y.y.y.y.y.y.y.y.y.y.y.y.y.y.y.y.y.5.Y f 0 ,     ",
"& y / 5.y.y.y.y.y.y.y.y.y.y.y.y.y.y.y.y.y.y.y.y.y.y.y.y.y.y.y.y.y.y.y.y.y.y.y.y.y.y.y.y.y.y.y.y.y.y.y.y.y.y.y.y.y.y.y.y./ 8 :   ",
"  1 r { i.y.y.y.y.y.y.y.y.y.y.y.y.y.y.y.y.y.y.y.y.y.y.y.y.y.y.y.y.y.y.y.y.y.y.y.y.y.y.y.y.y.y.y.y.y.y.y.y.y.y.y.y.y.y.i.5.G y & ",
"  . < l 2.y.y.y.y.y.y.y.y.y.y.y.y.y.y.y.y.y.y.y.y.y.y.y.y.y.y.y.y.y.y.y.y.y.y.y.y.y.y.y.y.y.y.y.y.y.y.y.y.y.y.y.y.y.y.2.G f 9 & ",
"  , 7 h $.y.y.y.y.y.y.y.y.y.y.y.y.y.y.y.y.y.y.y.y.y.y.y.y.y.y.y.y.y.y.y.y.y.y.y.y.y.y.y.y.y.y.y.y.y.y.y.y.y.y.y.y.y.2.c e <     ",
"& y J $.5.y.y.y.y.y.y.y.y.y.y.y.y.y.y.y.y.y.y.y.y.y.y.y.y.y.y.y.y.y.y.y.y.y.y.y.y.y.y.y.y.y.y.y.y.y.y.y.y.y.y.y.y.5.B w <       ",
"& 8 s c $.y.y.y.y.y.y.y.y.y.y.y.y.y.y.y.y.y.y.y.y.y.y.y.y.y.y.y.y.y.y.y.y.y.y.y.y.y.y.y.y.y.y.y.y.y.y.y.y.y.y.y.y.y.R l a 1     ",
"  @ < h $.y.y.y.y.y.y.y.y.y.y.y.y.y.y.y.y.y.y.y.y.y.y.y.y.y.y.y.y.y.y.y.y.y.y.y.y.y.y.y.y.y.y.y.y.y.y.y.y.y.y.y.y.y.;.] l 2     ",
"  O 2 A 5.y.y.y.y.y.y.y.y.y.y.y.y.y.y.y.y.y.y.y.y.y.y.y.y.y.y.y.y.y.y.y.y.y.y.y.y.y.y.y.y.y.y.y.y.y.y.y.y.y.y.y.y.5.B e 2       ",
"    < 0 f Y 5.y.y.y.y.y.y.y.y.y.y.y.y.y.y.y.y.y.y.y.y.y.y.y.y.y.y.y.y.y.y.y.y.y.y.y.y.y.y.y.y.y.y.y.y.y.y.y.y.y.y.y.$.c s 1     ",
"      & q L 5.y.y.y.y.y.y.y.y.y.y.y.y.y.y.y.y.y.y.y.y.y.y.y.y.y.y.y.y.y.y.y.y.y.y.y.y.y.y.y.y.y.y.y.y.y.y.y.y.y.y.y.y.5.m 1 o   ",
"      - s 5.y.y.y.y.y.y.y.y.y.y.y.y.y.y.y.y.y.y.y.y.y.y.y.y.y.y.y.y.y.y.y.y.y.y.y.y.y.y.y.y.y.y.y.y.y.y.y.y.y.y.y.y.y.$.h 2 &   ",
"    ; q m y.y.y.y.y.y.y.y.y.y.y.y.y.y.y.y.y.y.y.y.y.y.y.y.y.y.y.y.y.y.y.y.y.y.y.y.y.y.y.y.y.y.y.y.y.y.y.y.y.y.y.y.y.y.2.Y l r & ",
"  6 y z $.y.y.y.y.y.y.y.y.y.y.y.y.y.y.y.y.y.y.y.y.y.y.y.y.y.y.y.y.y.y.y.y.y.y.y.y.y.y.y.y.y.y.y.y.y.y.y.y.y.y.y.y.y.y.i.5.M 0 & ",
"& y ] 5.y.y.y.y.y.y.y.y.y.y.y.y.y.y.y.y.y.y.y.y.y.y.y.y.y.y.y.y.y.y.y.y.y.y.y.y.y.y.y.y.y.y.y.y.y.y.y.y.y.y.y.y.y.y.y.5.A 7 &   ",
"  2 y $.i.y.y.y.y.y.y.y.y.y.y.y.y.y.y.y.y.y.y.y.y.y.y.y.y.y.y.y.y.y.y.y.y.y.y.y.y.y.y.y.y.y.y.y.y.y.y.y.y.y.y.y.y.y.y.l 7       ",
"  . < l 2.y.y.y.y.y.y.y.y.y.y.y.y.y.y.y.y.y.y.y.y.y.y.y.y.y.y.y.y.y.y.y.y.y.y.y.y.y.y.y.y.y.y.y.y.y.y.y.y.y.y.y.y.y.i.m r <     ",
"  : 5 h $.y.y.y.y.y.y.y.y.y.y.y.y.y.y.y.y.y.y.y.y.y.y.y.y.y.y.y.y.y.y.y.y.y.y.y.y.y.y.y.y.y.y.y.y.y.y.y.y.y.y.y.y.y.5.$.M 2     ",
"& y A $.5.y.y.y.y.y.y.y.y.y.y.y.y.y.y.y.y.y.y.y.y.y.y.y.y.y.y.y.y.y.y.y.y.y.y.y.y.y.y.y.y.y.y.y.y.y.y.y.y.y.y.y.y.5.B s 6       ",
"& 9 f G ;.y.y.y.y.y.y.y.y.y.y.y.y.y.y.y.y.y.y.y.y.y.y.y.y.y.y.y.y.y.y.y.y.y.y.y.y.y.y.y.y.y.y.y.y.y.y.y.y.y.y.y.y.5.Y h y 1     ",
"  $ 1 h $.y.y.y.y.y.y.y.y.y.y.y.y.y.y.y.y.y.y.y.y.y.y.y.y.y.y.y.y.y.y.y.y.y.y.y.y.y.y.y.y.y.y.y.y.y.y.y.y.y.y.y.y.y.y.5.A 2 o   ",
"  o 2 A 5.y.y.y.y.y.y.y.y.y.y.y.y.y.y.y.y.y.y.y.y.y.y.y.y.y.y.y.y.y.y.y.y.y.y.y.y.y.y.y.y.y.y.y.y.y.y.y.y.y.y.y.y.y.y.$.h 1 $   ",
"    1 y h Y 5.y.y.y.y.y.y.y.y.y.y.y.y.y.y.y.y.y.y.y.y.y.y.y.y.y.y.y.y.y.y.y.y.y.y.y.y.y.y.y.y.y.y.y.y.y.y.y.y.y.y.y.y.;.G f 9 & ",
"      6 s B 5.y.y.y.y.y.y.y.y.y.y.y.y.y.y.y.y.y.y.y.y.y.y.y.y.y.y.y.y.y.y.y.y.y.y.y.y.y.y.y.y.y.y.y.y.y.y.y.y.y.y.y.y.i.5.G y & ",
"    6 m $.5.y.y.y.y.y.y.y.y.y.y.y.y.y.y.y.y.y.y.y.y.y.y.y.y.y.y.y.y.y.y.y.y.y.y.y.y.y.y.y.y.y.y.y.y.y.y.y.y.y.y.y.y.y.y./ 8 :   ",
"& 0 l 5.i.y.y.y.y.y.y.y.y.y.y.y.y.y.y.y.y.y.y.y.y.y.y.y.y.y.y.y.y.y.y.y.y.y.y.y.y.y.y.y.y.y.y.y.y.y.y.y.y.y.y.y.y.5.Y f 0 ,     ",
"& t M ] 5.y.y.y.y.y.y.y.y.y.y.y.y.y.y.y.y.y.y.y.y.y.y.y.y.y.y.y.y.y.y.y.y.y.y.y.y.y.y.y.y.y.y.y.y.y.y.y.y.y.y.y.y.5.L e 2       ",
"  * 3 h $.y.y.y.y.y.y.y.y.y.y.y.y.y.y.y.y.y.y.y.y.y.y.y.y.y.y.y.y.y.y.y.y.y.y.y.y.y.y.y.y.y.y.y.y.y.y.y.y.y.y.y.y.y.5.G p 2 *   ",
"  X 1 c 5.y.y.y.y.y.y.y.y.y.y.y.y.y.y.y.y.y.y.y.y.y.y.y.y.y.y.y.y.y.y.y.y.y.y.y.y.y.y.y.y.y.y.y.y.y.y.y.y.y.y.y.y.y.y.5.Y l r & ",
"  6 a $.i.y.y.y.y.y.y.y.y.y.y.y.y.y.y.y.y.y.y.y.y.y.y.y.y.y.y.y.y.y.y.y.y.y.y.y.y.y.y.y.y.y.y.y.y.y.y.y.y.y.y.y.y.y.y.2.Y l r & ",
"& y ] 5.5.5.y.y.y.5.y.y.y.5.5.y.y.5.5.y.y.y.5.y.y.y.5.5.y.y.y.5.y.y.y.y.5.5.y.y.y.y.y.y.y.5.5.y.y.y.y.y.y.y.y.5.5.y.y.$.h 2 &   ",
"  2 y { Y L 5.i.$.n $.i.5.B Y y.y.Y B 5.i.$.n $.i.5.L Y y.y.Y B 2.i.y.y.Y L 5.y.y.y.y.y.5.B Y y.y.y.y.y.y.y.y.L L y.y.5.m 1 X   ",
"  X 3 / g s ;.$.h w G a.$.s h ;.g w s $.i.G e A { f q f y.y.l e { A l ;.f e G 5.i.y.$.$.$.s h y.y.$.$.y.i.i.5.d i Y 5.i.,.s 7   ",
"    3 M 9 7 { z q < g ,.] 6 r l 2 $ 4 m 5.l 1 s f : & 0 / 5.s 2 l y 6 M 0 2 p Y 5./ h c / 6 0 { 5.c h J ,.5./ 8 2 d { ,.] / y & ",
"      2 = 7 / y ;   2 s / 4 : 2       6 l l : , 2     , 8 G s * 1 1   2 <   2 l M 6 < s / 4 * 9 / s < 6 l A 7     2 M l 6 3 1   ",
"        + 3 y 6       7 y 1 o           0 t - o         : y 9 % O           * r r & o 7 y 1 X , y 8 + $ 0 t *     = t 0 $ o     ",
"            &           &               & &               & &                 & &       &       & &     & &         & &         "
};
