/* XPM */
static char *_104e8a1c7934fd1f7d069ebcea5528fItO6l8RcQcRfe80j[] = {
/* columns rows colors chars-per-pixel */
"64 64 159 2 ",
"   c None",
".  c #002431",
"X  c #012D34",
"o  c #082F35",
"O  c #023035",
"+  c #0A3035",
"@  c #113437",
"#  c #193437",
"$  c #1C3837",
"%  c #2C3D39",
"&  c #373B3A",
"*  c #403F3C",
"=  c #3F423C",
"-  c #42433D",
";  c #46483E",
":  c #4C483F",
">  c #524D41",
",  c #545042",
"<  c #5B5243",
"1  c #684A44",
"2  c #714E47",
"3  c #625545",
"4  c #685947",
"5  c #6B5C49",
"6  c #765349",
"7  c #78554A",
"8  c #745C4A",
"9  c #7A5C4C",
"0  c #75624C",
"q  c #7B644E",
"w  c #7F684F",
"e  c #855F4E",
"r  c #8C5A4F",
"t  c #8C5D50",
"y  c #935D51",
"u  c #80674F",
"i  c #896350",
"p  c #846B51",
"a  c #8A6D53",
"s  c #966E56",
"d  c #8D7154",
"f  c #927557",
"g  c #957758",
"h  c #9D7459",
"j  c #967958",
"k  c #9C7C5A",
"l  c #AF6D5B",
"z  c #A07F5C",
"x  c #AA7F5E",
"c  c #B2765E",
"v  c #BA7560",
"b  c #B17E60",
"n  c #BA7C62",
"m  c #C17F64",
"M  c #A3825E",
"N  c #A8855F",
"B  c #AA8660",
"V  c #AD8861",
"C  c #B58663",
"Z  c #BE8164",
"A  c #B48D64",
"S  c #BB8D66",
"D  c #B79066",
"F  c #BB9267",
"G  c #BD9468",
"H  c #C28465",
"J  c #CA8167",
"K  c #C48967",
"L  c #CD8569",
"P  c #C58968",
"I  c #C98E6A",
"U  c #D0876A",
"Y  c #D18B6B",
"T  c #C3946A",
"R  c #CC956C",
"E  c #C5996C",
"W  c #CA9D6E",
"Q  c #D3956E",
"!  c #D4986F",
"~  c #D79670",
"^  c #D89770",
"/  c #D49D71",
"(  c #DB9A72",
")  c #E19B73",
"_  c #CFA170",
"`  c #D4A472",
"'  c #DAA574",
"]  c #DAA975",
"[  c #DBAA76",
"{  c #D9A875",
"}  c #DFA977",
"|  c #DCAA76",
" . c #DDAB76",
".. c #DEAC77",
"X. c #DFAD77",
"o. c #DFAC77",
"O. c #DCAA76",
"+. c #DFAD78",
"@. c #E2A075",
"#. c #E3A075",
"$. c #E3A376",
"%. c #E1A676",
"&. c #E4A577",
"*. c #E5A677",
"=. c #E4A777",
"-. c #E5A777",
";. c #E6A677",
":. c #E3A476",
">. c #E1AA77",
",. c #E6A778",
"<. c #E5A778",
"1. c #E5A978",
"2. c #E6A878",
"3. c #E4AB78",
"4. c #E6AA78",
"5. c #E6AB79",
"6. c #E3AD79",
"7. c #E1AE78",
"8. c #E0AE78",
"9. c #E2AF79",
"0. c #E7AC79",
"q. c #E6AD79",
"w. c #E7AD79",
"e. c #E7AE7A",
"r. c #E6AF7A",
"t. c #E5AC79",
"y. c #E8AC7A",
"u. c #E8AE7A",
"i. c #E8AF7A",
"p. c #E9AF7A",
"a. c #E8AE7A",
"s. c #E3B079",
"d. c #E4B17A",
"f. c #E5B17A",
"g. c #E7B17B",
"h. c #E6B27B",
"j. c #E7B27B",
"k. c #E7B37B",
"l. c #E6B17B",
"z. c #E8B07A",
"x. c #E8B07B",
"c. c #E8B17B",
"v. c #E9B17B",
"b. c #E8B27B",
"n. c #E9B27B",
"m. c #E8B37B",
"M. c #E9B37C",
"N. c #E9B47C",
"B. c #E9B57C",
"V. c #EAB47C",
"C. c #EAB57C",
"Z. c #EAB57D",
"A. c #EBB57D",
"S. c #EBB67D",
"D. c #ECB67D",
"F. c #ECB77D",
"G. c #ECB77E",
"H. c #E9B47C",
"J. c #EDB87E",
/* pixels */
"      =     =       = - =       = =         =       = - =       = =                       = =         = - =       =             ",
"    0 B d q B p X < M A V 8 . 5 B f # @ X q B p . > M A V 0 . 4 B f $ O         +       < M j % O o 0 V A M > . p B p           ",
"  0 M ] A N ] A 3 3 W D.X.M < 0 ` G w 7 9 B ] V 9 i / D.] w > j { S 9 w 8     q p w   4 g ` T 9 w < w ] D./ i 9 V ] d +         ",
"= B ] h.7.X.h.7.A 0 W S.h.X.M u ` h.` L ! +.h.7./ U :.S.] p k } h.( U ` M - 3 G } ` d k ] h.( L ` M p ] S.:.U / 7.X.f - : :     ",
"  d A 7.S.S.S.S.] T Q &.M.S.R n } S.c.&.u.S.S.S.u.&.0.4.( T ` S.M.4.,.h.` C c / D.0.H I c.S.0.,.c.` T ( 4.u.&.u.S.h.W F F F k = ",
"  q N X.S.S.S.S.S.c.) ) M.M.:.) 0.S.S.S.S.S.S.S.S.S.S.&.) 0.S.S.S.S.M.M.S.4.( 4.S.c.) $.M.S.S.S.S.S.0.) &.S.S.S.S.S.S.S.h.` M = ",
"= V 7.c.c.c.S.S.S.S.c.c.S.S.h.h.M.S.S.S.M.M.M.S.S.S.S.c.c.M.S.S.S.S.S.S.S.M.0.h.S.S.c.c.M.S.S.S.S.S.M.c.c.S.S.S.S.S.c.h.{ d >   ",
"- A S.S.$.) c.S.S.S.S.S.S.S.M.S.S.S.S.S.M.M.S.S.S.S.S.S.S.S.S.S.S.S.S.S.S.S.S.M.S.S.S.S.S.S.S.S.S.S.S.S.S.S.S.S.S.c.) K g       ",
"= z T E Q ) h.S.S.S.S.S.S.S.S.M.S.S.S.S.M.M.M.M.S.S.M.M.M.S.S.S.M.S.S.S.S.S.M.M.S.S.S.S.M.M.M.M.S.S.M.M.M.M.M.M.M.h.) K g       ",
"  > > 3 S 0.M.S.S.S.S.S.S.S.S.S.S.S.S.S.M.M.M.S.S.S.M.M.M.S.S.S.M.M.S.S.S.S.M.M.S.S.S.S.M.M.M.M.S.S.S.S.S.S.M.M.M.M.h.h.` w     ",
"      * c ) c.S.M.M.S.S.S.S.S.S.S.S.S.S.M.M.S.S.S.M.M.M.S.S.S.S.M.M.M.M.S.S.S.M.M.M.S.S.M.S.M.M.M.M.M.M.S.S.S.S.S.S.S.D.} p +   ",
"    5 k I $.c.S.M.M.S.S.S.S.S.S.M.S.S.S.M.M.S.S.S.S.S.M.S.S.S.S.M.M.M.M.S.S.S.M.M.M.S.S.S.S.S.S.M.M.M.M.S.S.S.S.S.c.&./ A 0     ",
"  < j ] c.M.S.S.M.M.S.S.S.S.M.M.M.M.M.M.S.S.S.S.S.S.S.S.S.M.M.M.S.S.S.S.M.M.M.S.M.M.M.M.S.S.S.S.M.S.S.S.M.M.S.S.S.c.( n q       ",
"= N ` h.S.S.S.S.M.M.S.S.S.S.M.M.M.M.M.M.S.S.S.S.M.S.S.S.M.M.M.M.S.S.S.S.M.M.M.S.M.M.S.M.S.S.S.S.S.S.S.S.M.M.S.S.S.M.0.} E w     ",
"= j T ( 0.S.S.S.M.S.S.S.S.M.M.M.S.S.M.M.S.S.M.M.M.M.S.S.S.S.M.M.S.S.S.S.M.M.S.S.S.S.S.S.S.S.M.M.S.S.S.S.M.M.M.S.S.S.S.S.s.G f = ",
"  % 9 U ,.S.S.S.M.S.S.S.M.M.M.M.S.S.S.S.M.M.M.M.M.M.S.S.S.S.M.M.S.S.S.M.M.M.S.S.S.S.S.S.S.S.S.M.S.S.S.S.M.M.M.M.S.S.S.c.3.{ B = ",
"  X w ` c.M.S.M.S.S.S.M.S.S.S.S.S.S.S.S.S.S.S.M.M.M.S.S.S.S.S.S.M.M.M.M.M.M.S.S.S.S.M.M.M.M.M.M.M.M.M.S.S.S.M.M.S.S.S.&.U s 5   ",
"    0 M R $.c.S.S.S.S.M.M.S.S.S.S.S.S.S.S.S.M.M.M.M.S.S.S.S.M.S.S.S.M.M.M.M.S.S.S.S.M.M.M.M.M.M.M.M.M.S.S.S.S.M.S.S.S.u.Q 8 .   ",
"      p Z ) c.S.S.S.M.M.M.M.S.S.M.M.S.M.S.S.S.S.M.M.S.S.M.M.M.M.S.S.S.S.M.S.S.S.M.M.M.M.S.S.S.S.M.M.S.S.S.S.M.M.S.S.S.S.X.M 0   ",
"    p ` 7.c.M.M.S.S.M.M.M.M.S.S.M.M.M.M.S.S.S.S.M.M.S.S.M.M.M.M.S.S.S.S.S.S.S.S.S.M.M.M.S.S.S.S.M.M.S.S.S.S.M.M.S.S.S.c.s.] B = ",
"= k W h.D.S.S.S.S.S.S.M.M.M.S.S.M.M.S.S.S.S.S.S.M.M.M.M.M.S.S.S.M.S.S.S.S.S.S.S.S.S.M.M.M.M.S.S.M.S.S.S.S.S.S.M.S.M.S._ M k d   ",
"= M W W ` 4.M.S.S.S.M.M.M.M.S.S.M.M.S.S.M.S.M.M.M.M.M.M.M.S.S.S.M.M.S.S.S.S.S.S.S.S.S.S.M.M.S.S.S.S.S.S.S.M.M.M.M.M.4.T d a w   ",
"  < 3 0 n ) h.S.M.M.M.M.M.M.M.M.S.S.S.S.M.M.M.M.S.S.M.M.S.S.S.S.M.M.M.M.S.S.S.S.S.S.S.S.M.M.M.S.S.S.S.S.S.S.S.S.S.u.( ( } X.V = ",
"  X 4 A ` 4.h.S.M.M.M.M.M.M.M.S.S.S.S.S.M.M.M.M.S.S.M.S.S.S.S.S.M.M.M.M.S.S.S.M.S.S.S.S.M.M.S.S.S.S.S.S.S.S.S.S.S.h.4.4.S.S.A - ",
"  X q / c.S.S.S.M.M.M.M.M.M.S.S.S.S.S.S.M.M.S.S.S.S.M.M.M.M.M.M.S.S.S.S.S.S.M.M.M.M.S.S.S.S.M.M.M.M.S.S.S.S.S.S.S.S.S.0.$.W M = ",
"  > i U &.S.S.S.M.M.M.M.S.S.S.S.S.S.S.S.M.S.S.S.S.S.M.M.M.M.S.S.S.S.S.S.S.S.M.M.M.M.S.S.S.M.M.M.M.M.S.S.S.S.S.S.S.M.S.&.U e ;   ",
"= M / :.u.S.S.S.S.M.S.S.S.S.S.S.S.S.M.M.M.M.S.S.S.S.S.M.S.S.S.S.M.S.M.M.S.M.M.M.M.M.S.S.S.S.M.M.M.M.M.S.M.M.S.S.M.M.M.u./ q X   ",
"- A D.S.4.&.c.S.S.S.S.S.S.S.S.S.S.S.M.M.M.M.S.S.S.S.S.S.S.S.S.S.M.M.M.M.S.M.M.M.M.M.S.S.S.S.M.M.M.M.M.M.M.M.M.M.M.M.M.{ A q     ",
"= V ] ] ( ( h.S.S.S.S.S.S.S.S.S.S.M.M.M.S.S.S.S.S.S.S.S.S.S.S.M.S.S.M.M.M.M.M.M.M.S.S.S.S.S.S.M.M.M.M.M.M.M.M.S.S.S.S.T 8       ",
"  0 w p T 0.M.S.S.S.S.S.S.S.S.S.S.S.M.M.M.M.S.S.S.S.S.S.S.S.M.M.S.S.M.M.M.M.M.M.M.M.S.S.S.S.S.M.M.M.M.M.M.M.S.S.S.S.S.( v 6     ",
"  . > k ` S.S.S.M.M.M.M.S.M.S.S.S.M.M.M.M.M.M.M.S.S.S.S.M.M.M.M.S.S.S.S.M.S.M.M.S.S.S.S.S.S.S.S.M.M.S.S.S.S.S.S.S.S.S.u.Q 9 X   ",
"  4 j ] S.S.S.S.M.M.M.M.M.M.S.S.S.M.M.M.M.M.M.M.M.S.S.S.M.M.M.M.S.S.S.S.S.S.S.S.S.S.S.S.S.S.S.S.S.M.S.S.S.S.S.S.S.S.S.S.} k 4   ",
"= B ] h.M.M.S.M.M.S.M.S.M.M.M.M.S.S.S.S.S.S.M.S.S.S.S.S.S.S.S.S.S.M.M.M.M.M.M.M.M.S.S.S.M.M.M.M.S.S.S.S.S.S.M.M.M.S.S.S.h.] B = ",
"- f G 7.S.M.S.S.S.S.M.M.M.M.S.S.S.S.S.S.S.S.M.M.S.S.S.S.S.S.S.S.S.M.M.M.M.M.M.M.S.S.S.S.M.M.M.M.S.M.S.S.S.S.M.M.M.M.S.0.( S f = ",
"  # w ` M.M.S.S.S.S.S.M.S.S.S.S.S.S.M.M.M.M.M.M.M.S.S.S.S.S.M.M.S.S.M.M.M.M.S.S.S.S.S.S.S.S.M.M.M.M.M.M.S.S.M.M.S.M.0.^ v 6     ",
"  @ 7 L $.M.S.S.S.S.S.S.S.S.S.S.S.M.M.M.M.M.M.M.M.S.S.S.S.S.S.M.S.M.M.M.S.S.S.S.S.S.S.S.S.S.S.M.M.M.M.M.S.S.M.M.S.c.) v 7       ",
"    1 y H $.c.S.S.S.S.S.S.S.S.M.M.M.M.M.M.M.M.M.M.M.S.S.S.S.M.M.S.S.M.M.M.M.S.S.S.S.S.S.S.S.S.S.S.S.S.M.M.M.M.M.S.h.&./ A q     ",
"      d H ) c.S.S.S.S.S.S.S.M.M.S.S.M.M.S.M.M.M.M.M.S.S.S.S.M.M.S.S.M.M.M.M.S.S.S.S.S.M.S.S.S.S.S.S.S.M.M.M.M.M.S.S.S.D.] p +   ",
"    w ` h.c.S.S.S.S.S.S.M.M.M.M.S.S.S.S.S.S.M.M.M.M.M.S.S.S.M.M.S.S.S.S.M.S.S.S.S.S.M.M.M.M.S.S.S.S.S.S.M.M.S.S.S.S.c.h.` w +   ",
"  + p } D.S.S.S.M.S.S.S.M.M.M.M.S.S.S.S.S.S.M.M.M.M.S.S.S.S.M.M.S.S.S.S.M.M.S.S.S.S.M.M.M.M.M.M.S.S.S.S.S.M.S.S.S.c.) P d > #   ",
"    q F / 4.c.S.M.M.S.S.S.S.S.S.M.M.M.M.M.S.S.S.S.S.S.S.M.M.S.S.S.S.S.S.M.M.M.M.S.S.M.S.S.S.S.S.M.M.M.M.M.M.S.S.S.c.) K j j a   ",
"      q n ( 0.S.M.M.S.S.S.S.S.S.M.M.M.M.S.S.S.S.S.S.S.S.M.M.S.S.S.S.S.S.M.M.M.M.S.S.M.M.S.S.S.S.S.S.M.M.M.M.S.S.S.S.c.h.7.] B = ",
"    q T ' 4.M.S.M.M.M.S.M.M.S.M.M.M.S.S.S.S.S.S.S.S.M.S.M.M.S.S.M.M.S.S.M.S.M.M.M.M.M.M.M.S.S.S.S.S.S.S.M.S.S.S.S.S.S.S.7.B w   ",
"  d A 7.S.S.S.S.M.M.M.S.M.M.M.M.S.S.S.S.S.S.S.S.S.S.M.M.M.M.S.S.M.M.S.S.S.S.S.S.M.M.M.M.M.S.S.S.S.S.S.S.S.S.S.S.S.S.S.u.! 8 .   ",
"= B ] h.S.S.S.S.M.M.M.M.M.M.S.S.S.S.S.S.S.S.S.S.S.M.M.M.S.S.S.S.M.M.M.M.S.S.S.S.M.M.S.S.M.M.M.M.M.S.S.S.S.S.S.S.S.S.S.&.U a <   ",
"  0 M X.S.S.S.S.M.M.M.M.M.M.S.S.S.S.S.S.S.S.S.S.S.M.M.M.S.M.S.S.M.M.S.M.S.S.S.S.M.M.S.S.M.M.M.M.M.M.S.S.S.S.S.S.S.S.S.c.>.` N = ",
"    5 V R &.c.S.M.M.S.M.S.S.S.S.M.S.M.M.M.M.S.S.S.S.M.M.M.M.M.M.S.S.S.S.S.S.M.M.M.M.S.S.S.S.M.S.M.M.M.M.S.S.S.S.M.M.M.S.h.E j = ",
"      w n ) c.S.S.S.S.S.S.S.S.S.M.M.M.M.M.M.S.S.S.M.M.M.M.M.M.M.S.S.S.S.S.S.S.M.M.M.S.S.S.S.S.S.M.M.M.M.S.S.S.M.M.M.M.7.W p     ",
"    w W >.0.M.S.M.M.M.S.S.S.M.M.M.M.S.S.S.S.S.S.M.M.M.S.S.S.M.M.S.S.M.M.M.S.S.S.M.M.M.S.S.S.M.M.M.M.S.S.S.S.S.S.S.S.S.E p       ",
"  + p X.J.S.S.S.M.M.M.S.S.S.M.S.M.M.S.S.S.S.M.S.M.M.M.M.S.S.S.S.S.S.M.M.S.S.S.S.M.M.S.S.S.S.M.M.M.M.S.S.S.S.M.M.S.S.S.` A 0     ",
"    w E } 0.M.S.M.M.S.S.S.S.S.S.M.M.S.S.M.M.M.M.M.M.S.S.S.S.S.S.S.M.M.M.S.S.S.S.M.M.M.S.S.S.S.S.M.S.S.S.M.M.M.M.M.S.M.7.E 8 o   ",
"      q n ) c.S.M.M.M.S.S.S.S.S.M.M.S.S.M.M.M.M.M.M.S.S.S.S.S.S.S.M.M.M.S.S.S.S.M.M.M.S.S.S.S.S.M.M.S.S.M.M.M.M.M.M.M.E 0 > ;   ",
"    0 A / &.c.M.S.S.S.S.M.M.S.S.M.M.M.M.M.S.S.S.S.S.S.S.M.S.S.S.M.S.S.S.M.M.M.M.S.S.S.S.M.M.S.S.M.M.M.M.M.S.S.S.S.c.$.Q F F k = ",
"    q E X.S.S.S.S.S.S.S.M.S.S.S.M.M.M.M.M.S.S.S.S.S.S.S.M.S.S.S.M.S.S.S.M.M.M.M.S.S.S.S.M.M.S.S.S.M.M.M.S.S.S.S.S.c.) $.S.S.A - ",
"      8 T S.S.S.S.S.M.M.M.M.S.S.S.S.M.M.S.S.S.S.S.S.M.M.M.M.S.S.M.M.S.S.S.S.M.M.S.S.M.M.M.M.S.S.S.S.M.M.S.S.S.S.S.S.c.c.h.7.A = ",
"    2 l / S.S.S.S.S.M.M.M.M.S.S.S.S.M.S.S.S.S.S.S.M.M.M.M.M.S.S.M.M.S.S.S.S.S.M.S.S.S.M.M.M.S.S.S.S.M.M.S.S.S.S.S.S.S.4.Q x p   ",
"  X 9 Y 4.S.S.S.S.S.M.M.S.S.S.S.S.S.S.S.S.S.S.S.S.S.S.S.S.S.S.S.M.M.M.S.S.S.S.S.S.M.S.M.S.S.S.S.S.S.S.S.S.S.S.S.S.S.M.4.Y 7 X   ",
"  > d ] S.S.S.S.S.S.M.h.c.M.S.M.c.c.S.S.c.c.S.S.S.S.S.S.M.c.c.S.M.M.S.S.S.S.S.c.c.S.M.h.c.M.S.S.S.S.S.S.S.S.S.S.c.u.M.M.] d >   ",
"= M ` h.S.S.S.S.M.M.M.&.) 0.S.0.) :.S.M.$.) c.S.M.M.S.S.c.) $.M.S.S.S.S.S.S.c.) ) c.S.&.) 0.S.S.M.M.S.S.S.S.S.S.4.( 4.S.h.` M = ",
"= k F G ] S.c.W R $.0.4.( T ` >.n b E 7.I H 0.S.0.&.u.] T ~ &.c.&.u.S.S.S.c.$.m K h.S./ n } S.S.S.4.,.h.S.c.&.0.4.( T _ s.W k = ",
"    ; < G h.{ j t J :.S.] p M W q & p W z d ` h.' L / A q ` S.4.U Q X.h.7./ J r g ` } A q E s.h.} Q Y 0.7./ U $.S.} f j W a     ",
"      ; F ` d     i / D.] w < w       w 8   d W W e q 3 4 _ D.] s 8 M ] A q 7     w p 0   w G ] j 6 h ] D q e W S.X.d > w       ",
"        k M >     , M A V 0 o               ; z z ; X X 3 N A B 4 . 8 B d O         +       f B 4 . 0 B d X ; M A V w @         ",
"        = =         = - =                     = =         = - =       =                     = =       =       = - =             "
};
